<svg width="94" height="34" viewBox="0 0 94 34" fill="none" xmlns="http://www.w3.org/2000/svg">
<rect x="0.5" y="0.5" width="93" height="33" rx="16.5" fill="#1B1A1F"/>
<path d="M26.9511 22.6005L25.8281 10H38.1721L37.0476 22.5985L31.9926 24L26.9511 22.6005Z" fill="#1572B6"/>
<path d="M32 22.9288L36.085 21.7963L37.046 11.0303H32V22.9288Z" fill="#33A9DC"/>
<path d="M32 15.5953H34.045L34.186 14.0128H32V12.4673H35.875L35.838 12.8818L35.4585 17.1408H32V15.5953V15.5953Z" fill="white"/>
<path d="M32.0096 19.6091L32.0026 19.6111L30.2816 19.1461L30.1716 17.9136H28.6201L28.8366 20.3401L32.0021 21.2191L32.0096 21.2171V19.6091V19.6091Z" fill="#EBEBEB"/>
<path d="M33.9134 17.0757L33.7274 19.1452L32.0039 19.6102V21.2182L35.1719 20.3402L35.1954 20.0792L35.4639 17.0757H33.9134V17.0757Z" fill="white"/>
<path d="M32.0053 12.4673V14.0128H28.2723L28.2413 13.6653L28.1708 12.8818L28.1338 12.4673H32.0053V12.4673ZM31.9998 15.5953V17.1408H30.3003L30.2693 16.7933L30.1993 16.0098L30.1623 15.5953H31.9998V15.5953Z" fill="#EBEBEB"/>
<path d="M51.876 22.144C50.852 22.144 50.088 21.772 49.584 21.028C49.088 20.284 48.84 19.212 48.84 17.812C48.84 16.412 49.088 15.34 49.584 14.596C50.088 13.852 50.852 13.48 51.876 13.48C52.26 13.48 52.592 13.532 52.872 13.636C53.152 13.74 53.392 13.88 53.592 14.056C53.792 14.232 53.96 14.432 54.096 14.656C54.232 14.872 54.352 15.092 54.456 15.316L53.592 15.712C53.52 15.528 53.436 15.356 53.34 15.196C53.244 15.028 53.128 14.884 52.992 14.764C52.864 14.636 52.708 14.536 52.524 14.464C52.348 14.392 52.132 14.356 51.876 14.356C51.212 14.356 50.716 14.608 50.388 15.112C50.068 15.616 49.908 16.288 49.908 17.128V18.496C49.908 19.336 50.068 20.008 50.388 20.512C50.716 21.016 51.212 21.268 51.876 21.268C52.132 21.268 52.348 21.232 52.524 21.16C52.708 21.088 52.864 20.992 52.992 20.872C53.128 20.744 53.244 20.6 53.34 20.44C53.436 20.272 53.52 20.096 53.592 19.912L54.456 20.308C54.352 20.54 54.232 20.764 54.096 20.98C53.96 21.196 53.792 21.392 53.592 21.568C53.392 21.744 53.152 21.884 52.872 21.988C52.592 22.092 52.26 22.144 51.876 22.144ZM58.7713 22.144C58.0193 22.144 57.4033 22.008 56.9233 21.736C56.4433 21.456 56.0473 21.1 55.7353 20.668L56.4673 20.068C56.7953 20.476 57.1393 20.78 57.4993 20.98C57.8673 21.18 58.3033 21.28 58.8073 21.28C59.4153 21.28 59.8793 21.14 60.1993 20.86C60.5193 20.58 60.6793 20.188 60.6793 19.684C60.6793 19.276 60.5633 18.96 60.3313 18.736C60.0993 18.504 59.6953 18.34 59.1193 18.244L58.1833 18.088C57.7753 18.016 57.4313 17.908 57.1513 17.764C56.8793 17.62 56.6593 17.448 56.4913 17.248C56.3233 17.04 56.2033 16.816 56.1313 16.576C56.0593 16.328 56.0233 16.072 56.0233 15.808C56.0233 15.04 56.2753 14.46 56.7793 14.068C57.2833 13.676 57.9633 13.48 58.8193 13.48C59.4913 13.48 60.0553 13.592 60.5113 13.816C60.9753 14.04 61.3473 14.356 61.6273 14.764L60.9193 15.376C60.6873 15.072 60.4073 14.824 60.0793 14.632C59.7513 14.44 59.3273 14.344 58.8073 14.344C58.2393 14.344 57.8033 14.464 57.4993 14.704C57.1953 14.944 57.0433 15.304 57.0433 15.784C57.0433 16.16 57.1553 16.468 57.3793 16.708C57.6113 16.94 58.0233 17.108 58.6153 17.212L59.5153 17.368C59.9233 17.44 60.2673 17.548 60.5473 17.692C60.8273 17.836 61.0513 18.008 61.2193 18.208C61.3953 18.408 61.5193 18.632 61.5913 18.88C61.6633 19.128 61.6993 19.388 61.6993 19.66C61.6993 20.436 61.4433 21.044 60.9313 21.484C60.4273 21.924 59.7073 22.144 58.7713 22.144ZM65.9666 22.144C65.2146 22.144 64.5986 22.008 64.1186 21.736C63.6386 21.456 63.2426 21.1 62.9306 20.668L63.6626 20.068C63.9906 20.476 64.3346 20.78 64.6946 20.98C65.0626 21.18 65.4986 21.28 66.0026 21.28C66.6106 21.28 67.0746 21.14 67.3946 20.86C67.7146 20.58 67.8746 20.188 67.8746 19.684C67.8746 19.276 67.7586 18.96 67.5266 18.736C67.2946 18.504 66.8906 18.34 66.3146 18.244L65.3786 18.088C64.9706 18.016 64.6266 17.908 64.3466 17.764C64.0746 17.62 63.8546 17.448 63.6866 17.248C63.5186 17.04 63.3986 16.816 63.3266 16.576C63.2546 16.328 63.2186 16.072 63.2186 15.808C63.2186 15.04 63.4706 14.46 63.9746 14.068C64.4786 13.676 65.1586 13.48 66.0146 13.48C66.6866 13.48 67.2506 13.592 67.7066 13.816C68.1706 14.04 68.5426 14.356 68.8226 14.764L68.1146 15.376C67.8826 15.072 67.6026 14.824 67.2746 14.632C66.9466 14.44 66.5226 14.344 66.0026 14.344C65.4346 14.344 64.9986 14.464 64.6946 14.704C64.3906 14.944 64.2386 15.304 64.2386 15.784C64.2386 16.16 64.3506 16.468 64.5746 16.708C64.8066 16.94 65.2186 17.108 65.8106 17.212L66.7106 17.368C67.1186 17.44 67.4626 17.548 67.7426 17.692C68.0226 17.836 68.2466 18.008 68.4146 18.208C68.5906 18.408 68.7146 18.632 68.7866 18.88C68.8586 19.128 68.8946 19.388 68.8946 19.66C68.8946 20.436 68.6386 21.044 68.1266 21.484C67.6226 21.924 66.9026 22.144 65.9666 22.144Z" fill="#7A7785"/>
<rect x="0.5" y="0.5" width="93" height="33" rx="16.5" stroke="#0A0A0A"/>
</svg>
