<svg width="103" height="34" viewBox="0 0 103 34" fill="none" xmlns="http://www.w3.org/2000/svg">
<rect x="0.5" y="0.5" width="101.67" height="33" rx="16.5" fill="#1B1A1F"/>
<g clip-path="url(#clip0_23_655)">
<path d="M26.6681 24.9998C28.1401 24.9998 29.3348 23.8052 29.3348 22.3332V19.6665H26.6681C25.1961 19.6665 24.0015 20.8612 24.0015 22.3332C24.0015 23.8052 25.1961 24.9998 26.6681 24.9998Z" fill="#0ACF83"/>
<path d="M24.0015 17.0002C24.0015 15.5282 25.1961 14.3335 26.6681 14.3335H29.3348V19.6668H26.6681C25.1961 19.6668 24.0015 18.4722 24.0015 17.0002Z" fill="#A259FF"/>
<path d="M24.0015 11.6667C24.0015 10.1947 25.1961 9 26.6681 9H29.3348V14.3333H26.6681C25.1961 14.3333 24.0015 13.1387 24.0015 11.6667Z" fill="#F24E1E"/>
<path d="M29.335 9H32.0016C33.4736 9 34.6683 10.1947 34.6683 11.6667C34.6683 13.1387 33.4736 14.3333 32.0016 14.3333H29.335V9Z" fill="#FF7262"/>
<path d="M34.6683 17.0002C34.6683 18.4722 33.4736 19.6668 32.0016 19.6668C30.5296 19.6668 29.335 18.4722 29.335 17.0002C29.335 15.5282 30.5296 14.3335 32.0016 14.3335C33.4736 14.3335 34.6683 15.5282 34.6683 17.0002Z" fill="#1ABCFE"/>
</g>
<path d="M43.7499 22V13.624H49.0299V14.5H44.7579V17.32H48.6699V18.196H44.7579V22H43.7499ZM53.8492 14.44C53.5692 14.44 53.3732 14.384 53.2612 14.272C53.1492 14.152 53.0932 14.004 53.0932 13.828V13.636C53.0932 13.46 53.1492 13.316 53.2612 13.204C53.3732 13.084 53.5692 13.024 53.8492 13.024C54.1292 13.024 54.3252 13.084 54.4372 13.204C54.5492 13.316 54.6052 13.46 54.6052 13.636V13.828C54.6052 14.004 54.5492 14.152 54.4372 14.272C54.3252 14.384 54.1292 14.44 53.8492 14.44ZM51.1372 21.184H53.3692V16.624H51.1372V15.808H54.3292V21.184H56.4172V22H51.1372V21.184ZM63.7925 22.708C63.7925 23.332 63.5325 23.792 63.0125 24.088C62.4925 24.392 61.7125 24.544 60.6725 24.544C59.6725 24.544 58.9525 24.412 58.5125 24.148C58.0805 23.884 57.8645 23.504 57.8645 23.008C57.8645 22.672 57.9525 22.412 58.1285 22.228C58.3045 22.044 58.5525 21.908 58.8725 21.82V21.676C58.6965 21.588 58.5605 21.476 58.4645 21.34C58.3685 21.204 58.3205 21.032 58.3205 20.824C58.3205 20.504 58.4245 20.264 58.6325 20.104C58.8485 19.944 59.1165 19.824 59.4365 19.744V19.696C59.0525 19.528 58.7525 19.28 58.5365 18.952C58.3285 18.624 58.2245 18.24 58.2245 17.8C58.2245 17.488 58.2805 17.2 58.3925 16.936C58.5045 16.672 58.6645 16.448 58.8725 16.264C59.0885 16.072 59.3445 15.924 59.6405 15.82C59.9365 15.716 60.2645 15.664 60.6245 15.664C61.0885 15.664 61.4965 15.748 61.8485 15.916V15.808C61.8485 15.568 61.9045 15.368 62.0165 15.208C62.1285 15.048 62.3205 14.968 62.5925 14.968H63.7325V15.808H62.3405V16.228C62.5645 16.42 62.7365 16.648 62.8565 16.912C62.9765 17.176 63.0365 17.472 63.0365 17.8C63.0365 18.112 62.9765 18.4 62.8565 18.664C62.7445 18.928 62.5845 19.156 62.3765 19.348C62.1685 19.532 61.9125 19.676 61.6085 19.78C61.3125 19.884 60.9845 19.936 60.6245 19.936C60.5205 19.936 60.4205 19.932 60.3245 19.924C60.2285 19.916 60.1325 19.904 60.0365 19.888C59.9405 19.904 59.8405 19.932 59.7365 19.972C59.6325 20.004 59.5365 20.052 59.4485 20.116C59.3605 20.172 59.2885 20.24 59.2325 20.32C59.1765 20.4 59.1485 20.492 59.1485 20.596C59.1485 20.78 59.2405 20.904 59.4245 20.968C59.6085 21.024 59.8485 21.052 60.1445 21.052H61.5125C62.3125 21.052 62.8925 21.204 63.2525 21.508C63.6125 21.804 63.7925 22.204 63.7925 22.708ZM62.8925 22.756C62.8925 22.508 62.7925 22.308 62.5925 22.156C62.3925 22.012 62.0445 21.94 61.5485 21.94H59.4005C58.9845 22.108 58.7765 22.388 58.7765 22.78C58.7765 23.052 58.8845 23.284 59.1005 23.476C59.3165 23.676 59.6765 23.776 60.1805 23.776H61.1165C61.6765 23.776 62.1125 23.688 62.4245 23.512C62.7365 23.344 62.8925 23.092 62.8925 22.756ZM60.6245 19.192C61.1045 19.192 61.4565 19.08 61.6805 18.856C61.9125 18.632 62.0285 18.336 62.0285 17.968V17.62C62.0285 17.252 61.9125 16.96 61.6805 16.744C61.4565 16.52 61.1045 16.408 60.6245 16.408C60.1445 16.408 59.7925 16.52 59.5685 16.744C59.3445 16.96 59.2325 17.252 59.2325 17.62V17.968C59.2325 18.336 59.3445 18.632 59.5685 18.856C59.7925 19.08 60.1445 19.192 60.6245 19.192ZM64.9039 22V15.808H65.7919V16.528H65.8399C65.9359 16.288 66.0719 16.084 66.2479 15.916C66.4239 15.748 66.6839 15.664 67.0279 15.664C67.3879 15.664 67.6559 15.756 67.8319 15.94C68.0079 16.116 68.1159 16.348 68.1559 16.636H68.1919C68.3039 16.356 68.4639 16.124 68.6719 15.94C68.8799 15.756 69.1679 15.664 69.5359 15.664C70.0399 15.664 70.3759 15.84 70.5439 16.192C70.7199 16.544 70.8079 17.048 70.8079 17.704V22H69.9199V17.86C69.9199 17.332 69.8639 16.968 69.7519 16.768C69.6479 16.56 69.4519 16.456 69.1639 16.456C68.9079 16.456 68.6999 16.54 68.5399 16.708C68.3799 16.868 68.2999 17.116 68.2999 17.452V22H67.4119V17.86C67.4119 17.332 67.3559 16.968 67.2439 16.768C67.1399 16.56 66.9479 16.456 66.6679 16.456C66.4119 16.456 66.1999 16.54 66.0319 16.708C65.8719 16.868 65.7919 17.116 65.7919 17.452V22H64.9039ZM77.3912 22C77.0152 22 76.7472 21.904 76.5872 21.712C76.4272 21.52 76.3272 21.28 76.2872 20.992H76.2272C76.0912 21.352 75.8712 21.636 75.5672 21.844C75.2712 22.044 74.8712 22.144 74.3672 22.144C73.7192 22.144 73.2032 21.976 72.8192 21.64C72.4352 21.304 72.2432 20.844 72.2432 20.26C72.2432 19.684 72.4512 19.24 72.8672 18.928C73.2912 18.616 73.9712 18.46 74.9072 18.46H76.2272V17.848C76.2272 17.392 76.0992 17.052 75.8432 16.828C75.5872 16.596 75.2232 16.48 74.7512 16.48C74.3352 16.48 73.9952 16.564 73.7312 16.732C73.4672 16.892 73.2552 17.112 73.0952 17.392L72.4472 16.912C72.5272 16.752 72.6352 16.596 72.7712 16.444C72.9072 16.292 73.0752 16.16 73.2752 16.048C73.4752 15.928 73.7032 15.836 73.9592 15.772C74.2152 15.7 74.4992 15.664 74.8112 15.664C75.5392 15.664 76.1152 15.848 76.5392 16.216C76.9712 16.584 77.1872 17.096 77.1872 17.752V21.16H78.0512V22H77.3912ZM74.5352 21.34C74.7832 21.34 75.0072 21.312 75.2072 21.256C75.4152 21.192 75.5952 21.112 75.7472 21.016C75.8992 20.912 76.0152 20.792 76.0952 20.656C76.1832 20.512 76.2272 20.36 76.2272 20.2V19.18H74.9072C74.3312 19.18 73.9112 19.26 73.6472 19.42C73.3832 19.58 73.2512 19.812 73.2512 20.116V20.368C73.2512 20.688 73.3632 20.932 73.5872 21.1C73.8192 21.26 74.1352 21.34 74.5352 21.34Z" fill="#7A7785"/>
<rect x="0.5" y="0.5" width="101.67" height="33" rx="16.5" stroke="#0A0A0A"/>
<defs>
<clipPath id="clip0_23_655">
<rect width="10.67" height="16" fill="white" transform="translate(24 9)"/>
</clipPath>
</defs>
</svg>
