<svg width="101" height="34" viewBox="0 0 101 34" fill="none" xmlns="http://www.w3.org/2000/svg">
<rect x="0.5" y="0.5" width="100" height="33" rx="16.5" fill="#1B1A1F"/>
<g clip-path="url(#clip0_23_666)">
<path d="M37.2321 10.0908C37.1614 10.0801 37.0801 10.1621 37.0161 10.3554C36.9114 10.6688 36.3008 12.4908 33.3468 13.2394C33.7441 13.5808 33.9974 14.0674 33.9974 14.6121C33.9974 15.6434 33.1014 16.4788 31.9974 16.4788C30.8941 16.4788 29.9994 15.6428 29.9988 14.6121C29.9988 14.2101 30.1374 13.8401 30.3688 13.5348C28.2788 13.3201 27.3754 11.4528 27.3754 11.4528L27.3114 14.2281C27.2948 14.6041 27.3054 14.9688 27.1314 15.3188C27.1205 15.3027 27.1094 15.2867 27.0981 15.2708C26.8529 14.9295 26.5443 14.6449 26.2082 14.4497C25.872 14.2546 25.522 14.1569 25.1988 14.1681C24.9442 14.1769 24.7134 14.253 24.5234 14.3908C24.1847 14.6359 23.9964 15.0612 24.0001 15.5732C24.0037 16.0851 24.1989 16.6418 24.5428 17.1208C24.8276 17.5171 25.1967 17.8357 25.5932 18.0273C25.9897 18.2188 26.3916 18.2728 26.7368 18.1808C28.7348 19.6608 32.3914 20.9461 34.8908 19.4374L33.5408 18.3514C32.8314 18.5814 31.8048 18.5781 30.6094 18.1548C32.5428 18.5428 33.5894 18.1194 34.1654 17.6734C34.0134 17.4761 33.6921 17.3228 33.6921 17.3228C33.6921 17.3228 34.0674 17.3941 34.3121 17.6534C34.4101 17.7568 34.4441 17.9114 34.4574 18.0888C34.8261 18.2874 35.2461 18.5261 35.7074 18.7968C37.0808 17.4234 37.8761 14.8414 37.3874 10.3854C37.3641 10.2061 37.3028 10.1021 37.2321 10.0908ZM28.5701 13.7308C29.2708 13.7301 29.8388 14.2608 29.8388 14.9154C29.8388 15.5688 29.2701 16.0994 28.5701 16.0988C27.8701 16.0988 27.3034 15.5688 27.3034 14.9154C27.3034 14.2614 27.8701 13.7308 28.5701 13.7301V13.7308ZM32.4208 14.0521C32.3048 14.052 32.1899 14.0748 32.0827 14.1191C31.9755 14.1634 31.8781 14.2284 31.796 14.3103C31.7139 14.3923 31.6487 14.4896 31.6043 14.5968C31.5598 14.7039 31.5369 14.8188 31.5368 14.9348C31.5367 15.0508 31.5595 15.1656 31.6038 15.2728C31.6481 15.3801 31.7131 15.4775 31.795 15.5596C31.877 15.6417 31.9743 15.7068 32.0815 15.7513C32.1886 15.7957 32.3034 15.8187 32.4194 15.8188C32.6537 15.8189 32.8785 15.726 33.0443 15.5605C33.21 15.395 33.3033 15.1704 33.3034 14.9361C33.3036 14.7018 33.2107 14.4771 33.0452 14.3113C32.8797 14.1455 32.6551 14.0523 32.4208 14.0521ZM25.1261 14.4781C25.1266 14.4781 25.127 14.4781 25.1274 14.4781C25.1321 14.478 25.1368 14.478 25.1414 14.4781C25.226 14.478 25.3098 14.4943 25.3879 14.5261C25.466 14.5579 25.537 14.6045 25.5968 14.6632C25.6566 14.722 25.7039 14.7918 25.7362 14.8686C25.7684 14.9454 25.785 15.0277 25.7848 15.1108C25.7848 15.1937 25.7681 15.2759 25.7358 15.3525C25.7035 15.4292 25.6561 15.4988 25.5963 15.5574C25.5366 15.616 25.4656 15.6625 25.3876 15.6942C25.3095 15.7259 25.2259 15.7422 25.1414 15.7421C24.9712 15.7417 24.8081 15.6751 24.6879 15.5567C24.5676 15.4384 24.5001 15.278 24.5001 15.1108C24.4995 14.9457 24.5648 14.7869 24.6819 14.6685C24.7991 14.5501 24.9588 14.4815 25.1268 14.4774L25.1261 14.4781ZM28.8321 14.5601C28.7586 14.561 28.6859 14.5763 28.6183 14.6053C28.5507 14.6342 28.4895 14.6762 28.4381 14.7288C28.3867 14.7814 28.3462 14.8437 28.3189 14.912C28.2915 14.9802 28.2779 15.0532 28.2788 15.1268C28.2797 15.2003 28.295 15.2729 28.324 15.3406C28.3529 15.4082 28.3949 15.4694 28.4475 15.5208C28.5001 15.5722 28.5624 15.6127 28.6306 15.64C28.6989 15.6674 28.7719 15.681 28.8454 15.6801C28.994 15.6783 29.1357 15.6176 29.2395 15.5114C29.3432 15.4051 29.4005 15.2619 29.3988 15.1134C29.397 14.9649 29.3363 14.8232 29.23 14.7194C29.1238 14.6156 28.9806 14.5583 28.8321 14.5601ZM34.3388 17.8694C34.3101 17.9048 34.2701 17.9354 34.2348 17.9674L34.3748 18.0441C34.3634 17.9774 34.3528 17.9041 34.3388 17.8694ZM33.9721 17.9361L33.4834 18.1768L33.5234 18.2101L33.6554 18.3148L34.9848 19.3854L34.9948 19.3934C35.4235 19.7362 35.8573 20.0724 36.2961 20.4021C36.291 20.43 36.2892 20.4584 36.2908 20.4868L36.4641 20.4601L36.5328 20.5614L38.0774 21.5428C37.9974 21.8161 38.0341 22.1781 38.2154 22.5141C38.7421 23.4908 40.0001 23.9101 40.0001 23.9101C39.4861 22.5981 39.8608 21.5308 38.8468 21.1548C38.6854 21.0948 38.5448 21.0928 38.4274 21.1328L37.0628 19.8694L36.9468 19.8348L36.9301 19.6601C36.9024 19.6711 36.8757 19.6842 36.8501 19.6994C36.6461 19.5261 36.3921 19.3414 36.1234 19.1561C35.2141 18.5994 34.6188 18.2894 33.9714 17.9361H33.9721Z" fill="#4A4852"/>
</g>
<path d="M53.328 20.884H53.268C53.196 21.044 53.112 21.2 53.016 21.352C52.92 21.504 52.796 21.64 52.644 21.76C52.5 21.872 52.324 21.964 52.116 22.036C51.908 22.108 51.66 22.144 51.372 22.144C50.46 22.144 49.78 21.776 49.332 21.04C48.892 20.304 48.672 19.248 48.672 17.872C48.672 16.432 48.916 15.34 49.404 14.596C49.892 13.852 50.644 13.48 51.66 13.48C52.052 13.48 52.392 13.532 52.68 13.636C52.968 13.74 53.212 13.88 53.412 14.056C53.62 14.232 53.792 14.432 53.928 14.656C54.064 14.872 54.176 15.092 54.264 15.316L53.4 15.712C53.328 15.528 53.244 15.356 53.148 15.196C53.06 15.028 52.948 14.884 52.812 14.764C52.684 14.636 52.528 14.536 52.344 14.464C52.16 14.392 51.944 14.356 51.696 14.356C51.024 14.356 50.528 14.608 50.208 15.112C49.896 15.616 49.74 16.288 49.74 17.128V18.424C49.74 18.848 49.772 19.236 49.836 19.588C49.9 19.932 50.004 20.232 50.148 20.488C50.3 20.744 50.492 20.944 50.724 21.088C50.964 21.224 51.256 21.292 51.6 21.292C52.144 21.292 52.568 21.128 52.872 20.8C53.176 20.472 53.328 20.048 53.328 19.528V18.664H51.564V17.86H54.264V22H53.328V20.884ZM59.1793 14.44C58.8993 14.44 58.7033 14.384 58.5913 14.272C58.4793 14.152 58.4233 14.004 58.4233 13.828V13.636C58.4233 13.46 58.4793 13.316 58.5913 13.204C58.7033 13.084 58.8993 13.024 59.1793 13.024C59.4593 13.024 59.6553 13.084 59.7673 13.204C59.8793 13.316 59.9353 13.46 59.9353 13.636V13.828C59.9353 14.004 59.8793 14.152 59.7673 14.272C59.6553 14.384 59.4593 14.44 59.1793 14.44ZM56.4673 21.184H58.6993V16.624H56.4673V15.808H59.6593V21.184H61.7473V22H56.4673V21.184ZM63.0386 22V15.808H63.9266V16.528H63.9746C64.0706 16.288 64.2066 16.084 64.3826 15.916C64.5586 15.748 64.8186 15.664 65.1626 15.664C65.5226 15.664 65.7906 15.756 65.9666 15.94C66.1426 16.116 66.2506 16.348 66.2906 16.636H66.3266C66.4386 16.356 66.5986 16.124 66.8066 15.94C67.0146 15.756 67.3026 15.664 67.6706 15.664C68.1746 15.664 68.5106 15.84 68.6786 16.192C68.8546 16.544 68.9426 17.048 68.9426 17.704V22H68.0546V17.86C68.0546 17.332 67.9986 16.968 67.8866 16.768C67.7826 16.56 67.5866 16.456 67.2986 16.456C67.0426 16.456 66.8346 16.54 66.6746 16.708C66.5146 16.868 66.4346 17.116 66.4346 17.452V22H65.5466V17.86C65.5466 17.332 65.4906 16.968 65.3786 16.768C65.2746 16.56 65.0826 16.456 64.8026 16.456C64.5466 16.456 64.3346 16.54 64.1666 16.708C64.0066 16.868 63.9266 17.116 63.9266 17.452V22H63.0386ZM70.7259 15.808H71.6859V16.816H71.7339C72.1339 16.048 72.7699 15.664 73.6419 15.664C74.4019 15.664 74.9939 15.948 75.4179 16.516C75.8499 17.084 76.0659 17.88 76.0659 18.904C76.0659 19.928 75.8499 20.724 75.4179 21.292C74.9939 21.86 74.4019 22.144 73.6419 22.144C72.7699 22.144 72.1339 21.76 71.7339 20.992H71.6859V24.4H70.7259V15.808ZM73.2699 21.292C73.8299 21.292 74.2619 21.124 74.5659 20.788C74.8779 20.444 75.0339 19.992 75.0339 19.432V18.376C75.0339 17.816 74.8779 17.368 74.5659 17.032C74.2619 16.688 73.8299 16.516 73.2699 16.516C73.0539 16.516 72.8499 16.544 72.6579 16.6C72.4659 16.656 72.2979 16.74 72.1539 16.852C72.0099 16.956 71.8939 17.088 71.8059 17.248C71.7259 17.4 71.6859 17.58 71.6859 17.788V20.02C71.6859 20.228 71.7259 20.412 71.8059 20.572C71.8939 20.724 72.0099 20.856 72.1539 20.968C72.2979 21.072 72.4659 21.152 72.6579 21.208C72.8499 21.264 73.0539 21.292 73.2699 21.292Z" fill="#7A7785"/>
<rect x="0.5" y="0.5" width="100" height="33" rx="16.5" stroke="#0A0A0A"/>
<defs>
<clipPath id="clip0_23_666">
<rect width="16" height="16" fill="white" transform="translate(24 9)"/>
</clipPath>
</defs>
</svg>
