<svg width="94" height="34" viewBox="0 0 94 34" fill="none" xmlns="http://www.w3.org/2000/svg">
<rect x="0.5" y="0.5" width="93" height="33" rx="16.5" fill="#1B1A1F"/>
<g clip-path="url(#clip0_23_690)">
<path d="M39.6982 16.2876L32.7125 9.30222C32.3104 8.89991 31.6579 8.89991 31.2554 9.30222L29.8047 10.7528L31.6449 12.593C32.0726 12.4485 32.5629 12.5455 32.9038 12.8863C33.2463 13.2294 33.3426 13.724 33.1946 14.153L34.968 15.9265C35.3971 15.7787 35.8921 15.8743 36.2348 16.2175C36.7138 16.6963 36.7138 17.4722 36.2348 17.9513C35.7558 18.4304 34.9798 18.4304 34.5005 17.9513C34.1402 17.5907 34.0513 17.0616 34.2336 16.6178L32.5798 14.9639L32.5796 19.3162C32.6995 19.3755 32.809 19.4538 32.9038 19.5481C33.3827 20.0268 33.3827 20.8028 32.9038 21.2823C32.4247 21.7612 31.6484 21.7612 31.1701 21.2823C30.6911 20.8028 30.6911 20.0269 31.1701 19.5482C31.2848 19.4333 31.4212 19.3424 31.5714 19.2806V14.8877C31.421 14.8263 31.2845 14.7354 31.1701 14.6202C30.8072 14.2578 30.7199 13.7253 30.9059 13.2798L29.0919 11.4656L24.3019 16.2553C23.8994 16.658 23.8994 17.3105 24.3019 17.7129L31.2877 24.6984C31.6899 25.1008 32.3423 25.1008 32.745 24.6984L39.6982 17.7453C40.1006 17.3428 40.1006 16.6899 39.6982 16.2876Z" fill="#DE4C36"/>
</g>
<path d="M54.732 22.708C54.732 23.332 54.472 23.792 53.952 24.088C53.432 24.392 52.652 24.544 51.612 24.544C50.612 24.544 49.892 24.412 49.452 24.148C49.02 23.884 48.804 23.504 48.804 23.008C48.804 22.672 48.892 22.412 49.068 22.228C49.244 22.044 49.492 21.908 49.812 21.82V21.676C49.636 21.588 49.5 21.476 49.404 21.34C49.308 21.204 49.26 21.032 49.26 20.824C49.26 20.504 49.364 20.264 49.572 20.104C49.788 19.944 50.056 19.824 50.376 19.744V19.696C49.992 19.528 49.692 19.28 49.476 18.952C49.268 18.624 49.164 18.24 49.164 17.8C49.164 17.488 49.22 17.2 49.332 16.936C49.444 16.672 49.604 16.448 49.812 16.264C50.028 16.072 50.284 15.924 50.58 15.82C50.876 15.716 51.204 15.664 51.564 15.664C52.028 15.664 52.436 15.748 52.788 15.916V15.808C52.788 15.568 52.844 15.368 52.956 15.208C53.068 15.048 53.26 14.968 53.532 14.968H54.672V15.808H53.28V16.228C53.504 16.42 53.676 16.648 53.796 16.912C53.916 17.176 53.976 17.472 53.976 17.8C53.976 18.112 53.916 18.4 53.796 18.664C53.684 18.928 53.524 19.156 53.316 19.348C53.108 19.532 52.852 19.676 52.548 19.78C52.252 19.884 51.924 19.936 51.564 19.936C51.46 19.936 51.36 19.932 51.264 19.924C51.168 19.916 51.072 19.904 50.976 19.888C50.88 19.904 50.78 19.932 50.676 19.972C50.572 20.004 50.476 20.052 50.388 20.116C50.3 20.172 50.228 20.24 50.172 20.32C50.116 20.4 50.088 20.492 50.088 20.596C50.088 20.78 50.18 20.904 50.364 20.968C50.548 21.024 50.788 21.052 51.084 21.052H52.452C53.252 21.052 53.832 21.204 54.192 21.508C54.552 21.804 54.732 22.204 54.732 22.708ZM53.832 22.756C53.832 22.508 53.732 22.308 53.532 22.156C53.332 22.012 52.984 21.94 52.488 21.94H50.34C49.924 22.108 49.716 22.388 49.716 22.78C49.716 23.052 49.824 23.284 50.04 23.476C50.256 23.676 50.616 23.776 51.12 23.776H52.056C52.616 23.776 53.052 23.688 53.364 23.512C53.676 23.344 53.832 23.092 53.832 22.756ZM51.564 19.192C52.044 19.192 52.396 19.08 52.62 18.856C52.852 18.632 52.968 18.336 52.968 17.968V17.62C52.968 17.252 52.852 16.96 52.62 16.744C52.396 16.52 52.044 16.408 51.564 16.408C51.084 16.408 50.732 16.52 50.508 16.744C50.284 16.96 50.172 17.252 50.172 17.62V17.968C50.172 18.336 50.284 18.632 50.508 18.856C50.732 19.08 51.084 19.192 51.564 19.192ZM59.1793 14.44C58.8993 14.44 58.7033 14.384 58.5913 14.272C58.4793 14.152 58.4233 14.004 58.4233 13.828V13.636C58.4233 13.46 58.4793 13.316 58.5913 13.204C58.7033 13.084 58.8993 13.024 59.1793 13.024C59.4593 13.024 59.6553 13.084 59.7673 13.204C59.8793 13.316 59.9353 13.46 59.9353 13.636V13.828C59.9353 14.004 59.8793 14.152 59.7673 14.272C59.6553 14.384 59.4593 14.44 59.1793 14.44ZM56.4673 21.184H58.6993V16.624H56.4673V15.808H59.6593V21.184H61.7473V22H56.4673V21.184ZM66.2906 22C65.8186 22 65.4706 21.868 65.2466 21.604C65.0306 21.34 64.9226 21 64.9226 20.584V16.624H62.8586V15.808H64.3946C64.6026 15.808 64.7466 15.768 64.8266 15.688C64.9146 15.6 64.9586 15.452 64.9586 15.244V13.624H65.8826V15.808H68.7026V16.624H65.8826V21.184H68.7026V22H66.2906Z" fill="#7A7785"/>
<rect x="0.5" y="0.5" width="93" height="33" rx="16.5" stroke="#0A0A0A"/>
<defs>
<clipPath id="clip0_23_690">
<rect width="16" height="16" fill="white" transform="translate(24 9)"/>
</clipPath>
</defs>
</svg>
