<svg width="116" height="34" viewBox="0 0 116 34" fill="none" xmlns="http://www.w3.org/2000/svg">
<rect x="0.5" y="0.5" width="115" height="33" rx="16.5" fill="#1B1A1F"/>
<g clip-path="url(#clip0_23_684)">
<path d="M32.0002 9C27.5832 9 24.0015 12.6676 24.0015 17.1921C24.0015 20.8115 26.2933 23.8823 29.4715 24.9655C29.8713 25.0413 30.018 24.7878 30.018 24.5714C30.018 24.3761 30.0105 23.7308 30.0072 23.0463C27.7819 23.5418 27.3124 22.0797 27.3124 22.0797C26.9485 21.1328 26.4242 20.881 26.4242 20.881C25.6985 20.3725 26.4789 20.383 26.4789 20.383C27.2821 20.4408 27.705 21.2272 27.705 21.2272C28.4185 22.4796 29.5763 22.1175 30.0327 21.9082C30.1045 21.3788 30.3118 21.0173 30.5406 20.8127C28.7639 20.6056 26.8963 19.9032 26.8963 16.7642C26.8963 15.8698 27.2088 15.139 27.7204 14.5653C27.6374 14.359 27.3636 13.5258 27.7979 12.3974C27.7979 12.3974 28.4696 12.1772 29.9982 13.2371C30.6362 13.0556 31.3205 12.9646 32.0002 12.9615C32.68 12.9646 33.3648 13.0556 34.004 13.2371C35.5307 12.1773 36.2015 12.3974 36.2015 12.3974C36.6368 13.5258 36.363 14.359 36.2799 14.5653C36.7928 15.139 37.1031 15.8698 37.1031 16.7642C37.1031 19.9107 35.2319 20.6035 33.4507 20.8063C33.7376 21.0605 33.9933 21.559 33.9933 22.3233C33.9933 23.4194 33.984 24.3016 33.984 24.5714C33.984 24.7894 34.128 25.0449 34.5334 24.9644C37.7099 23.88 39.9989 20.8104 39.9989 17.1921C39.9989 12.6676 36.4176 9 32.0002 9ZM26.9973 20.6698C26.9797 20.7105 26.9171 20.7227 26.8602 20.6947C26.8021 20.668 26.7696 20.6125 26.7883 20.5717C26.8056 20.5298 26.8682 20.5181 26.9261 20.5462C26.9842 20.5729 27.0173 20.6289 26.9973 20.6698ZM27.3907 21.0293C27.3526 21.0655 27.278 21.0487 27.2274 20.9915C27.1751 20.9344 27.1653 20.858 27.2039 20.8212C27.2433 20.785 27.3156 20.802 27.368 20.8591C27.4204 20.9169 27.4305 20.9927 27.3907 21.0293ZM27.6607 21.4893C27.6116 21.5242 27.5315 21.4915 27.482 21.4187C27.433 21.3459 27.433 21.2585 27.483 21.2235C27.5327 21.1885 27.6116 21.22 27.6618 21.2923C27.7107 21.3663 27.7107 21.4537 27.6606 21.4894L27.6607 21.4893ZM28.1171 22.0221C28.0733 22.0717 27.9799 22.0584 27.9115 21.9908C27.8416 21.9247 27.8222 21.831 27.8661 21.7815C27.9105 21.7318 28.0044 21.7458 28.0733 21.8129C28.1427 21.8788 28.1639 21.9732 28.1171 22.0221ZM28.7071 22.202C28.6878 22.2662 28.5978 22.2954 28.5072 22.2681C28.4167 22.24 28.3576 22.1649 28.3758 22.1C28.3946 22.0354 28.485 22.0051 28.5762 22.0342C28.6666 22.0621 28.7259 22.1367 28.7071 22.202ZM29.3785 22.2783C29.3808 22.3459 29.304 22.4019 29.2089 22.4031C29.1133 22.4053 29.0358 22.3507 29.0348 22.2841C29.0348 22.2159 29.1099 22.1604 29.2056 22.1588C29.3007 22.1569 29.3785 22.2111 29.3785 22.2783ZM30.0381 22.2524C30.0495 22.3183 29.9834 22.386 29.8889 22.4041C29.7961 22.4214 29.7102 22.3807 29.6983 22.3154C29.6869 22.2478 29.7542 22.1801 29.8468 22.1626C29.9414 22.1458 30.026 22.1854 30.0381 22.2524Z" fill="#4A4852"/>
</g>
<path d="M53.328 20.884H53.268C53.196 21.044 53.112 21.2 53.016 21.352C52.92 21.504 52.796 21.64 52.644 21.76C52.5 21.872 52.324 21.964 52.116 22.036C51.908 22.108 51.66 22.144 51.372 22.144C50.46 22.144 49.78 21.776 49.332 21.04C48.892 20.304 48.672 19.248 48.672 17.872C48.672 16.432 48.916 15.34 49.404 14.596C49.892 13.852 50.644 13.48 51.66 13.48C52.052 13.48 52.392 13.532 52.68 13.636C52.968 13.74 53.212 13.88 53.412 14.056C53.62 14.232 53.792 14.432 53.928 14.656C54.064 14.872 54.176 15.092 54.264 15.316L53.4 15.712C53.328 15.528 53.244 15.356 53.148 15.196C53.06 15.028 52.948 14.884 52.812 14.764C52.684 14.636 52.528 14.536 52.344 14.464C52.16 14.392 51.944 14.356 51.696 14.356C51.024 14.356 50.528 14.608 50.208 15.112C49.896 15.616 49.74 16.288 49.74 17.128V18.424C49.74 18.848 49.772 19.236 49.836 19.588C49.9 19.932 50.004 20.232 50.148 20.488C50.3 20.744 50.492 20.944 50.724 21.088C50.964 21.224 51.256 21.292 51.6 21.292C52.144 21.292 52.568 21.128 52.872 20.8C53.176 20.472 53.328 20.048 53.328 19.528V18.664H51.564V17.86H54.264V22H53.328V20.884ZM59.1793 14.44C58.8993 14.44 58.7033 14.384 58.5913 14.272C58.4793 14.152 58.4233 14.004 58.4233 13.828V13.636C58.4233 13.46 58.4793 13.316 58.5913 13.204C58.7033 13.084 58.8993 13.024 59.1793 13.024C59.4593 13.024 59.6553 13.084 59.7673 13.204C59.8793 13.316 59.9353 13.46 59.9353 13.636V13.828C59.9353 14.004 59.8793 14.152 59.7673 14.272C59.6553 14.384 59.4593 14.44 59.1793 14.44ZM56.4673 21.184H58.6993V16.624H56.4673V15.808H59.6593V21.184H61.7473V22H56.4673V21.184ZM66.2906 22C65.8186 22 65.4706 21.868 65.2466 21.604C65.0306 21.34 64.9226 21 64.9226 20.584V16.624H62.8586V15.808H64.3946C64.6026 15.808 64.7466 15.768 64.8266 15.688C64.9146 15.6 64.9586 15.452 64.9586 15.244V13.624H65.8826V15.808H68.7026V16.624H65.8826V21.184H68.7026V22H66.2906ZM70.7619 13.12H71.7219V16.816H71.7699C71.8339 16.664 71.9139 16.52 72.0099 16.384C72.1059 16.24 72.2219 16.116 72.3579 16.012C72.5019 15.908 72.6699 15.824 72.8619 15.76C73.0539 15.696 73.2779 15.664 73.5339 15.664C74.1819 15.664 74.7019 15.872 75.0939 16.288C75.4859 16.696 75.6819 17.276 75.6819 18.028V22H74.7219V18.196C74.7219 17.628 74.5979 17.208 74.3499 16.936C74.1019 16.656 73.7379 16.516 73.2579 16.516C73.0659 16.516 72.8779 16.54 72.6939 16.588C72.5099 16.636 72.3459 16.708 72.2019 16.804C72.0579 16.9 71.9419 17.024 71.8539 17.176C71.7659 17.328 71.7219 17.504 71.7219 17.704V22H70.7619V13.12ZM81.8453 20.992H81.7973C81.7333 21.144 81.6533 21.292 81.5573 21.436C81.4613 21.572 81.3413 21.692 81.1973 21.796C81.0613 21.9 80.8973 21.984 80.7053 22.048C80.5133 22.112 80.2893 22.144 80.0333 22.144C79.3853 22.144 78.8653 21.94 78.4733 21.532C78.0813 21.116 77.8853 20.532 77.8853 19.78V15.808H78.8453V19.612C78.8453 20.18 78.9693 20.604 79.2173 20.884C79.4653 21.156 79.8293 21.292 80.3092 21.292C80.5013 21.292 80.6893 21.268 80.8733 21.22C81.0573 21.172 81.2213 21.1 81.3653 21.004C81.5093 20.908 81.6253 20.788 81.7133 20.644C81.8013 20.492 81.8453 20.312 81.8453 20.104V15.808H82.8053V22H81.8453V20.992ZM85.1166 13.12H86.0766V16.816H86.1246C86.5246 16.048 87.1606 15.664 88.0326 15.664C88.7926 15.664 89.3846 15.948 89.8086 16.516C90.2406 17.084 90.4566 17.88 90.4566 18.904C90.4566 19.928 90.2406 20.724 89.8086 21.292C89.3846 21.86 88.7926 22.144 88.0326 22.144C87.1606 22.144 86.5246 21.76 86.1246 20.992H86.0766V22H85.1166V13.12ZM87.6606 21.292C88.2206 21.292 88.6526 21.124 88.9566 20.788C89.2686 20.444 89.4246 19.992 89.4246 19.432V18.376C89.4246 17.816 89.2686 17.368 88.9566 17.032C88.6526 16.688 88.2206 16.516 87.6606 16.516C87.4446 16.516 87.2406 16.544 87.0486 16.6C86.8566 16.656 86.6886 16.74 86.5446 16.852C86.4006 16.956 86.2846 17.088 86.1966 17.248C86.1166 17.4 86.0766 17.58 86.0766 17.788V20.02C86.0766 20.228 86.1166 20.412 86.1966 20.572C86.2846 20.724 86.4006 20.856 86.5446 20.968C86.6886 21.072 86.8566 21.152 87.0486 21.208C87.2406 21.264 87.4446 21.292 87.6606 21.292Z" fill="#7A7785"/>
<rect x="0.5" y="0.5" width="115" height="33" rx="16.5" stroke="#0A0A0A"/>
<defs>
<clipPath id="clip0_23_684">
<rect width="16" height="16" fill="white" transform="translate(24 9)"/>
</clipPath>
</defs>
</svg>
