<svg width="101" height="34" viewBox="0 0 101 34" fill="none" xmlns="http://www.w3.org/2000/svg">
<rect x="0.5" y="0.5" width="100" height="33" rx="16.5" fill="#1B1A1F"/>
<path d="M26.9511 22.6005L25.8276 10H38.1726L37.0476 22.5985L31.9926 24L26.9511 22.6005Z" fill="#E44F26"/>
<path d="M32 22.9288L36.085 21.7963L37.046 11.0303H32V22.9288Z" fill="#F1662A"/>
<path d="M32 15.7037H29.955L29.814 14.1212H32V12.5757H28.125L28.162 12.9907L28.5415 17.2492H32V15.7037V15.7037ZM32 19.7172L31.993 19.7192L30.272 19.2547L30.162 18.0222H28.6105L28.827 20.4482L31.993 21.3272L32 21.3252V19.7172Z" fill="#EBEBEB"/>
<path d="M31.9946 15.7037V17.2492H33.8976L33.7186 19.2537L31.9946 19.7187V21.3267L35.1631 20.4482L35.1861 20.1872L35.5491 16.1187L35.5871 15.7037H31.9946V15.7037ZM31.9946 12.5757V14.1212H35.7276L35.7586 13.7742L35.8291 12.9907L35.8661 12.5757H31.9946V12.5757Z" fill="white"/>
<path d="M53.232 18.196H49.968V22H48.96V13.624H49.968V17.32H53.232V13.624H54.24V22H53.232V18.196ZM59.2993 14.5V22H58.2913V14.5H55.4953V13.624H62.0953V14.5H59.2993ZM67.8506 17.8V15.148H67.7546L65.9906 19.456L64.2266 15.148H64.1306V17.8V22H63.2066V13.624H64.5026L65.9786 17.32H66.0506L67.5266 13.624H68.7746V22H67.8506V17.8ZM71.0259 22V13.624H72.0339V21.124H76.0059V22H71.0259Z" fill="#7A7785"/>
<rect x="0.5" y="0.5" width="100" height="33" rx="16.5" stroke="#0A0A0A"/>
</svg>
