<svg width="130" height="34" viewBox="0 0 130 34" fill="none" xmlns="http://www.w3.org/2000/svg">
<rect x="0.5" y="0.5" width="129" height="33" rx="16.5" fill="#1B1A1F"/>
<g clip-path="url(#clip0_23_678)">
<path d="M29.1104 18.9138C29.2684 19.0118 31.6558 19.4972 32.2391 19.5938C32.4411 19.6365 32.2978 19.8445 32.0191 19.9852C31.3904 20.1525 28.3411 18.9138 29.1104 18.9138ZM32.8751 10.0712L35.2118 12.4445C35.4338 12.6712 35.4304 13.1098 35.3064 13.2358L34.1464 12.3078L33.9184 13.6818L32.9484 13.1705L31.3964 14.1505L30.8824 12.0838L30.0484 13.5265H28.7731C28.2531 13.5265 28.1924 12.8665 28.6644 12.3945C29.4891 11.5045 30.4358 10.5972 30.9504 10.0712C31.4678 9.5425 32.3684 9.55783 32.8751 10.0712ZM30.5238 9.6465L24.6171 15.6905C22.6218 18.1618 25.9758 17.8745 27.4131 18.5858C27.9291 19.1132 25.4364 19.5025 25.9524 20.0298C26.4678 20.5572 29.0711 21.0458 29.5878 21.5725C30.1031 22.0998 28.5318 22.6592 29.0478 23.1858C29.5631 23.7138 30.7564 23.2138 30.9798 24.4312C31.1384 25.3005 33.1291 24.8045 34.1024 24.0925C34.6184 23.5652 33.1158 23.6145 33.6318 23.0872C34.9138 21.7758 36.1084 22.6112 36.5471 21.2965C36.7638 20.6472 34.6591 20.2958 35.1758 19.7685C36.6598 18.9018 41.7884 18.3378 39.3544 15.9045L33.2331 9.6465C32.4844 8.92783 31.2338 8.91983 30.5238 9.6465ZM37.3084 21.2965C37.3084 21.5965 39.5178 21.7932 39.5178 21.2258C39.2031 20.3152 37.5698 20.3765 37.3084 21.2965ZM27.3564 22.8898C27.8791 23.3425 28.6878 22.7772 28.9298 22.1458C28.4231 21.4725 26.5251 22.1705 27.3564 22.8898ZM37.0311 21.9125C36.3571 22.5178 37.1071 23.1312 37.7718 22.7405C37.9198 22.5905 37.7671 22.0632 37.0311 21.9125Z" fill="#4A4852"/>
</g>
<path d="M49.008 22V21.196H51.096V14.428H49.008V13.624H54.192V14.428H52.104V21.196H54.192V22H49.008ZM56.3713 22V15.808H57.3313V16.816H57.3793C57.4433 16.664 57.5233 16.52 57.6193 16.384C57.7153 16.24 57.8313 16.116 57.9673 16.012C58.1113 15.908 58.2793 15.824 58.4713 15.76C58.6633 15.696 58.8873 15.664 59.1433 15.664C59.7913 15.664 60.3113 15.872 60.7033 16.288C61.0953 16.696 61.2913 17.276 61.2913 18.028V22H60.3313V18.196C60.3313 17.628 60.2073 17.208 59.9593 16.936C59.7113 16.656 59.3473 16.516 58.8673 16.516C58.6753 16.516 58.4873 16.54 58.3033 16.588C58.1193 16.636 57.9553 16.708 57.8113 16.804C57.6673 16.9 57.5513 17.024 57.4633 17.176C57.3753 17.328 57.3313 17.504 57.3313 17.704V22H56.3713ZM63.6506 13.12H64.6106V18.724H64.6586L65.7386 17.704L67.8026 15.808H68.9786L66.4106 18.232L69.2786 22H68.0906L65.6786 18.784L64.6106 19.756V22H63.6506V13.12ZM73.2579 22.144C72.6099 22.144 72.0499 22.036 71.5779 21.82C71.1139 21.596 70.7179 21.3 70.3899 20.932L71.0379 20.368C71.3339 20.68 71.6579 20.92 72.0099 21.088C72.3619 21.256 72.7859 21.34 73.2819 21.34C73.7619 21.34 74.1539 21.256 74.4579 21.088C74.7699 20.912 74.9259 20.64 74.9259 20.272C74.9259 20.112 74.8939 19.98 74.8299 19.876C74.7739 19.764 74.6939 19.676 74.5899 19.612C74.4859 19.548 74.3699 19.5 74.2419 19.468C74.1139 19.428 73.9779 19.396 73.8339 19.372L72.8619 19.228C72.6459 19.196 72.4099 19.152 72.1539 19.096C71.9059 19.04 71.6779 18.952 71.4699 18.832C71.2619 18.704 71.0859 18.536 70.9419 18.328C70.8059 18.12 70.7379 17.848 70.7379 17.512C70.7379 17.2 70.7979 16.932 70.9179 16.708C71.0459 16.476 71.2219 16.284 71.4459 16.132C71.6699 15.972 71.9339 15.856 72.2379 15.784C72.5419 15.704 72.8739 15.664 73.2339 15.664C73.7939 15.664 74.2779 15.752 74.6859 15.928C75.1019 16.104 75.4579 16.348 75.7539 16.66L75.1299 17.248C75.0579 17.16 74.9659 17.072 74.8539 16.984C74.7499 16.888 74.6179 16.804 74.4579 16.732C74.3059 16.652 74.1259 16.588 73.9179 16.54C73.7099 16.492 73.4699 16.468 73.1979 16.468C72.7099 16.468 72.3339 16.552 72.0699 16.72C71.8139 16.888 71.6859 17.132 71.6859 17.452C71.6859 17.612 71.7139 17.748 71.7699 17.86C71.8339 17.964 71.9179 18.048 72.0219 18.112C72.1259 18.176 72.2419 18.228 72.3699 18.268C72.5059 18.3 72.6419 18.328 72.7779 18.352L73.7499 18.496C73.9739 18.528 74.2099 18.572 74.4579 18.628C74.7059 18.684 74.9339 18.776 75.1419 18.904C75.3499 19.024 75.5219 19.188 75.6579 19.396C75.8019 19.604 75.8739 19.876 75.8739 20.212C75.8739 20.828 75.6339 21.304 75.1539 21.64C74.6819 21.976 74.0499 22.144 73.2579 22.144ZM80.5973 22.144C80.1493 22.144 79.7493 22.068 79.3973 21.916C79.0533 21.756 78.7613 21.536 78.5213 21.256C78.2813 20.976 78.0973 20.636 77.9693 20.236C77.8493 19.836 77.7893 19.392 77.7893 18.904C77.7893 18.416 77.8533 17.972 77.9813 17.572C78.1093 17.172 78.2933 16.832 78.5333 16.552C78.7733 16.264 79.0653 16.044 79.4093 15.892C79.7533 15.74 80.1453 15.664 80.5853 15.664C81.1853 15.664 81.6733 15.796 82.0493 16.06C82.4253 16.324 82.7013 16.668 82.8773 17.092L82.1093 17.5C81.9973 17.18 81.8093 16.932 81.5453 16.756C81.2893 16.58 80.9693 16.492 80.5853 16.492C80.3053 16.492 80.0533 16.54 79.8293 16.636C79.6133 16.724 79.4293 16.852 79.2773 17.02C79.1253 17.188 79.0093 17.388 78.9293 17.62C78.8573 17.852 78.8213 18.104 78.8213 18.376V19.432C78.8213 19.704 78.8573 19.956 78.9293 20.188C79.0093 20.42 79.1253 20.62 79.2773 20.788C79.4293 20.956 79.6173 21.088 79.8413 21.184C80.0653 21.272 80.3213 21.316 80.6093 21.316C81.0253 21.316 81.3693 21.22 81.6413 21.028C81.9133 20.836 82.1293 20.572 82.2893 20.236L82.9733 20.704C82.7893 21.12 82.5013 21.464 82.1093 21.736C81.7253 22.008 81.2213 22.144 80.5973 22.144ZM89.9166 22C89.5406 22 89.2726 21.904 89.1126 21.712C88.9526 21.52 88.8526 21.28 88.8126 20.992H88.7526C88.6166 21.352 88.3966 21.636 88.0926 21.844C87.7966 22.044 87.3966 22.144 86.8926 22.144C86.2446 22.144 85.7286 21.976 85.3446 21.64C84.9606 21.304 84.7686 20.844 84.7686 20.26C84.7686 19.684 84.9766 19.24 85.3926 18.928C85.8166 18.616 86.4966 18.46 87.4326 18.46H88.7526V17.848C88.7526 17.392 88.6246 17.052 88.3686 16.828C88.1126 16.596 87.7486 16.48 87.2766 16.48C86.8606 16.48 86.5206 16.564 86.2566 16.732C85.9926 16.892 85.7806 17.112 85.6206 17.392L84.9726 16.912C85.0526 16.752 85.1606 16.596 85.2966 16.444C85.4326 16.292 85.6006 16.16 85.8006 16.048C86.0006 15.928 86.2286 15.836 86.4846 15.772C86.7406 15.7 87.0246 15.664 87.3366 15.664C88.0646 15.664 88.6406 15.848 89.0646 16.216C89.4966 16.584 89.7126 17.096 89.7126 17.752V21.16H90.5766V22H89.9166ZM87.0606 21.34C87.3086 21.34 87.5326 21.312 87.7326 21.256C87.9406 21.192 88.1206 21.112 88.2726 21.016C88.4246 20.912 88.5406 20.792 88.6206 20.656C88.7086 20.512 88.7526 20.36 88.7526 20.2V19.18H87.4326C86.8566 19.18 86.4366 19.26 86.1726 19.42C85.9086 19.58 85.7766 19.812 85.7766 20.116V20.368C85.7766 20.688 85.8886 20.932 86.1126 21.1C86.3446 21.26 86.6606 21.34 87.0606 21.34ZM92.3119 15.808H93.2719V16.816H93.3199C93.7199 16.048 94.3559 15.664 95.2279 15.664C95.9879 15.664 96.5799 15.948 97.0039 16.516C97.4359 17.084 97.6519 17.88 97.6519 18.904C97.6519 19.928 97.4359 20.724 97.0039 21.292C96.5799 21.86 95.9879 22.144 95.2279 22.144C94.3559 22.144 93.7199 21.76 93.3199 20.992H93.2719V24.4H92.3119V15.808ZM94.8559 21.292C95.4159 21.292 95.8479 21.124 96.1519 20.788C96.4639 20.444 96.6199 19.992 96.6199 19.432V18.376C96.6199 17.816 96.4639 17.368 96.1519 17.032C95.8479 16.688 95.4159 16.516 94.8559 16.516C94.6399 16.516 94.4359 16.544 94.2439 16.6C94.0519 16.656 93.8839 16.74 93.7399 16.852C93.5959 16.956 93.4799 17.088 93.3919 17.248C93.3119 17.4 93.2719 17.58 93.2719 17.788V20.02C93.2719 20.228 93.3119 20.412 93.3919 20.572C93.4799 20.724 93.5959 20.856 93.7399 20.968C93.8839 21.072 94.0519 21.152 94.2439 21.208C94.4359 21.264 94.6399 21.292 94.8559 21.292ZM102.075 22.144C101.627 22.144 101.223 22.068 100.863 21.916C100.511 21.764 100.207 21.548 99.9512 21.268C99.7032 20.98 99.5112 20.64 99.3752 20.248C99.2392 19.848 99.1712 19.404 99.1712 18.916C99.1712 18.42 99.2392 17.972 99.3752 17.572C99.5192 17.172 99.7152 16.832 99.9632 16.552C100.211 16.264 100.507 16.044 100.851 15.892C101.203 15.74 101.591 15.664 102.015 15.664C102.431 15.664 102.807 15.74 103.143 15.892C103.487 16.044 103.779 16.256 104.019 16.528C104.259 16.792 104.443 17.108 104.571 17.476C104.699 17.844 104.763 18.248 104.763 18.688V19.144H100.179V19.432C100.179 19.704 100.223 19.956 100.311 20.188C100.399 20.42 100.523 20.62 100.683 20.788C100.851 20.956 101.051 21.088 101.283 21.184C101.523 21.272 101.787 21.316 102.075 21.316C102.491 21.316 102.851 21.22 103.155 21.028C103.459 20.836 103.691 20.572 103.851 20.236L104.559 20.716C104.375 21.132 104.067 21.476 103.635 21.748C103.211 22.012 102.691 22.144 102.075 22.144ZM102.015 16.456C101.751 16.456 101.507 16.504 101.283 16.6C101.059 16.696 100.863 16.828 100.695 16.996C100.535 17.164 100.407 17.364 100.311 17.596C100.223 17.82 100.179 18.068 100.179 18.34V18.424H103.731V18.292C103.731 18.02 103.687 17.772 103.599 17.548C103.519 17.324 103.403 17.132 103.251 16.972C103.107 16.804 102.927 16.676 102.711 16.588C102.503 16.5 102.271 16.456 102.015 16.456Z" fill="#7A7785"/>
<rect x="0.5" y="0.5" width="129" height="33" rx="16.5" stroke="#0A0A0A"/>
<defs>
<clipPath id="clip0_23_678">
<rect width="16" height="16" fill="white" transform="translate(24 9)"/>
</clipPath>
</defs>
</svg>
