<svg width="144" height="34" viewBox="0 0 144 34" fill="none" xmlns="http://www.w3.org/2000/svg">
<rect x="0.5" y="0.5" width="143" height="33" rx="16.5" fill="#1B1A1F"/>
<path d="M25 10H39V24H25V10Z" fill="#F5DE19"/>
<path d="M34.4045 20.9377C34.5238 21.18 34.7091 21.3837 34.9392 21.5252C35.1692 21.6667 35.4345 21.7404 35.7045 21.7377C36.2495 21.7377 36.598 21.4652 36.598 21.0877C36.598 20.6377 36.24 20.4767 35.64 20.2142L35.311 20.0732C34.361 19.6687 33.731 19.1622 33.731 18.0912C33.731 17.1047 34.481 16.3532 35.6575 16.3532C36.0384 16.3257 36.4189 16.4109 36.7516 16.5983C37.0844 16.7856 37.3546 17.0668 37.5285 17.4067L36.5 18.0642C36.433 17.8957 36.3164 17.7515 36.1656 17.6507C36.0148 17.55 35.8369 17.4975 35.6555 17.5002C35.5764 17.4923 35.4965 17.5009 35.4209 17.5256C35.3453 17.5503 35.2757 17.5904 35.2165 17.6435C35.1573 17.6965 35.1097 17.7613 35.0769 17.8338C35.0442 17.9062 35.0268 17.9847 35.026 18.0642C35.026 18.4587 35.2705 18.6187 35.835 18.8642L36.164 19.0052C37.282 19.4847 37.914 19.9732 37.914 21.0717C37.914 22.2562 36.9835 22.9052 35.734 22.9052C35.2472 22.9362 34.7618 22.8257 34.3363 22.5869C33.9109 22.3482 33.5637 21.9914 33.3365 21.5597L34.4045 20.9377ZM29.757 21.0517C29.9635 21.4182 30.1515 21.7282 30.6035 21.7282C31.0355 21.7282 31.3085 21.5592 31.3085 20.9017V16.4282H32.624V20.9192C32.624 22.2812 31.824 22.9012 30.6595 22.9012C30.2479 22.9237 29.8391 22.8211 29.4869 22.6069C29.1346 22.3928 28.8555 22.077 28.686 21.7012L29.757 21.0517Z" fill="#0A0A0A"/>
<path d="M53.76 13.624V19.828C53.76 20.18 53.7 20.5 53.58 20.788C53.46 21.076 53.288 21.32 53.064 21.52C52.848 21.72 52.588 21.876 52.284 21.988C51.98 22.092 51.648 22.144 51.288 22.144C50.648 22.144 50.12 21.98 49.704 21.652C49.288 21.316 49.016 20.848 48.888 20.248L49.848 20.044C49.888 20.212 49.94 20.372 50.004 20.524C50.076 20.668 50.168 20.796 50.28 20.908C50.4 21.012 50.544 21.096 50.712 21.16C50.88 21.224 51.08 21.256 51.312 21.256C51.768 21.256 52.12 21.128 52.368 20.872C52.624 20.608 52.752 20.2 52.752 19.648V14.5H49.728V13.624H53.76ZM61.1353 22C60.7593 22 60.4913 21.904 60.3313 21.712C60.1713 21.52 60.0713 21.28 60.0313 20.992H59.9713C59.8353 21.352 59.6153 21.636 59.3113 21.844C59.0153 22.044 58.6153 22.144 58.1113 22.144C57.4633 22.144 56.9473 21.976 56.5633 21.64C56.1793 21.304 55.9873 20.844 55.9873 20.26C55.9873 19.684 56.1953 19.24 56.6113 18.928C57.0353 18.616 57.7153 18.46 58.6513 18.46H59.9713V17.848C59.9713 17.392 59.8433 17.052 59.5873 16.828C59.3313 16.596 58.9673 16.48 58.4953 16.48C58.0793 16.48 57.7393 16.564 57.4753 16.732C57.2113 16.892 56.9993 17.112 56.8393 17.392L56.1913 16.912C56.2713 16.752 56.3793 16.596 56.5153 16.444C56.6513 16.292 56.8193 16.16 57.0193 16.048C57.2193 15.928 57.4473 15.836 57.7033 15.772C57.9593 15.7 58.2433 15.664 58.5553 15.664C59.2833 15.664 59.8593 15.848 60.2833 16.216C60.7153 16.584 60.9313 17.096 60.9313 17.752V21.16H61.7953V22H61.1353ZM58.2793 21.34C58.5273 21.34 58.7513 21.312 58.9513 21.256C59.1593 21.192 59.3393 21.112 59.4913 21.016C59.6433 20.912 59.7593 20.792 59.8393 20.656C59.9273 20.512 59.9713 20.36 59.9713 20.2V19.18H58.6513C58.0753 19.18 57.6553 19.26 57.3913 19.42C57.1273 19.58 56.9953 19.812 56.9953 20.116V20.368C56.9953 20.688 57.1073 20.932 57.3313 21.1C57.5633 21.26 57.8793 21.34 58.2793 21.34ZM65.3786 22L63.1586 15.808H64.1306L65.0186 18.4L65.9786 21.196H66.0266L66.9866 18.4L67.8746 15.808H68.8226L66.6026 22H65.3786ZM75.5259 22C75.1499 22 74.8819 21.904 74.7219 21.712C74.5619 21.52 74.4619 21.28 74.4219 20.992H74.3619C74.2259 21.352 74.0059 21.636 73.7019 21.844C73.4059 22.044 73.0059 22.144 72.5019 22.144C71.8539 22.144 71.3379 21.976 70.9539 21.64C70.5699 21.304 70.3779 20.844 70.3779 20.26C70.3779 19.684 70.5859 19.24 71.0019 18.928C71.4259 18.616 72.1059 18.46 73.0419 18.46H74.3619V17.848C74.3619 17.392 74.2339 17.052 73.9779 16.828C73.7219 16.596 73.3579 16.48 72.8859 16.48C72.4699 16.48 72.1299 16.564 71.8659 16.732C71.6019 16.892 71.3899 17.112 71.2299 17.392L70.5819 16.912C70.6619 16.752 70.7699 16.596 70.9059 16.444C71.0419 16.292 71.2099 16.16 71.4099 16.048C71.6099 15.928 71.8379 15.836 72.0939 15.772C72.3499 15.7 72.6339 15.664 72.9459 15.664C73.6739 15.664 74.2499 15.848 74.6739 16.216C75.1059 16.584 75.3219 17.096 75.3219 17.752V21.16H76.1859V22H75.5259ZM72.6699 21.34C72.9179 21.34 73.1419 21.312 73.3419 21.256C73.5499 21.192 73.7299 21.112 73.8819 21.016C74.0339 20.912 74.1499 20.792 74.2299 20.656C74.3179 20.512 74.3619 20.36 74.3619 20.2V19.18H73.0419C72.4659 19.18 72.0459 19.26 71.7819 19.42C71.5179 19.58 71.3859 19.812 71.3859 20.116V20.368C71.3859 20.688 71.4979 20.932 71.7219 21.1C71.9539 21.26 72.2699 21.34 72.6699 21.34ZM80.4533 22.144C79.8053 22.144 79.2453 22.036 78.7733 21.82C78.3093 21.596 77.9133 21.3 77.5853 20.932L78.2333 20.368C78.5293 20.68 78.8533 20.92 79.2053 21.088C79.5573 21.256 79.9813 21.34 80.4773 21.34C80.9573 21.34 81.3493 21.256 81.6533 21.088C81.9653 20.912 82.1213 20.64 82.1213 20.272C82.1213 20.112 82.0893 19.98 82.0253 19.876C81.9693 19.764 81.8893 19.676 81.7853 19.612C81.6813 19.548 81.5653 19.5 81.4373 19.468C81.3093 19.428 81.1733 19.396 81.0293 19.372L80.0573 19.228C79.8413 19.196 79.6053 19.152 79.3493 19.096C79.1013 19.04 78.8733 18.952 78.6653 18.832C78.4573 18.704 78.2813 18.536 78.1373 18.328C78.0013 18.12 77.9333 17.848 77.9333 17.512C77.9333 17.2 77.9933 16.932 78.1133 16.708C78.2413 16.476 78.4173 16.284 78.6413 16.132C78.8653 15.972 79.1293 15.856 79.4333 15.784C79.7373 15.704 80.0693 15.664 80.4293 15.664C80.9893 15.664 81.4733 15.752 81.8813 15.928C82.2973 16.104 82.6533 16.348 82.9492 16.66L82.3253 17.248C82.2533 17.16 82.1613 17.072 82.0493 16.984C81.9453 16.888 81.8133 16.804 81.6533 16.732C81.5013 16.652 81.3213 16.588 81.1133 16.54C80.9053 16.492 80.6653 16.468 80.3933 16.468C79.9053 16.468 79.5293 16.552 79.2653 16.72C79.0093 16.888 78.8813 17.132 78.8813 17.452C78.8813 17.612 78.9093 17.748 78.9653 17.86C79.0293 17.964 79.1133 18.048 79.2173 18.112C79.3213 18.176 79.4373 18.228 79.5653 18.268C79.7013 18.3 79.8373 18.328 79.9733 18.352L80.9453 18.496C81.1693 18.528 81.4053 18.572 81.6533 18.628C81.9013 18.684 82.1293 18.776 82.3373 18.904C82.5453 19.024 82.7173 19.188 82.8533 19.396C82.9973 19.604 83.0693 19.876 83.0693 20.212C83.0693 20.828 82.8293 21.304 82.3493 21.64C81.8773 21.976 81.2453 22.144 80.4533 22.144ZM87.7926 22.144C87.3446 22.144 86.9446 22.068 86.5926 21.916C86.2486 21.756 85.9566 21.536 85.7166 21.256C85.4766 20.976 85.2926 20.636 85.1646 20.236C85.0446 19.836 84.9846 19.392 84.9846 18.904C84.9846 18.416 85.0486 17.972 85.1766 17.572C85.3046 17.172 85.4886 16.832 85.7286 16.552C85.9686 16.264 86.2606 16.044 86.6046 15.892C86.9486 15.74 87.3406 15.664 87.7806 15.664C88.3806 15.664 88.8686 15.796 89.2446 16.06C89.6206 16.324 89.8966 16.668 90.0726 17.092L89.3046 17.5C89.1926 17.18 89.0046 16.932 88.7406 16.756C88.4846 16.58 88.1646 16.492 87.7806 16.492C87.5006 16.492 87.2486 16.54 87.0246 16.636C86.8086 16.724 86.6246 16.852 86.4726 17.02C86.3206 17.188 86.2046 17.388 86.1246 17.62C86.0526 17.852 86.0166 18.104 86.0166 18.376V19.432C86.0166 19.704 86.0526 19.956 86.1246 20.188C86.2046 20.42 86.3206 20.62 86.4726 20.788C86.6246 20.956 86.8126 21.088 87.0366 21.184C87.2606 21.272 87.5166 21.316 87.8046 21.316C88.2206 21.316 88.5646 21.22 88.8366 21.028C89.1086 20.836 89.3246 20.572 89.4846 20.236L90.1686 20.704C89.9846 21.12 89.6966 21.464 89.3046 21.736C88.9206 22.008 88.4166 22.144 87.7926 22.144ZM92.0959 21.184H93.9079V16.624H92.0959V15.808H94.8679V17.368H94.9279C95.0559 16.88 95.2959 16.5 95.6479 16.228C96.0079 15.948 96.4639 15.808 97.0159 15.808H97.8799V16.768H96.7159C96.1639 16.768 95.7159 16.928 95.3719 17.248C95.0359 17.568 94.8679 17.988 94.8679 18.508V21.184H97.2679V22H92.0959V21.184ZM102.351 14.44C102.071 14.44 101.875 14.384 101.763 14.272C101.651 14.152 101.595 14.004 101.595 13.828V13.636C101.595 13.46 101.651 13.316 101.763 13.204C101.875 13.084 102.071 13.024 102.351 13.024C102.631 13.024 102.827 13.084 102.939 13.204C103.051 13.316 103.107 13.46 103.107 13.636V13.828C103.107 14.004 103.051 14.152 102.939 14.272C102.827 14.384 102.631 14.44 102.351 14.44ZM99.6392 21.184H101.871V16.624H99.6392V15.808H102.831V21.184H104.919V22H99.6392V21.184ZM106.703 15.808H107.663V16.816H107.711C108.111 16.048 108.747 15.664 109.619 15.664C110.379 15.664 110.971 15.948 111.395 16.516C111.827 17.084 112.043 17.88 112.043 18.904C112.043 19.928 111.827 20.724 111.395 21.292C110.971 21.86 110.379 22.144 109.619 22.144C108.747 22.144 108.111 21.76 107.711 20.992H107.663V24.4H106.703V15.808ZM109.247 21.292C109.807 21.292 110.239 21.124 110.543 20.788C110.855 20.444 111.011 19.992 111.011 19.432V18.376C111.011 17.816 110.855 17.368 110.543 17.032C110.239 16.688 109.807 16.516 109.247 16.516C109.031 16.516 108.827 16.544 108.635 16.6C108.443 16.656 108.275 16.74 108.131 16.852C107.987 16.956 107.871 17.088 107.783 17.248C107.703 17.4 107.663 17.58 107.663 17.788V20.02C107.663 20.228 107.703 20.412 107.783 20.572C107.871 20.724 107.987 20.856 108.131 20.968C108.275 21.072 108.443 21.152 108.635 21.208C108.827 21.264 109.031 21.292 109.247 21.292ZM116.658 22C116.186 22 115.838 21.868 115.614 21.604C115.398 21.34 115.29 21 115.29 20.584V16.624H113.226V15.808H114.762C114.97 15.808 115.114 15.768 115.194 15.688C115.282 15.6 115.326 15.452 115.326 15.244V13.624H116.25V15.808H119.07V16.624H116.25V21.184H119.07V22H116.658Z" fill="#7A7785"/>
<rect x="0.5" y="0.5" width="143" height="33" rx="16.5" stroke="#0A0A0A"/>
</svg>
