<svg width="108" height="34" viewBox="0 0 108 34" fill="none" xmlns="http://www.w3.org/2000/svg">
<rect x="0.5" y="0.5" width="107" height="33" rx="16.5" fill="#1B1A1F"/>
<path fill-rule="evenodd" clip-rule="evenodd" d="M28.3925 12.4326C28.2601 12.4322 28.1281 12.449 28 12.4826V12.5001H28.019C28.1108 12.6386 28.2131 12.7699 28.325 12.8926C28.402 13.0456 28.469 13.1981 28.5455 13.3511L28.5645 13.3316C28.6355 13.2752 28.6911 13.2018 28.7261 13.1181C28.7611 13.0344 28.7743 12.9433 28.7645 12.8531C28.7226 12.7886 28.6842 12.7218 28.6495 12.6531C28.592 12.5576 28.4675 12.5096 28.391 12.4331" fill="#5D87A1"/>
<path fill-rule="evenodd" clip-rule="evenodd" d="M37.89 20.7766C37.2593 20.7323 36.6264 20.8237 36.034 21.0446C35.8905 21.1021 35.6615 21.1021 35.6415 21.2836C35.7185 21.3601 35.7275 21.4836 35.795 21.5901C35.926 21.8118 36.0943 22.0092 36.2925 22.1736C36.4925 22.3266 36.6925 22.4791 36.905 22.6131C37.2775 22.8436 37.699 22.9771 38.062 23.2066C38.273 23.3406 38.483 23.5126 38.694 23.6566C38.799 23.7331 38.8655 23.8566 38.9995 23.9066V23.8776C38.9601 23.7713 38.9115 23.6688 38.854 23.5711C38.7585 23.4761 38.6625 23.3896 38.5665 23.2941C38.286 22.9233 37.9505 22.5975 37.5715 22.3281C37.265 22.1171 36.595 21.8281 36.4715 21.4781L36.452 21.4586C36.6763 21.4268 36.8973 21.3753 37.1125 21.3046C37.4375 21.2186 37.734 21.2381 38.0685 21.1546C38.222 21.1161 38.4995 21.0206 38.4995 21.0206V20.8706C38.3285 20.7006 38.206 20.4731 38.026 20.3126C37.5363 19.8851 37.0144 19.496 36.465 19.1486C36.1715 18.9591 35.793 18.8371 35.4805 18.6756C35.3675 18.6186 35.1805 18.5906 35.112 18.4956C34.9566 18.2676 34.8265 18.0233 34.724 17.7671C34.4443 17.2285 34.1856 16.6793 33.9485 16.1206C33.8088 15.752 33.6477 15.3919 33.466 15.0421C32.5892 13.5513 31.3235 12.327 29.8045 11.5001C29.4212 11.3146 29.0137 11.184 28.594 11.1121C28.357 11.1021 28.121 11.0836 27.8845 11.0746C27.7318 10.9746 27.5866 10.8636 27.45 10.7426C26.909 10.4001 25.519 9.66411 25.121 10.6386C24.866 11.2541 25.5 11.8591 25.7175 12.1716C25.9009 12.3919 26.0625 12.6296 26.2 12.8811C26.2665 13.0421 26.2855 13.2126 26.35 13.3811C26.4888 13.8137 26.6536 14.2374 26.8435 14.6501C26.9451 14.8541 27.0621 15.05 27.1935 15.2361C27.27 15.3406 27.402 15.3861 27.4305 15.5586C27.3257 15.784 27.2523 16.0227 27.2125 16.2681C27.0472 16.7901 26.9864 17.3395 27.0335 17.8849C27.0806 18.4304 27.2347 18.9612 27.487 19.4471C27.637 19.6836 27.998 20.2041 28.4805 20.0051C28.906 19.8351 28.8115 19.2956 28.9345 18.8231C28.9625 18.7086 28.944 18.6336 29.0005 18.5581V18.6501C29.0005 18.6501 29.242 19.1806 29.362 19.4501C29.6884 19.9446 30.0938 20.3821 30.562 20.7451C30.7472 20.9068 30.8964 21.1056 31 21.3286V21.5001H31.2135C31.2091 21.4228 31.1876 21.3474 31.1507 21.2793C31.1138 21.2112 31.0624 21.1521 31 21.1061C30.8249 20.9259 30.6646 20.7319 30.5205 20.5261C30.1291 19.9687 29.784 19.3803 29.4885 18.7666C29.3385 18.4666 29.212 18.1376 29.092 17.8381C29.037 17.7226 29.037 17.5481 28.9445 17.4881C28.7737 17.6902 28.6255 17.9103 28.5025 18.1446C28.3532 18.6181 28.2663 19.1091 28.244 19.6051C28.2075 19.6151 28.2255 19.6051 28.2075 19.6241C27.913 19.5466 27.8115 19.2281 27.7005 18.9581C27.4138 18.1254 27.3848 17.2255 27.6175 16.3761C27.6815 16.1736 27.959 15.5356 27.848 15.3421C27.7925 15.1576 27.608 15.0521 27.507 14.9066C27.3781 14.7109 27.2671 14.5039 27.1755 14.2881C26.956 13.7501 26.845 13.1501 26.606 12.6081C26.4737 12.3474 26.3197 12.0984 26.1455 11.8636C25.9529 11.6291 25.7829 11.3768 25.638 11.1101C25.592 11.0036 25.5275 10.8296 25.601 10.7136C25.606 10.6814 25.6213 10.6517 25.6447 10.6289C25.668 10.6062 25.6982 10.5917 25.7305 10.5876C25.8495 10.4816 26.191 10.6166 26.3105 10.6746C26.6317 10.801 26.9376 10.9632 27.2225 11.1581C27.3515 11.2551 27.6555 11.5006 27.6555 11.5006H27.7455C28.0515 11.5671 28.3955 11.5191 28.6835 11.6056C29.1684 11.7673 29.6312 11.989 30.061 12.2656C31.3279 13.0732 32.3577 14.2024 33.0455 15.5381C33.1605 15.7576 33.209 15.9591 33.314 16.1881C33.514 16.6581 33.764 17.1381 33.964 17.5951C34.1405 18.0472 34.3686 18.4774 34.644 18.8771C34.787 19.0771 35.3615 19.1831 35.62 19.2881C35.8445 19.3658 36.0648 19.4551 36.28 19.5556C36.6055 19.7556 36.93 19.9861 37.2365 20.2056C37.389 20.3206 37.8675 20.5596 37.8965 20.7511" fill="#00758F"/>
<path d="M53.46 17.8V15.148H53.364L51.6 19.456L49.836 15.148H49.74V17.8V22H48.816V13.624H50.112L51.588 17.32H51.66L53.136 13.624H54.384V22H53.46V17.8ZM60.7993 15.808H61.7593L58.6873 23.356C58.6153 23.532 58.5353 23.684 58.4473 23.812C58.3593 23.948 58.2553 24.056 58.1353 24.136C58.0153 24.224 57.8713 24.288 57.7033 24.328C57.5353 24.376 57.3353 24.4 57.1033 24.4H56.1913V23.584H57.6313L58.3273 21.88L55.8313 15.808H56.8153L57.8593 18.4L58.7833 20.752H58.8313L59.7553 18.4L60.7993 15.808ZM65.9666 22.144C65.2146 22.144 64.5986 22.008 64.1186 21.736C63.6386 21.456 63.2426 21.1 62.9306 20.668L63.6626 20.068C63.9906 20.476 64.3346 20.78 64.6946 20.98C65.0626 21.18 65.4986 21.28 66.0026 21.28C66.6106 21.28 67.0746 21.14 67.3946 20.86C67.7146 20.58 67.8746 20.188 67.8746 19.684C67.8746 19.276 67.7586 18.96 67.5266 18.736C67.2946 18.504 66.8906 18.34 66.3146 18.244L65.3786 18.088C64.9706 18.016 64.6266 17.908 64.3466 17.764C64.0746 17.62 63.8546 17.448 63.6866 17.248C63.5186 17.04 63.3986 16.816 63.3266 16.576C63.2546 16.328 63.2186 16.072 63.2186 15.808C63.2186 15.04 63.4706 14.46 63.9746 14.068C64.4786 13.676 65.1586 13.48 66.0146 13.48C66.6866 13.48 67.2506 13.592 67.7066 13.816C68.1706 14.04 68.5426 14.356 68.8226 14.764L68.1146 15.376C67.8826 15.072 67.6026 14.824 67.2746 14.632C66.9466 14.44 66.5226 14.344 66.0026 14.344C65.4346 14.344 64.9986 14.464 64.6946 14.704C64.3906 14.944 64.2386 15.304 64.2386 15.784C64.2386 16.16 64.3506 16.468 64.5746 16.708C64.8066 16.94 65.2186 17.108 65.8106 17.212L66.7106 17.368C67.1186 17.44 67.4626 17.548 67.7426 17.692C68.0226 17.836 68.2466 18.008 68.4146 18.208C68.5906 18.408 68.7146 18.632 68.7866 18.88C68.8586 19.128 68.8946 19.388 68.8946 19.66C68.8946 20.436 68.6386 21.044 68.1266 21.484C67.6226 21.924 66.9026 22.144 65.9666 22.144ZM75.4779 23.968H74.0739C73.6019 23.968 73.2539 23.836 73.0299 23.572C72.8139 23.308 72.7059 22.968 72.7059 22.552V22.108C72.2819 22.052 71.9139 21.916 71.6019 21.7C71.2979 21.476 71.0459 21.184 70.8459 20.824C70.6459 20.456 70.4979 20.02 70.4019 19.516C70.3059 19.004 70.2579 18.436 70.2579 17.812C70.2579 17.132 70.3139 16.524 70.4259 15.988C70.5379 15.444 70.7139 14.988 70.9539 14.62C71.1939 14.252 71.4979 13.972 71.8659 13.78C72.2339 13.58 72.6739 13.48 73.1859 13.48C73.6979 13.48 74.1379 13.58 74.5059 13.78C74.8739 13.972 75.1779 14.252 75.4179 14.62C75.6579 14.988 75.8339 15.444 75.9459 15.988C76.0579 16.524 76.1139 17.132 76.1139 17.812C76.1139 19.068 75.9179 20.072 75.5259 20.824C75.1339 21.568 74.5139 21.996 73.6659 22.108V23.152H75.4779V23.968ZM73.1859 21.268C73.5219 21.268 73.8059 21.204 74.0379 21.076C74.2699 20.94 74.4619 20.752 74.6139 20.512C74.7659 20.272 74.8739 19.984 74.9379 19.648C75.0099 19.304 75.0459 18.92 75.0459 18.496V17.128C75.0459 16.712 75.0099 16.332 74.9379 15.988C74.8739 15.644 74.7659 15.352 74.6139 15.112C74.4619 14.872 74.2699 14.688 74.0379 14.56C73.8059 14.424 73.5219 14.356 73.1859 14.356C72.8499 14.356 72.5659 14.424 72.3339 14.56C72.1019 14.688 71.9099 14.872 71.7579 15.112C71.6059 15.352 71.4939 15.644 71.4219 15.988C71.3579 16.332 71.3259 16.712 71.3259 17.128V18.496C71.3259 18.92 71.3579 19.304 71.4219 19.648C71.4939 19.984 71.6059 20.272 71.7579 20.512C71.9099 20.752 72.1019 20.94 72.3339 21.076C72.5659 21.204 72.8499 21.268 73.1859 21.268ZM78.2213 22V13.624H79.2293V21.124H83.2013V22H78.2213Z" fill="#7A7785"/>
<rect x="0.5" y="0.5" width="107" height="33" rx="16.5" stroke="#0A0A0A"/>
</svg>
