<svg width="123" height="34" viewBox="0 0 123 34" fill="none" xmlns="http://www.w3.org/2000/svg">
<rect x="0.5" y="0.5" width="122" height="33" rx="16.5" fill="#1B1A1F"/>
<path d="M32 18.2368C32.6904 18.2368 33.25 17.6772 33.25 16.9868C33.25 16.2965 32.6904 15.7368 32 15.7368C31.3096 15.7368 30.75 16.2965 30.75 16.9868C30.75 17.6772 31.3096 18.2368 32 18.2368Z" fill="#007ACC"/>
<path d="M32 19.8531C30.4976 19.8895 28.9989 19.687 27.56 19.2531C26.8953 19.0424 26.2754 18.7105 25.7315 18.2741C25.524 18.1251 25.3511 17.9329 25.2249 17.7107C25.0986 17.4886 25.0219 17.2417 25 16.9871C25 16.1606 25.908 15.3506 27.429 14.8206C28.9064 14.351 30.45 14.1234 32 14.1466C33.5294 14.1253 35.0523 14.3488 36.511 14.8086C37.1511 15.0127 37.7501 15.3286 38.28 15.7416C38.484 15.8838 38.6542 16.069 38.7786 16.2842C38.9031 16.4995 38.9786 16.7394 39 16.9871C39 17.8461 37.985 18.7166 36.35 19.2576C34.939 19.6773 33.4719 19.8782 32 19.8531V19.8531ZM32 14.7446C30.5171 14.7248 29.0404 14.9412 27.6255 15.3856C26.2255 15.8741 25.598 16.5421 25.598 16.9856C25.598 17.4496 26.2725 18.1791 27.7535 18.6856C29.13 19.0986 30.5633 19.2908 32 19.2551C33.4082 19.2803 34.812 19.0898 36.1625 18.6901C37.7 18.1806 38.4 17.4501 38.4 16.9871C38.3748 16.8282 38.3169 16.6763 38.2299 16.5409C38.143 16.4056 38.029 16.2897 37.895 16.2006C37.4209 15.8342 36.8858 15.5543 36.3145 15.3736C34.919 14.9355 33.4625 14.7232 32 14.7446V14.7446Z" fill="#007ACC"/>
<path d="M29.1598 23.2217C28.9266 23.2271 28.6961 23.1705 28.4918 23.0577C27.7758 22.6447 27.5278 21.4537 27.8283 19.8712C28.1596 18.3568 28.7337 16.9059 29.5283 15.5747C30.2737 14.2393 31.2279 13.0317 32.3548 11.9977C32.8514 11.5451 33.4242 11.184 34.0468 10.9312C34.272 10.8257 34.5176 10.771 34.7663 10.771C35.015 10.771 35.2606 10.8257 35.4858 10.9312C36.2303 11.3602 36.4768 12.6742 36.1293 14.3607C35.7878 15.793 35.2286 17.1645 34.4713 18.4272C33.7522 19.7469 32.828 20.944 31.7333 21.9737C31.2187 22.4441 30.6215 22.8152 29.9718 23.0682C29.7117 23.1648 29.4372 23.2167 29.1598 23.2217V23.2217ZM30.0463 15.8717C29.2884 17.1464 28.7381 18.5336 28.4163 19.9812C28.1398 21.4387 28.4053 22.3152 28.7913 22.5382C29.1913 22.7697 30.1623 22.5502 31.3413 21.5202C32.3863 20.5337 33.2684 19.3878 33.9548 18.1252C34.6803 16.918 35.2167 15.6068 35.5453 14.2372C35.8723 12.6497 35.5898 11.6777 35.1888 11.4467C35.0385 11.3891 34.8779 11.3634 34.7171 11.371C34.5564 11.3787 34.3989 11.4196 34.2548 11.4912C33.7006 11.7199 33.1912 12.0445 32.7498 12.4502C31.6731 13.4406 30.7616 14.5967 30.0498 15.8747L30.0463 15.8717Z" fill="#007ACC"/>
<path d="M34.8385 23.228C34.161 23.228 33.3005 22.818 32.4045 22.0475C31.2579 21.0041 30.2875 19.7822 29.531 18.429C28.7464 17.1162 28.1769 15.6863 27.844 14.1935C27.6997 13.5367 27.6729 12.8596 27.765 12.1935C27.7863 11.9464 27.8616 11.707 27.9854 11.4921C28.1093 11.2773 28.2788 11.0922 28.482 10.95C29.2255 10.5195 30.487 10.962 31.7745 12.105C32.8448 13.1161 33.7537 14.2853 34.4695 15.572C35.2537 16.8542 35.8292 18.2528 36.1745 19.7155C36.3251 20.3963 36.3483 21.0992 36.243 21.7885C36.218 22.0427 36.1382 22.2885 36.0093 22.509C35.8804 22.7295 35.7053 22.9195 35.496 23.066C35.2951 23.1773 35.0682 23.2333 34.8385 23.228V23.228ZM30.0485 18.128C30.7742 19.4212 31.7012 20.5907 32.7945 21.5925C33.919 22.56 34.811 22.768 35.1945 22.5425C35.5945 22.31 35.8895 21.361 35.5855 19.8255C35.2525 18.429 34.7005 17.0939 33.95 15.87C33.2669 14.6386 32.3994 13.5189 31.3775 12.55C30.1655 11.474 29.1825 11.2335 28.782 11.4655C28.6572 11.5669 28.5548 11.6932 28.4812 11.8362C28.4076 11.9792 28.3645 12.1359 28.3545 12.2965C28.275 12.8905 28.3009 13.4939 28.431 14.079C28.7512 15.5066 29.2974 16.8738 30.049 18.129L30.0485 18.128Z" fill="#007ACC"/>
<path d="M50.088 22H49.08V13.624H52.128C52.904 13.624 53.496 13.836 53.904 14.26C54.312 14.684 54.516 15.276 54.516 16.036C54.516 16.716 54.34 17.26 53.988 17.668C53.636 18.076 53.124 18.312 52.452 18.376L54.588 22H53.46L51.42 18.424H50.088V22ZM52.104 17.572C52.528 17.572 52.856 17.468 53.088 17.26C53.328 17.044 53.448 16.74 53.448 16.348V15.724C53.448 15.332 53.328 15.032 53.088 14.824C52.856 14.608 52.528 14.5 52.104 14.5H50.088V17.572H52.104ZM58.9033 22.144C58.4553 22.144 58.0513 22.068 57.6913 21.916C57.3393 21.764 57.0353 21.548 56.7793 21.268C56.5313 20.98 56.3393 20.64 56.2033 20.248C56.0673 19.848 55.9993 19.404 55.9993 18.916C55.9993 18.42 56.0673 17.972 56.2033 17.572C56.3473 17.172 56.5433 16.832 56.7913 16.552C57.0393 16.264 57.3353 16.044 57.6793 15.892C58.0313 15.74 58.4193 15.664 58.8433 15.664C59.2593 15.664 59.6353 15.74 59.9713 15.892C60.3153 16.044 60.6073 16.256 60.8473 16.528C61.0873 16.792 61.2713 17.108 61.3993 17.476C61.5273 17.844 61.5913 18.248 61.5913 18.688V19.144H57.0073V19.432C57.0073 19.704 57.0513 19.956 57.1393 20.188C57.2273 20.42 57.3513 20.62 57.5113 20.788C57.6793 20.956 57.8793 21.088 58.1113 21.184C58.3513 21.272 58.6153 21.316 58.9033 21.316C59.3193 21.316 59.6793 21.22 59.9833 21.028C60.2873 20.836 60.5193 20.572 60.6793 20.236L61.3873 20.716C61.2033 21.132 60.8953 21.476 60.4633 21.748C60.0393 22.012 59.5193 22.144 58.9033 22.144ZM58.8433 16.456C58.5793 16.456 58.3353 16.504 58.1113 16.6C57.8873 16.696 57.6913 16.828 57.5233 16.996C57.3633 17.164 57.2353 17.364 57.1393 17.596C57.0513 17.82 57.0073 18.068 57.0073 18.34V18.424H60.5593V18.292C60.5593 18.02 60.5153 17.772 60.4273 17.548C60.3473 17.324 60.2313 17.132 60.0793 16.972C59.9353 16.804 59.7553 16.676 59.5393 16.588C59.3313 16.5 59.0993 16.456 58.8433 16.456ZM68.3306 22C67.9546 22 67.6866 21.904 67.5266 21.712C67.3666 21.52 67.2666 21.28 67.2266 20.992H67.1666C67.0306 21.352 66.8106 21.636 66.5066 21.844C66.2106 22.044 65.8106 22.144 65.3066 22.144C64.6586 22.144 64.1426 21.976 63.7586 21.64C63.3746 21.304 63.1826 20.844 63.1826 20.26C63.1826 19.684 63.3906 19.24 63.8066 18.928C64.2306 18.616 64.9106 18.46 65.8466 18.46H67.1666V17.848C67.1666 17.392 67.0386 17.052 66.7826 16.828C66.5266 16.596 66.1626 16.48 65.6906 16.48C65.2746 16.48 64.9346 16.564 64.6706 16.732C64.4066 16.892 64.1946 17.112 64.0346 17.392L63.3866 16.912C63.4666 16.752 63.5746 16.596 63.7106 16.444C63.8466 16.292 64.0146 16.16 64.2146 16.048C64.4146 15.928 64.6426 15.836 64.8986 15.772C65.1546 15.7 65.4386 15.664 65.7506 15.664C66.4786 15.664 67.0546 15.848 67.4786 16.216C67.9106 16.584 68.1266 17.096 68.1266 17.752V21.16H68.9906V22H68.3306ZM65.4746 21.34C65.7226 21.34 65.9466 21.312 66.1466 21.256C66.3546 21.192 66.5346 21.112 66.6866 21.016C66.8386 20.912 66.9546 20.792 67.0346 20.656C67.1226 20.512 67.1666 20.36 67.1666 20.2V19.18H65.8466C65.2706 19.18 64.8506 19.26 64.5866 19.42C64.3226 19.58 64.1906 19.812 64.1906 20.116V20.368C64.1906 20.688 64.3026 20.932 64.5266 21.1C64.7586 21.26 65.0746 21.34 65.4746 21.34ZM73.4019 22.144C72.9539 22.144 72.5539 22.068 72.2019 21.916C71.8579 21.756 71.5659 21.536 71.3259 21.256C71.0859 20.976 70.9019 20.636 70.7739 20.236C70.6539 19.836 70.5939 19.392 70.5939 18.904C70.5939 18.416 70.6579 17.972 70.7859 17.572C70.9139 17.172 71.0979 16.832 71.3379 16.552C71.5779 16.264 71.8699 16.044 72.2139 15.892C72.5579 15.74 72.9499 15.664 73.3899 15.664C73.9899 15.664 74.4779 15.796 74.8539 16.06C75.2299 16.324 75.5059 16.668 75.6819 17.092L74.9139 17.5C74.8019 17.18 74.6139 16.932 74.3499 16.756C74.0939 16.58 73.7739 16.492 73.3899 16.492C73.1099 16.492 72.8579 16.54 72.6339 16.636C72.4179 16.724 72.2339 16.852 72.0819 17.02C71.9299 17.188 71.8139 17.388 71.7339 17.62C71.6619 17.852 71.6259 18.104 71.6259 18.376V19.432C71.6259 19.704 71.6619 19.956 71.7339 20.188C71.8139 20.42 71.9299 20.62 72.0819 20.788C72.2339 20.956 72.4219 21.088 72.6459 21.184C72.8699 21.272 73.1259 21.316 73.4139 21.316C73.8299 21.316 74.1739 21.22 74.4459 21.028C74.7179 20.836 74.9339 20.572 75.0939 20.236L75.7779 20.704C75.5939 21.12 75.3059 21.464 74.9139 21.736C74.5299 22.008 74.0259 22.144 73.4019 22.144ZM80.6813 22C80.2093 22 79.8613 21.868 79.6373 21.604C79.4213 21.34 79.3133 21 79.3133 20.584V16.624H77.2493V15.808H78.7853C78.9933 15.808 79.1373 15.768 79.2173 15.688C79.3053 15.6 79.3493 15.452 79.3493 15.244V13.624H80.2733V15.808H83.0933V16.624H80.2733V21.184H83.0933V22H80.6813ZM89.7366 13.624V19.828C89.7366 20.18 89.6766 20.5 89.5566 20.788C89.4366 21.076 89.2646 21.32 89.0406 21.52C88.8246 21.72 88.5646 21.876 88.2606 21.988C87.9566 22.092 87.6246 22.144 87.2646 22.144C86.6246 22.144 86.0966 21.98 85.6806 21.652C85.2646 21.316 84.9926 20.848 84.8646 20.248L85.8246 20.044C85.8646 20.212 85.9166 20.372 85.9806 20.524C86.0526 20.668 86.1446 20.796 86.2566 20.908C86.3766 21.012 86.5206 21.096 86.6886 21.16C86.8566 21.224 87.0566 21.256 87.2886 21.256C87.7446 21.256 88.0966 21.128 88.3446 20.872C88.6006 20.608 88.7286 20.2 88.7286 19.648V14.5H85.7046V13.624H89.7366ZM94.7479 22.144C93.9959 22.144 93.3799 22.008 92.8999 21.736C92.4199 21.456 92.0239 21.1 91.7119 20.668L92.4439 20.068C92.7719 20.476 93.1159 20.78 93.4759 20.98C93.8439 21.18 94.2799 21.28 94.7839 21.28C95.3919 21.28 95.8559 21.14 96.1759 20.86C96.4959 20.58 96.6559 20.188 96.6559 19.684C96.6559 19.276 96.5399 18.96 96.3079 18.736C96.0759 18.504 95.6719 18.34 95.0959 18.244L94.1599 18.088C93.7519 18.016 93.4079 17.908 93.1279 17.764C92.8559 17.62 92.6359 17.448 92.4679 17.248C92.2999 17.04 92.1799 16.816 92.1079 16.576C92.0359 16.328 91.9999 16.072 91.9999 15.808C91.9999 15.04 92.2519 14.46 92.7559 14.068C93.2599 13.676 93.9399 13.48 94.7959 13.48C95.4679 13.48 96.0319 13.592 96.4879 13.816C96.9519 14.04 97.3239 14.356 97.6039 14.764L96.8959 15.376C96.6639 15.072 96.3839 14.824 96.0559 14.632C95.7279 14.44 95.3039 14.344 94.7839 14.344C94.2159 14.344 93.7799 14.464 93.4759 14.704C93.1719 14.944 93.0199 15.304 93.0199 15.784C93.0199 16.16 93.1319 16.468 93.3559 16.708C93.5879 16.94 93.9999 17.108 94.5919 17.212L95.4919 17.368C95.8999 17.44 96.2439 17.548 96.5239 17.692C96.8039 17.836 97.0279 18.008 97.1959 18.208C97.3719 18.408 97.4959 18.632 97.5679 18.88C97.6399 19.128 97.6759 19.388 97.6759 19.66C97.6759 20.436 97.4199 21.044 96.9079 21.484C96.4039 21.924 95.6839 22.144 94.7479 22.144Z" fill="#7A7785"/>
<rect x="0.5" y="0.5" width="122" height="33" rx="16.5" stroke="#0A0A0A"/>
</svg>
