<svg width="101" height="34" viewBox="0 0 101 34" fill="none" xmlns="http://www.w3.org/2000/svg">
<rect x="0.5" y="0.5" width="100" height="33" rx="16.5" fill="#1B1A1F"/>
<path d="M37.055 17.7859C36.6153 17.7865 36.1815 17.887 35.7865 18.0799C35.6628 17.8746 35.5672 17.6536 35.5025 17.4229C35.4652 17.242 35.4566 17.0564 35.477 16.8729C35.5197 16.6709 35.5751 16.4719 35.643 16.2769C35.6405 16.2514 35.6125 16.1309 35.331 16.1269C35.0495 16.1229 34.807 16.1804 34.781 16.2549C34.7321 16.391 34.6928 16.5303 34.6635 16.6719C34.4305 17.2467 34.1437 17.7981 33.807 18.3189C33.6183 18.0096 33.5407 17.6452 33.587 17.2859C33.6297 17.0839 33.6851 16.8849 33.753 16.6899C33.7505 16.6644 33.7225 16.5439 33.441 16.5399C33.1595 16.5359 32.917 16.5934 32.891 16.6679C32.865 16.7424 32.832 16.9179 32.7735 17.0849C32.715 17.2519 32.032 18.7779 31.853 19.1714C31.761 19.3714 31.6815 19.5344 31.6255 19.6444C31.6228 19.6515 31.6194 19.6584 31.6155 19.6649L31.539 19.8109V19.8134C31.5005 19.8824 31.4595 19.9464 31.439 19.9464C31.4032 19.8035 31.4049 19.6539 31.444 19.5119C31.544 18.9824 31.789 18.1594 31.7865 18.1309C31.7865 18.1154 31.8325 17.9724 31.628 17.8984C31.5805 17.8758 31.5273 17.8685 31.4755 17.8775C31.4238 17.8864 31.376 17.9112 31.339 17.9484C31.321 17.9484 31.3085 17.9919 31.3085 17.9919C31.3085 17.9919 31.531 17.0664 30.884 17.0664C30.632 17.1171 30.3927 17.2176 30.1802 17.3621C29.9677 17.5067 29.7862 17.6922 29.6465 17.9079C29.4725 18.0024 29.102 18.2044 28.7055 18.4219C28.5555 18.5064 28.3985 18.5909 28.253 18.6719C28.243 18.6619 28.2325 18.6489 28.2225 18.6389C27.435 17.7999 25.9875 17.2079 26.05 16.0854C26.073 15.6764 26.2135 14.6024 28.8295 13.2979C30.9825 12.2369 32.696 12.5309 32.9925 13.1829C33.417 14.1139 32.0745 15.8424 29.85 16.0929C29.6039 16.1428 29.3497 16.1368 29.1062 16.0753C28.8628 16.0137 28.6363 15.8983 28.4435 15.7374C28.326 15.6094 28.308 15.6019 28.2645 15.6274C28.193 15.6659 28.239 15.7809 28.2645 15.8474C28.3493 16.001 28.4641 16.136 28.602 16.2444C28.7399 16.3529 28.8982 16.4326 29.0675 16.4789C29.9426 16.668 30.855 16.5776 31.676 16.2204C33.026 15.6989 34.076 14.2489 33.768 13.0344C33.4585 11.8019 31.413 11.3954 29.477 12.0844C28.2643 12.4924 27.1439 13.1352 26.1795 13.9759C25.113 14.9734 24.9445 15.8399 25.0135 16.2034C25.2635 17.4924 27.039 18.3309 27.7495 18.9534C27.7174 18.9717 27.685 18.9895 27.6525 19.0069C27.297 19.1834 25.942 19.8919 25.6025 20.6409C25.219 21.4909 25.664 22.0984 25.958 22.1804C26.401 22.2864 26.866 22.2515 27.2882 22.0805C27.7104 21.9095 28.0687 21.6109 28.313 21.2264C28.521 20.9075 28.6489 20.5431 28.6857 20.1641C28.7225 19.7851 28.6672 19.4029 28.5245 19.0499C28.522 19.0442 28.5187 19.0389 28.5145 19.0344L28.793 18.8709C28.9622 18.7709 29.1336 18.6745 29.307 18.5819C29.2029 18.8821 29.1418 19.1956 29.1255 19.5129C29.0901 19.9993 29.239 20.4812 29.5425 20.8629C29.5886 20.9027 29.6422 20.9328 29.7002 20.9517C29.7581 20.9706 29.8192 20.9778 29.88 20.9729C30.18 20.9729 30.3175 20.7229 30.468 20.4259C30.652 20.0629 30.818 19.6409 30.818 19.6409C30.818 19.6409 30.611 20.7814 31.1735 20.7814C31.378 20.7814 31.585 20.5154 31.6775 20.3814V20.3839L31.693 20.3584L31.726 20.3049V20.2999C31.808 20.1569 31.992 19.8319 32.2655 19.2924C32.6185 18.5969 32.9585 17.7274 32.9585 17.7274C32.9912 17.9185 33.0365 18.1072 33.094 18.2924C33.1763 18.5169 33.2737 18.7355 33.3855 18.9469C33.3035 19.0619 33.2525 19.1259 33.2525 19.1259L33.255 19.1284C33.1885 19.2154 33.117 19.3099 33.0375 19.4019C32.8009 19.6619 32.5815 19.937 32.3805 20.2254C32.3506 20.2738 32.3403 20.3318 32.3517 20.3876C32.3632 20.4433 32.3954 20.4926 32.442 20.5254C32.5472 20.5802 32.6672 20.6 32.7845 20.5819C32.9612 20.5719 33.1349 20.5322 33.2985 20.4644C33.4565 20.4088 33.6055 20.3305 33.741 20.2319C33.8806 20.1352 33.993 20.0042 34.0673 19.8514C34.1416 19.6987 34.1754 19.5295 34.1655 19.3599C34.1497 19.1463 34.0952 18.9374 34.0045 18.7434C34.03 18.7074 34.0545 18.6719 34.0785 18.6359C34.3627 18.2116 34.6189 17.7691 34.8455 17.3114C34.8782 17.5025 34.9235 17.6912 34.981 17.8764C35.0489 18.0704 35.1325 18.2585 35.231 18.4389C34.9039 18.6905 34.6463 19.0212 34.4825 19.3999C34.3215 19.8654 34.4465 20.0749 34.6825 20.1234C34.8116 20.1323 34.9407 20.1059 35.056 20.0469C35.2254 19.9912 35.385 19.9092 35.529 19.8039C35.6807 19.7143 35.8079 19.5884 35.8989 19.4375C35.9899 19.2866 36.042 19.1154 36.0505 18.9394C36.0391 18.7637 35.9994 18.591 35.933 18.4279C36.3645 18.2593 36.8324 18.2056 37.291 18.2719C38.508 18.4149 38.7485 19.1744 38.7025 19.4944C38.6809 19.6078 38.6353 19.7154 38.5687 19.8097C38.5021 19.9041 38.4161 19.9831 38.3165 20.0414C38.232 20.0949 38.204 20.1129 38.2115 20.1514C38.2215 20.2079 38.2615 20.2049 38.334 20.1949C38.5174 20.1379 38.6792 20.0266 38.7981 19.8758C38.917 19.7249 38.9874 19.5416 39 19.3499C39.0385 18.5999 38.3225 17.7774 37.0565 17.7849L37.055 17.7859ZM27.665 20.9499C27.261 21.3899 26.6985 21.5559 26.4555 21.4154C26.1945 21.2654 26.297 20.6154 26.793 20.1494C27.0872 19.8845 27.4052 19.6474 27.743 19.4409C27.802 19.4049 27.889 19.3539 27.993 19.2909L28.021 19.2754L28.0825 19.2369C28.1711 19.5338 28.1791 19.8489 28.1057 20.1499C28.0324 20.451 27.8802 20.7271 27.665 20.9499ZM30.6055 18.9499C30.465 19.2924 30.171 20.1699 29.992 20.1209C29.8385 20.0799 29.742 19.4149 29.9615 18.7579C30.0723 18.4416 30.2337 18.1454 30.4395 17.8809C30.6595 17.6354 30.9025 17.5534 30.961 17.6534C30.9076 18.1008 30.7878 18.5378 30.6055 18.9499ZM33.032 20.1109C32.973 20.1414 32.917 20.1609 32.8915 20.1469C32.8735 20.1369 32.917 20.0969 32.917 20.0969C32.917 20.0969 33.2215 19.7694 33.3415 19.6214C33.4105 19.5344 33.4915 19.4324 33.5795 19.3169V19.3499C33.5795 19.7409 33.201 20.0044 33.0325 20.1119L33.032 20.1109ZM34.904 19.6839C34.8605 19.6534 34.868 19.5509 35.014 19.2314C35.1155 19.0262 35.2573 18.8436 35.431 18.6944C35.4576 18.7701 35.4714 18.8497 35.472 18.9299C35.4739 19.1007 35.4193 19.2673 35.3167 19.4038C35.214 19.5403 35.0691 19.6389 34.9045 19.6844L34.904 19.6839Z" fill="#CD6799"/>
<path d="M51.576 22.144C50.824 22.144 50.208 22.008 49.728 21.736C49.248 21.456 48.852 21.1 48.54 20.668L49.272 20.068C49.6 20.476 49.944 20.78 50.304 20.98C50.672 21.18 51.108 21.28 51.612 21.28C52.22 21.28 52.684 21.14 53.004 20.86C53.324 20.58 53.484 20.188 53.484 19.684C53.484 19.276 53.368 18.96 53.136 18.736C52.904 18.504 52.5 18.34 51.924 18.244L50.988 18.088C50.58 18.016 50.236 17.908 49.956 17.764C49.684 17.62 49.464 17.448 49.296 17.248C49.128 17.04 49.008 16.816 48.936 16.576C48.864 16.328 48.828 16.072 48.828 15.808C48.828 15.04 49.08 14.46 49.584 14.068C50.088 13.676 50.768 13.48 51.624 13.48C52.296 13.48 52.86 13.592 53.316 13.816C53.78 14.04 54.152 14.356 54.432 14.764L53.724 15.376C53.492 15.072 53.212 14.824 52.884 14.632C52.556 14.44 52.132 14.344 51.612 14.344C51.044 14.344 50.608 14.464 50.304 14.704C50 14.944 49.848 15.304 49.848 15.784C49.848 16.16 49.96 16.468 50.184 16.708C50.416 16.94 50.828 17.108 51.42 17.212L52.32 17.368C52.728 17.44 53.072 17.548 53.352 17.692C53.632 17.836 53.856 18.008 54.024 18.208C54.2 18.408 54.324 18.632 54.396 18.88C54.468 19.128 54.504 19.388 54.504 19.66C54.504 20.436 54.248 21.044 53.736 21.484C53.232 21.924 52.512 22.144 51.576 22.144ZM60.9673 22L60.2593 19.612H57.3193L56.6113 22H55.5673L58.1353 13.624H59.4673L62.0353 22H60.9673ZM58.8433 14.692H58.7353L57.5593 18.736H60.0193L58.8433 14.692ZM65.9666 22.144C65.2146 22.144 64.5986 22.008 64.1186 21.736C63.6386 21.456 63.2426 21.1 62.9306 20.668L63.6626 20.068C63.9906 20.476 64.3346 20.78 64.6946 20.98C65.0626 21.18 65.4986 21.28 66.0026 21.28C66.6106 21.28 67.0746 21.14 67.3946 20.86C67.7146 20.58 67.8746 20.188 67.8746 19.684C67.8746 19.276 67.7586 18.96 67.5266 18.736C67.2946 18.504 66.8906 18.34 66.3146 18.244L65.3786 18.088C64.9706 18.016 64.6266 17.908 64.3466 17.764C64.0746 17.62 63.8546 17.448 63.6866 17.248C63.5186 17.04 63.3986 16.816 63.3266 16.576C63.2546 16.328 63.2186 16.072 63.2186 15.808C63.2186 15.04 63.4706 14.46 63.9746 14.068C64.4786 13.676 65.1586 13.48 66.0146 13.48C66.6866 13.48 67.2506 13.592 67.7066 13.816C68.1706 14.04 68.5426 14.356 68.8226 14.764L68.1146 15.376C67.8826 15.072 67.6026 14.824 67.2746 14.632C66.9466 14.44 66.5226 14.344 66.0026 14.344C65.4346 14.344 64.9986 14.464 64.6946 14.704C64.3906 14.944 64.2386 15.304 64.2386 15.784C64.2386 16.16 64.3506 16.468 64.5746 16.708C64.8066 16.94 65.2186 17.108 65.8106 17.212L66.7106 17.368C67.1186 17.44 67.4626 17.548 67.7426 17.692C68.0226 17.836 68.2466 18.008 68.4146 18.208C68.5906 18.408 68.7146 18.632 68.7866 18.88C68.8586 19.128 68.8946 19.388 68.8946 19.66C68.8946 20.436 68.6386 21.044 68.1266 21.484C67.6226 21.924 66.9026 22.144 65.9666 22.144ZM73.1619 22.144C72.4099 22.144 71.7939 22.008 71.3139 21.736C70.8339 21.456 70.4379 21.1 70.1259 20.668L70.8579 20.068C71.1859 20.476 71.5299 20.78 71.8899 20.98C72.2579 21.18 72.6939 21.28 73.1979 21.28C73.8059 21.28 74.2699 21.14 74.5899 20.86C74.9099 20.58 75.0699 20.188 75.0699 19.684C75.0699 19.276 74.9539 18.96 74.7219 18.736C74.4899 18.504 74.0859 18.34 73.5099 18.244L72.5739 18.088C72.1659 18.016 71.8219 17.908 71.5419 17.764C71.2699 17.62 71.0499 17.448 70.8819 17.248C70.7139 17.04 70.5939 16.816 70.5219 16.576C70.4499 16.328 70.4139 16.072 70.4139 15.808C70.4139 15.04 70.6659 14.46 71.1699 14.068C71.6739 13.676 72.3539 13.48 73.2099 13.48C73.8819 13.48 74.4459 13.592 74.9019 13.816C75.3659 14.04 75.7379 14.356 76.0179 14.764L75.3099 15.376C75.0779 15.072 74.7979 14.824 74.4699 14.632C74.1419 14.44 73.7179 14.344 73.1979 14.344C72.6299 14.344 72.1939 14.464 71.8899 14.704C71.5859 14.944 71.4339 15.304 71.4339 15.784C71.4339 16.16 71.5459 16.468 71.7699 16.708C72.0019 16.94 72.4139 17.108 73.0059 17.212L73.9059 17.368C74.3139 17.44 74.6579 17.548 74.9379 17.692C75.2179 17.836 75.4419 18.008 75.6099 18.208C75.7859 18.408 75.9099 18.632 75.9819 18.88C76.0539 19.128 76.0899 19.388 76.0899 19.66C76.0899 20.436 75.8339 21.044 75.3219 21.484C74.8179 21.924 74.0979 22.144 73.1619 22.144Z" fill="#7A7785"/>
<rect x="0.5" y="0.5" width="100" height="33" rx="16.5" stroke="#0A0A0A"/>
</svg>
