<svg width="144" height="34" viewBox="0 0 144 34" fill="none" xmlns="http://www.w3.org/2000/svg">
<rect x="0.5" y="0.5" width="143" height="33" rx="16.5" fill="#1B1A1F"/>
<path d="M38.344 10H25.656C25.2937 10 25 10.2937 25 10.656V23.344C25 23.7063 25.2937 24 25.656 24H38.344C38.7063 24 39 23.7063 39 23.344V10.656C39 10.2937 38.7063 10 38.344 10Z" fill="#3178C6"/>
<path fill-rule="evenodd" clip-rule="evenodd" d="M33.1227 20.8793V22.4133C33.4015 22.5509 33.6985 22.6477 34.0047 22.7008C34.3586 22.7661 34.7179 22.7983 35.0777 22.7968C35.4285 22.7985 35.7784 22.7631 36.1217 22.6913C36.43 22.629 36.7241 22.5104 36.9892 22.3413C37.2354 22.1824 37.4383 21.9649 37.5797 21.7083C37.833 21.177 37.8665 20.5671 37.6727 20.0113C37.591 19.8034 37.4692 19.6137 37.3142 19.4528C37.1479 19.2817 36.959 19.1342 36.7527 19.0143C36.5153 18.8752 36.2685 18.7526 36.0142 18.6473C35.8142 18.5643 35.6342 18.4836 35.4742 18.4053C35.3321 18.3373 35.1961 18.2571 35.0677 18.1658C34.9672 18.0953 34.8798 18.0076 34.8097 17.9068C34.7492 17.8153 34.7176 17.7076 34.7192 17.5978C34.7179 17.4968 34.7461 17.3976 34.8002 17.3123C34.8591 17.2231 34.9376 17.1485 35.0297 17.0943C35.1424 17.028 35.2649 16.9802 35.3927 16.9528C35.5496 16.9179 35.71 16.9012 35.8707 16.9028C36.0059 16.9033 36.1409 16.913 36.2747 16.9318C36.4193 16.9513 36.5623 16.9809 36.7027 17.0203C36.8456 17.0599 36.9853 17.11 37.1207 17.1703C37.2522 17.2289 37.3779 17.2995 37.4962 17.3813V15.9498C37.2498 15.8566 36.9942 15.7895 36.7337 15.7498C36.4192 15.704 36.1016 15.6825 35.7837 15.6853C35.4363 15.6834 35.0899 15.7229 34.7517 15.8028C34.4461 15.8726 34.1555 15.9968 33.8937 16.1693C33.6506 16.3313 33.4498 16.5492 33.3082 16.8048C33.1582 17.0886 33.084 17.4064 33.0927 17.7273C33.0817 18.1517 33.2214 18.5663 33.4872 18.8973C33.8133 19.2643 34.2245 19.5457 34.6847 19.7168C34.8947 19.8035 35.0906 19.8883 35.2722 19.9713C35.4361 20.0442 35.5937 20.1307 35.7432 20.2298C35.8639 20.3083 35.9698 20.4073 36.0562 20.5223C36.1322 20.6266 36.1726 20.7527 36.1712 20.8818C36.1719 20.9785 36.1471 21.0737 36.0992 21.1578C36.0461 21.2481 35.9713 21.3239 35.8817 21.3783C35.7696 21.4467 35.647 21.496 35.5187 21.5243C35.3517 21.5616 35.1809 21.5793 35.0097 21.5768C34.6739 21.5762 34.3407 21.517 34.0252 21.4018C33.6956 21.2829 33.39 21.1059 33.1227 20.8793V20.8793ZM30.5457 17.0603H32.5457V15.7968H26.9692V17.0603H28.9602V22.6873H30.5457V17.0603Z" fill="white"/>
<path d="M52.104 14.5V22H51.096V14.5H48.3V13.624H54.9V14.5H52.104ZM60.7993 15.808H61.7593L58.6873 23.356C58.6153 23.532 58.5353 23.684 58.4473 23.812C58.3593 23.948 58.2553 24.056 58.1353 24.136C58.0153 24.224 57.8713 24.288 57.7033 24.328C57.5353 24.376 57.3353 24.4 57.1033 24.4H56.1913V23.584H57.6313L58.3273 21.88L55.8313 15.808H56.8153L57.8593 18.4L58.7833 20.752H58.8313L59.7553 18.4L60.7993 15.808ZM63.5306 15.808H64.4906V16.816H64.5386C64.9386 16.048 65.5746 15.664 66.4466 15.664C67.2066 15.664 67.7986 15.948 68.2226 16.516C68.6546 17.084 68.8706 17.88 68.8706 18.904C68.8706 19.928 68.6546 20.724 68.2226 21.292C67.7986 21.86 67.2066 22.144 66.4466 22.144C65.5746 22.144 64.9386 21.76 64.5386 20.992H64.4906V24.4H63.5306V15.808ZM66.0746 21.292C66.6346 21.292 67.0666 21.124 67.3706 20.788C67.6826 20.444 67.8386 19.992 67.8386 19.432V18.376C67.8386 17.816 67.6826 17.368 67.3706 17.032C67.0666 16.688 66.6346 16.516 66.0746 16.516C65.8586 16.516 65.6546 16.544 65.4626 16.6C65.2706 16.656 65.1026 16.74 64.9586 16.852C64.8146 16.956 64.6986 17.088 64.6106 17.248C64.5306 17.4 64.4906 17.58 64.4906 17.788V20.02C64.4906 20.228 64.5306 20.412 64.6106 20.572C64.6986 20.724 64.8146 20.856 64.9586 20.968C65.1026 21.072 65.2706 21.152 65.4626 21.208C65.6546 21.264 65.8586 21.292 66.0746 21.292ZM73.2939 22.144C72.8459 22.144 72.4419 22.068 72.0819 21.916C71.7299 21.764 71.4259 21.548 71.1699 21.268C70.9219 20.98 70.7299 20.64 70.5939 20.248C70.4579 19.848 70.3899 19.404 70.3899 18.916C70.3899 18.42 70.4579 17.972 70.5939 17.572C70.7379 17.172 70.9339 16.832 71.1819 16.552C71.4299 16.264 71.7259 16.044 72.0699 15.892C72.4219 15.74 72.8099 15.664 73.2339 15.664C73.6499 15.664 74.0259 15.74 74.3619 15.892C74.7059 16.044 74.9979 16.256 75.2379 16.528C75.4779 16.792 75.6619 17.108 75.7899 17.476C75.9179 17.844 75.9819 18.248 75.9819 18.688V19.144H71.3979V19.432C71.3979 19.704 71.4419 19.956 71.5299 20.188C71.6179 20.42 71.7419 20.62 71.9019 20.788C72.0699 20.956 72.2699 21.088 72.5019 21.184C72.7419 21.272 73.0059 21.316 73.2939 21.316C73.7099 21.316 74.0699 21.22 74.3739 21.028C74.6779 20.836 74.9099 20.572 75.0699 20.236L75.7779 20.716C75.5939 21.132 75.2859 21.476 74.8539 21.748C74.4299 22.012 73.9099 22.144 73.2939 22.144ZM73.2339 16.456C72.9699 16.456 72.7259 16.504 72.5019 16.6C72.2779 16.696 72.0819 16.828 71.9139 16.996C71.7539 17.164 71.6259 17.364 71.5299 17.596C71.4419 17.82 71.3979 18.068 71.3979 18.34V18.424H74.9499V18.292C74.9499 18.02 74.9059 17.772 74.8179 17.548C74.7379 17.324 74.6219 17.132 74.4699 16.972C74.3259 16.804 74.1459 16.676 73.9299 16.588C73.7219 16.5 73.4899 16.456 73.2339 16.456ZM80.3573 22.144C79.6053 22.144 78.9893 22.008 78.5093 21.736C78.0293 21.456 77.6333 21.1 77.3213 20.668L78.0533 20.068C78.3813 20.476 78.7253 20.78 79.0853 20.98C79.4533 21.18 79.8893 21.28 80.3933 21.28C81.0013 21.28 81.4653 21.14 81.7853 20.86C82.1053 20.58 82.2653 20.188 82.2653 19.684C82.2653 19.276 82.1493 18.96 81.9173 18.736C81.6853 18.504 81.2813 18.34 80.7053 18.244L79.7693 18.088C79.3613 18.016 79.0173 17.908 78.7373 17.764C78.4653 17.62 78.2453 17.448 78.0773 17.248C77.9093 17.04 77.7893 16.816 77.7173 16.576C77.6453 16.328 77.6093 16.072 77.6093 15.808C77.6093 15.04 77.8613 14.46 78.3652 14.068C78.8693 13.676 79.5493 13.48 80.4053 13.48C81.0773 13.48 81.6413 13.592 82.0973 13.816C82.5613 14.04 82.9333 14.356 83.2133 14.764L82.5053 15.376C82.2733 15.072 81.9933 14.824 81.6653 14.632C81.3373 14.44 80.9133 14.344 80.3933 14.344C79.8253 14.344 79.3893 14.464 79.0853 14.704C78.7813 14.944 78.6293 15.304 78.6293 15.784C78.6293 16.16 78.7413 16.468 78.9653 16.708C79.1973 16.94 79.6093 17.108 80.2013 17.212L81.1013 17.368C81.5093 17.44 81.8533 17.548 82.1333 17.692C82.4133 17.836 82.6373 18.008 82.8053 18.208C82.9813 18.408 83.1053 18.632 83.1773 18.88C83.2493 19.128 83.2853 19.388 83.2853 19.66C83.2853 20.436 83.0293 21.044 82.5173 21.484C82.0133 21.924 81.2933 22.144 80.3573 22.144ZM87.7926 22.144C87.3446 22.144 86.9446 22.068 86.5926 21.916C86.2486 21.756 85.9566 21.536 85.7166 21.256C85.4766 20.976 85.2926 20.636 85.1646 20.236C85.0446 19.836 84.9846 19.392 84.9846 18.904C84.9846 18.416 85.0486 17.972 85.1766 17.572C85.3046 17.172 85.4886 16.832 85.7286 16.552C85.9686 16.264 86.2606 16.044 86.6046 15.892C86.9486 15.74 87.3406 15.664 87.7806 15.664C88.3806 15.664 88.8686 15.796 89.2446 16.06C89.6206 16.324 89.8966 16.668 90.0726 17.092L89.3046 17.5C89.1926 17.18 89.0046 16.932 88.7406 16.756C88.4846 16.58 88.1646 16.492 87.7806 16.492C87.5006 16.492 87.2486 16.54 87.0246 16.636C86.8086 16.724 86.6246 16.852 86.4726 17.02C86.3206 17.188 86.2046 17.388 86.1246 17.62C86.0526 17.852 86.0166 18.104 86.0166 18.376V19.432C86.0166 19.704 86.0526 19.956 86.1246 20.188C86.2046 20.42 86.3206 20.62 86.4726 20.788C86.6246 20.956 86.8126 21.088 87.0366 21.184C87.2606 21.272 87.5166 21.316 87.8046 21.316C88.2206 21.316 88.5646 21.22 88.8366 21.028C89.1086 20.836 89.3246 20.572 89.4846 20.236L90.1686 20.704C89.9846 21.12 89.6966 21.464 89.3046 21.736C88.9206 22.008 88.4166 22.144 87.7926 22.144ZM92.0959 21.184H93.9079V16.624H92.0959V15.808H94.8679V17.368H94.9279C95.0559 16.88 95.2959 16.5 95.6479 16.228C96.0079 15.948 96.4639 15.808 97.0159 15.808H97.8799V16.768H96.7159C96.1639 16.768 95.7159 16.928 95.3719 17.248C95.0359 17.568 94.8679 17.988 94.8679 18.508V21.184H97.2679V22H92.0959V21.184ZM102.351 14.44C102.071 14.44 101.875 14.384 101.763 14.272C101.651 14.152 101.595 14.004 101.595 13.828V13.636C101.595 13.46 101.651 13.316 101.763 13.204C101.875 13.084 102.071 13.024 102.351 13.024C102.631 13.024 102.827 13.084 102.939 13.204C103.051 13.316 103.107 13.46 103.107 13.636V13.828C103.107 14.004 103.051 14.152 102.939 14.272C102.827 14.384 102.631 14.44 102.351 14.44ZM99.6392 21.184H101.871V16.624H99.6392V15.808H102.831V21.184H104.919V22H99.6392V21.184ZM106.703 15.808H107.663V16.816H107.711C108.111 16.048 108.747 15.664 109.619 15.664C110.379 15.664 110.971 15.948 111.395 16.516C111.827 17.084 112.043 17.88 112.043 18.904C112.043 19.928 111.827 20.724 111.395 21.292C110.971 21.86 110.379 22.144 109.619 22.144C108.747 22.144 108.111 21.76 107.711 20.992H107.663V24.4H106.703V15.808ZM109.247 21.292C109.807 21.292 110.239 21.124 110.543 20.788C110.855 20.444 111.011 19.992 111.011 19.432V18.376C111.011 17.816 110.855 17.368 110.543 17.032C110.239 16.688 109.807 16.516 109.247 16.516C109.031 16.516 108.827 16.544 108.635 16.6C108.443 16.656 108.275 16.74 108.131 16.852C107.987 16.956 107.871 17.088 107.783 17.248C107.703 17.4 107.663 17.58 107.663 17.788V20.02C107.663 20.228 107.703 20.412 107.783 20.572C107.871 20.724 107.987 20.856 108.131 20.968C108.275 21.072 108.443 21.152 108.635 21.208C108.827 21.264 109.031 21.292 109.247 21.292ZM116.658 22C116.186 22 115.838 21.868 115.614 21.604C115.398 21.34 115.29 21 115.29 20.584V16.624H113.226V15.808H114.762C114.97 15.808 115.114 15.768 115.194 15.688C115.282 15.6 115.326 15.452 115.326 15.244V13.624H116.25V15.808H119.07V16.624H116.25V21.184H119.07V22H116.658Z" fill="#7A7785"/>
<rect x="0.5" y="0.5" width="143" height="33" rx="16.5" stroke="#0A0A0A"/>
</svg>
