<svg width="137" height="34" viewBox="0 0 137 34" fill="none" xmlns="http://www.w3.org/2000/svg">
<rect x="0.5" y="0.5" width="136" height="33" rx="16.5" fill="#1B1A1F"/>
<g clip-path="url(#clip0_23_618)">
<path d="M25.1332 17C25.1332 19.7166 26.7056 22.0642 28.9858 23.1768L25.725 14.207C25.3341 15.0858 25.1324 16.0375 25.1332 17ZM36.5838 16.6536C36.5838 15.8055 36.2803 15.2181 36.02 14.7609C35.6735 14.1956 35.3487 13.7169 35.3487 13.1515C35.3487 12.5206 35.8253 11.9333 36.4966 11.9333C36.527 11.9333 36.5556 11.9371 36.5852 11.9389C35.369 10.8202 33.7487 10.1372 31.9691 10.1372C29.5809 10.1372 27.4798 11.3674 26.2575 13.2307C26.4179 13.2355 26.569 13.2388 26.6974 13.2388C27.4124 13.2388 28.5192 13.1518 28.5192 13.1518C28.8877 13.1299 28.9312 13.6733 28.5631 13.7171C28.5631 13.7171 28.1927 13.7608 27.7806 13.7825L30.2701 21.2165L31.7661 16.712L30.701 13.7823C30.3329 13.7607 29.9842 13.7169 29.9842 13.7169C29.6158 13.6952 29.659 13.1298 30.0274 13.1516C30.0274 13.1516 31.1563 13.2387 31.8279 13.2387C32.5429 13.2387 33.6498 13.1516 33.6498 13.1516C34.0185 13.1298 34.0619 13.6731 33.6936 13.7169C33.6936 13.7169 33.3225 13.7607 32.9112 13.7823L35.3816 21.1599L36.0634 18.8724C36.3589 17.9231 36.5838 17.2413 36.5838 16.6537L36.5838 16.6536ZM32.089 17.6003L30.038 23.5839C30.665 23.7693 31.3154 23.8635 31.9691 23.8635C32.7651 23.8635 33.5285 23.7253 34.2391 23.4745C34.2201 23.4445 34.2038 23.4128 34.1904 23.3799L32.089 17.6003ZM37.9672 13.7073C37.9983 13.9413 38.0137 14.177 38.0133 14.413C38.0133 15.1095 37.8837 15.8924 37.4935 16.8712L35.4055 22.9324C37.4377 21.7426 38.8046 19.5321 38.8046 17.0002C38.8048 15.807 38.5012 14.6849 37.9672 13.7073ZM31.9691 9C27.5753 9 24.0005 12.5888 24.0005 17C24.0005 21.4118 27.5753 25.0004 31.9691 25.0004C36.3627 25.0004 39.9379 21.4118 39.9379 17C39.9379 12.5888 36.3627 9 31.9691 9ZM31.9691 24.6338C27.7768 24.6338 24.3658 21.2093 24.3658 17C24.3658 12.7911 27.7766 9.36681 31.9691 9.36681C36.1612 9.36681 39.5718 12.7911 39.5718 17C39.5718 21.2093 36.1612 24.6338 31.9691 24.6338Z" fill="#464342"/>
</g>
<path d="M49.08 22L48.42 13.624H49.32L49.668 18.424L49.848 20.956H49.944L51.048 15.808H52.176L53.28 20.956H53.376L53.556 18.424L53.904 13.624H54.78L54.12 22H52.668L51.648 16.996H51.552L50.532 22H49.08ZM58.7953 22.144C58.3633 22.144 57.9713 22.068 57.6193 21.916C57.2753 21.764 56.9793 21.548 56.7313 21.268C56.4913 20.98 56.3073 20.64 56.1793 20.248C56.0513 19.848 55.9873 19.4 55.9873 18.904C55.9873 18.416 56.0513 17.972 56.1793 17.572C56.3073 17.172 56.4913 16.832 56.7313 16.552C56.9793 16.264 57.2753 16.044 57.6193 15.892C57.9713 15.74 58.3633 15.664 58.7953 15.664C59.2273 15.664 59.6153 15.74 59.9593 15.892C60.3113 16.044 60.6073 16.264 60.8473 16.552C61.0953 16.832 61.2833 17.172 61.4113 17.572C61.5393 17.972 61.6033 18.416 61.6033 18.904C61.6033 19.4 61.5393 19.848 61.4113 20.248C61.2833 20.64 61.0953 20.98 60.8473 21.268C60.6073 21.548 60.3113 21.764 59.9593 21.916C59.6153 22.068 59.2273 22.144 58.7953 22.144ZM58.7953 21.316C59.3313 21.316 59.7633 21.156 60.0913 20.836C60.4193 20.516 60.5833 20.02 60.5833 19.348V18.46C60.5833 17.788 60.4193 17.292 60.0913 16.972C59.7633 16.652 59.3313 16.492 58.7953 16.492C58.2593 16.492 57.8273 16.652 57.4993 16.972C57.1713 17.292 57.0073 17.788 57.0073 18.46V19.348C57.0073 20.02 57.1713 20.516 57.4993 20.836C57.8273 21.156 58.2593 21.316 58.7953 21.316ZM63.3146 21.184H65.1266V16.624H63.3146V15.808H66.0866V17.368H66.1466C66.2746 16.88 66.5146 16.5 66.8666 16.228C67.2266 15.948 67.6826 15.808 68.2346 15.808H69.0986V16.768H67.9346C67.3826 16.768 66.9346 16.928 66.5906 17.248C66.2546 17.568 66.0866 17.988 66.0866 18.508V21.184H68.4866V22H63.3146V21.184ZM74.6859 20.992H74.6379C74.2379 21.76 73.6019 22.144 72.7299 22.144C71.9699 22.144 71.3739 21.86 70.9419 21.292C70.5179 20.724 70.3059 19.928 70.3059 18.904C70.3059 17.88 70.5179 17.084 70.9419 16.516C71.3739 15.948 71.9699 15.664 72.7299 15.664C73.6019 15.664 74.2379 16.048 74.6379 16.816H74.6859V13.12H75.6459V22H74.6859V20.992ZM73.1019 21.292C73.3179 21.292 73.5219 21.264 73.7139 21.208C73.9059 21.152 74.0739 21.072 74.2179 20.968C74.3619 20.856 74.4739 20.724 74.5539 20.572C74.6419 20.412 74.6859 20.228 74.6859 20.02V17.788C74.6859 17.58 74.6419 17.4 74.5539 17.248C74.4739 17.088 74.3619 16.956 74.2179 16.852C74.0739 16.74 73.9059 16.656 73.7139 16.6C73.5219 16.544 73.3179 16.516 73.1019 16.516C72.5419 16.516 72.1059 16.688 71.7939 17.032C71.4899 17.368 71.3379 17.816 71.3379 18.376V19.432C71.3379 19.992 71.4899 20.444 71.7939 20.788C72.1059 21.124 72.5419 21.292 73.1019 21.292ZM77.9213 15.808H78.8813V16.816H78.9293C79.3293 16.048 79.9653 15.664 80.8373 15.664C81.5973 15.664 82.1893 15.948 82.6133 16.516C83.0453 17.084 83.2613 17.88 83.2613 18.904C83.2613 19.928 83.0453 20.724 82.6133 21.292C82.1893 21.86 81.5973 22.144 80.8373 22.144C79.9653 22.144 79.3293 21.76 78.9293 20.992H78.8813V24.4H77.9213V15.808ZM80.4653 21.292C81.0253 21.292 81.4573 21.124 81.7613 20.788C82.0733 20.444 82.2293 19.992 82.2293 19.432V18.376C82.2293 17.816 82.0733 17.368 81.7613 17.032C81.4573 16.688 81.0253 16.516 80.4653 16.516C80.2493 16.516 80.0453 16.544 79.8533 16.6C79.6613 16.656 79.4933 16.74 79.3493 16.852C79.2053 16.956 79.0893 17.088 79.0013 17.248C78.9213 17.4 78.8813 17.58 78.8813 17.788V20.02C78.8813 20.228 78.9213 20.412 79.0013 20.572C79.0893 20.724 79.2053 20.856 79.3493 20.968C79.4933 21.072 79.6613 21.152 79.8533 21.208C80.0453 21.264 80.2493 21.292 80.4653 21.292ZM84.9006 21.184H86.7126V16.624H84.9006V15.808H87.6726V17.368H87.7326C87.8606 16.88 88.1006 16.5 88.4526 16.228C88.8126 15.948 89.2686 15.808 89.8206 15.808H90.6846V16.768H89.5206C88.9686 16.768 88.5206 16.928 88.1766 17.248C87.8406 17.568 87.6726 17.988 87.6726 18.508V21.184H90.0726V22H84.9006V21.184ZM94.8799 22.144C94.4319 22.144 94.0279 22.068 93.6679 21.916C93.3159 21.764 93.0119 21.548 92.7559 21.268C92.5079 20.98 92.3159 20.64 92.1799 20.248C92.0439 19.848 91.9759 19.404 91.9759 18.916C91.9759 18.42 92.0439 17.972 92.1799 17.572C92.3239 17.172 92.5199 16.832 92.7679 16.552C93.0159 16.264 93.3119 16.044 93.6559 15.892C94.0079 15.74 94.3959 15.664 94.8199 15.664C95.2359 15.664 95.6119 15.74 95.9479 15.892C96.2919 16.044 96.5839 16.256 96.8239 16.528C97.0639 16.792 97.2479 17.108 97.3759 17.476C97.5039 17.844 97.5679 18.248 97.5679 18.688V19.144H92.9839V19.432C92.9839 19.704 93.0279 19.956 93.1159 20.188C93.2039 20.42 93.3279 20.62 93.4879 20.788C93.6559 20.956 93.8559 21.088 94.0879 21.184C94.3279 21.272 94.5919 21.316 94.8799 21.316C95.2959 21.316 95.6559 21.22 95.9599 21.028C96.2639 20.836 96.4959 20.572 96.6559 20.236L97.3639 20.716C97.1799 21.132 96.8719 21.476 96.4399 21.748C96.0159 22.012 95.4959 22.144 94.8799 22.144ZM94.8199 16.456C94.5559 16.456 94.3119 16.504 94.0879 16.6C93.8639 16.696 93.6679 16.828 93.4999 16.996C93.3399 17.164 93.2119 17.364 93.1159 17.596C93.0279 17.82 92.9839 18.068 92.9839 18.34V18.424H96.5359V18.292C96.5359 18.02 96.4919 17.772 96.4039 17.548C96.3239 17.324 96.2079 17.132 96.0559 16.972C95.9119 16.804 95.7319 16.676 95.5159 16.588C95.3079 16.5 95.0759 16.456 94.8199 16.456ZM102.039 22.144C101.391 22.144 100.831 22.036 100.359 21.82C99.8952 21.596 99.4992 21.3 99.1712 20.932L99.8192 20.368C100.115 20.68 100.439 20.92 100.791 21.088C101.143 21.256 101.567 21.34 102.063 21.34C102.543 21.34 102.935 21.256 103.239 21.088C103.551 20.912 103.707 20.64 103.707 20.272C103.707 20.112 103.675 19.98 103.611 19.876C103.555 19.764 103.475 19.676 103.371 19.612C103.267 19.548 103.151 19.5 103.023 19.468C102.895 19.428 102.759 19.396 102.615 19.372L101.643 19.228C101.427 19.196 101.191 19.152 100.935 19.096C100.687 19.04 100.459 18.952 100.251 18.832C100.043 18.704 99.8672 18.536 99.7232 18.328C99.5872 18.12 99.5192 17.848 99.5192 17.512C99.5192 17.2 99.5792 16.932 99.6992 16.708C99.8272 16.476 100.003 16.284 100.227 16.132C100.451 15.972 100.715 15.856 101.019 15.784C101.323 15.704 101.655 15.664 102.015 15.664C102.575 15.664 103.059 15.752 103.467 15.928C103.883 16.104 104.239 16.348 104.535 16.66L103.911 17.248C103.839 17.16 103.747 17.072 103.635 16.984C103.531 16.888 103.399 16.804 103.239 16.732C103.087 16.652 102.907 16.588 102.699 16.54C102.491 16.492 102.251 16.468 101.979 16.468C101.491 16.468 101.115 16.552 100.851 16.72C100.595 16.888 100.467 17.132 100.467 17.452C100.467 17.612 100.495 17.748 100.551 17.86C100.615 17.964 100.699 18.048 100.803 18.112C100.907 18.176 101.023 18.228 101.151 18.268C101.287 18.3 101.423 18.328 101.559 18.352L102.531 18.496C102.755 18.528 102.991 18.572 103.239 18.628C103.487 18.684 103.715 18.776 103.923 18.904C104.131 19.024 104.303 19.188 104.439 19.396C104.583 19.604 104.655 19.876 104.655 20.212C104.655 20.828 104.415 21.304 103.935 21.64C103.463 21.976 102.831 22.144 102.039 22.144ZM109.235 22.144C108.587 22.144 108.027 22.036 107.555 21.82C107.091 21.596 106.695 21.3 106.367 20.932L107.015 20.368C107.311 20.68 107.635 20.92 107.987 21.088C108.339 21.256 108.763 21.34 109.259 21.34C109.739 21.34 110.131 21.256 110.435 21.088C110.747 20.912 110.903 20.64 110.903 20.272C110.903 20.112 110.871 19.98 110.807 19.876C110.751 19.764 110.671 19.676 110.567 19.612C110.463 19.548 110.347 19.5 110.219 19.468C110.091 19.428 109.955 19.396 109.811 19.372L108.839 19.228C108.623 19.196 108.387 19.152 108.131 19.096C107.883 19.04 107.655 18.952 107.447 18.832C107.239 18.704 107.063 18.536 106.919 18.328C106.783 18.12 106.715 17.848 106.715 17.512C106.715 17.2 106.775 16.932 106.895 16.708C107.023 16.476 107.199 16.284 107.423 16.132C107.647 15.972 107.911 15.856 108.215 15.784C108.519 15.704 108.851 15.664 109.211 15.664C109.771 15.664 110.255 15.752 110.663 15.928C111.079 16.104 111.435 16.348 111.73 16.66L111.107 17.248C111.035 17.16 110.943 17.072 110.831 16.984C110.727 16.888 110.595 16.804 110.435 16.732C110.283 16.652 110.103 16.588 109.895 16.54C109.687 16.492 109.447 16.468 109.175 16.468C108.687 16.468 108.311 16.552 108.047 16.72C107.791 16.888 107.663 17.132 107.663 17.452C107.663 17.612 107.691 17.748 107.747 17.86C107.811 17.964 107.895 18.048 107.999 18.112C108.103 18.176 108.219 18.228 108.347 18.268C108.483 18.3 108.619 18.328 108.755 18.352L109.727 18.496C109.951 18.528 110.187 18.572 110.435 18.628C110.683 18.684 110.911 18.776 111.119 18.904C111.327 19.024 111.499 19.188 111.635 19.396C111.779 19.604 111.851 19.876 111.851 20.212C111.851 20.828 111.611 21.304 111.131 21.64C110.659 21.976 110.027 22.144 109.235 22.144Z" fill="#7A7785"/>
<rect x="0.5" y="0.5" width="136" height="33" rx="16.5" stroke="#0A0A0A"/>
<defs>
<clipPath id="clip0_23_618">
<rect width="16" height="16" fill="white" transform="translate(24 9)"/>
</clipPath>
</defs>
</svg>
