<svg width="185" height="44" viewBox="0 0 185 44" fill="none" xmlns="http://www.w3.org/2000/svg">
<rect x="0.5" y="0.5" width="184" height="43" rx="21.5" fill="#1B1A1F"/>
<path fill-rule="evenodd" clip-rule="evenodd" d="M32.4892 21.4682C32.9394 21.2681 33.3264 20.9489 33.6083 20.5448C33.8735 20.1056 34.0042 19.5983 33.9842 19.0857C34.0016 18.617 33.9151 18.1503 33.7308 17.719C33.5799 17.3518 33.3322 17.0324 33.0142 16.7948C32.6808 16.5532 32.3017 16.389 31.9033 16.3148C31.4329 16.2103 30.9519 16.1605 30.47 16.1665H25.5C25.4337 16.1665 25.3701 16.1928 25.3232 16.2397C25.2763 16.2866 25.25 16.3502 25.25 16.4165V27.534C25.25 27.6003 25.2763 27.6639 25.3232 27.7108C25.3701 27.7577 25.4337 27.784 25.5 27.784H30.5833C31.07 27.784 31.555 27.719 32.025 27.5898C32.4746 27.4666 32.8983 27.2633 33.2758 26.9898C33.6487 26.7153 33.949 26.354 34.1508 25.9373C34.3788 25.4624 34.4897 24.9398 34.4742 24.4132C34.4915 23.7621 34.318 23.1202 33.975 22.5665C33.6188 22.023 33.0736 21.631 32.445 21.4665H32.4892V21.4682ZM27.7917 18.0415C27.7475 18.0415 27.7051 18.0591 27.6738 18.0903C27.6426 18.1216 27.625 18.164 27.625 18.2082V20.7915C27.625 20.8832 27.7 20.9582 27.7917 20.9582H30.125C30.5118 20.9582 30.8827 20.8045 31.1562 20.531C31.4297 20.2575 31.5833 19.8866 31.5833 19.4998C31.5833 19.1131 31.4297 18.7421 31.1562 18.4686C30.8827 18.1951 30.5118 18.0415 30.125 18.0415H27.7917ZM27.625 22.5832C27.625 22.4915 27.7 22.4165 27.7917 22.4165H30.2292C30.6988 22.4165 31.1492 22.6031 31.4813 22.9352C31.8134 23.2673 32 23.7177 32 24.1873C32 24.657 31.8134 25.1074 31.4813 25.4395C31.1492 25.7716 30.6988 25.9582 30.2292 25.9582H27.7917C27.7475 25.9582 27.7051 25.9406 27.6738 25.9093C27.6426 25.8781 27.625 25.8357 27.625 25.7915V22.5832Z" fill="#4A4852"/>
<path d="M36.8657 16.7583H40.8016C40.8673 16.7583 40.9304 16.7842 40.9772 16.8303C41.024 16.8765 41.0507 16.9392 41.0516 17.005L41.0624 17.8066C41.0628 17.8397 41.0567 17.8726 41.0443 17.9033C41.032 17.934 41.0136 17.962 40.9904 17.9856C40.9671 18.0091 40.9394 18.0279 40.9088 18.0406C40.8783 18.0534 40.8455 18.06 40.8124 18.06H36.8657C36.7994 18.06 36.7358 18.0336 36.6889 17.9867C36.6421 17.9399 36.6157 17.8763 36.6157 17.81V17.0083C36.6157 16.942 36.6421 16.8784 36.6889 16.8315C36.7358 16.7846 36.7994 16.7583 36.8657 16.7583Z" fill="#4A4852"/>
<path fill-rule="evenodd" clip-rule="evenodd" d="M38.9768 26.0585C39.3824 26.0705 39.781 25.9506 40.1127 25.7168C40.3293 25.5726 40.5018 25.3668 40.611 25.1235C40.6246 25.0918 40.6472 25.0647 40.6758 25.0454C40.7045 25.0262 40.7382 25.0157 40.7727 25.0151H42.3735C42.4818 25.0151 42.5618 25.1168 42.5293 25.2201C42.2921 26.0027 41.8138 26.6904 41.1627 27.1851C40.4773 27.6312 39.6717 27.8566 38.8543 27.831C38.2735 27.8414 37.6965 27.7348 37.1577 27.5176C36.6676 27.3106 36.2313 26.9946 35.8818 26.5935C35.5361 26.1769 35.2746 25.6972 35.1118 25.181C34.9177 24.6039 34.8233 23.998 34.8327 23.3893C34.827 22.7891 34.9245 22.1923 35.121 21.6251C35.3011 21.1066 35.5834 20.6294 35.951 20.2218C36.3127 19.8299 36.7501 19.5155 37.2368 19.2976C37.7603 19.0684 38.3262 18.952 38.8977 18.956C39.5063 18.9469 40.1076 19.0902 40.6468 19.3726C41.1402 19.6456 41.5649 20.0275 41.8885 20.4893C42.2143 20.971 42.4518 21.5126 42.5877 22.0868C42.7279 22.692 42.7779 23.3145 42.736 23.9343H36.9485C36.9209 24.5245 37.114 25.1038 37.4902 25.5593C37.6918 25.746 37.9285 25.8868 38.1843 25.9726C38.4402 26.0585 38.7102 26.0876 38.9768 26.0585ZM37.0002 22.3326C37.0001 22.3437 37.0022 22.3547 37.0064 22.365C37.0105 22.3752 37.0167 22.3846 37.0246 22.3924C37.0324 22.4002 37.0417 22.4064 37.052 22.4106C37.0623 22.4148 37.0733 22.4169 37.0843 22.4168H40.4577C40.48 22.4168 40.5014 22.4079 40.5172 22.3922C40.533 22.3764 40.5418 22.355 40.5418 22.3326C40.5418 21.8853 40.3641 21.4563 40.0478 21.14C39.7315 20.8237 39.3025 20.646 38.8552 20.646H38.6868C38.2395 20.646 37.8105 20.8237 37.4942 21.14C37.1779 21.4563 37.0002 21.8853 37.0002 22.3326Z" fill="#4A4852"/>
<path d="M56.38 29.2C55.7133 29.2 55.1067 29.0667 54.56 28.8C54.0133 28.5333 53.5733 28.1733 53.24 27.72C52.9067 27.2667 52.74 26.7533 52.74 26.18C52.74 25.26 53.1133 24.5267 53.86 23.98C54.6067 23.4333 55.58 23.0733 56.78 22.9L59.76 22.48V21.9C59.76 21.26 59.5733 20.76 59.2 20.4C58.84 20.04 58.2467 19.86 57.42 19.86C56.82 19.86 56.3333 19.98 55.96 20.22C55.6 20.46 55.3467 20.7667 55.2 21.14C55.12 21.34 54.98 21.44 54.78 21.44H53.88C53.7333 21.44 53.62 21.4 53.54 21.32C53.4733 21.2267 53.44 21.12 53.44 21C53.44 20.8 53.5133 20.5533 53.66 20.26C53.82 19.9667 54.06 19.68 54.38 19.4C54.7 19.12 55.1067 18.8867 55.6 18.7C56.1067 18.5 56.72 18.4 57.44 18.4C58.24 18.4 58.9133 18.5067 59.46 18.72C60.0067 18.92 60.4333 19.1933 60.74 19.54C61.06 19.8867 61.2867 20.28 61.42 20.72C61.5667 21.16 61.64 21.6067 61.64 22.06V28.54C61.64 28.6733 61.5933 28.7867 61.5 28.88C61.42 28.96 61.3133 29 61.18 29H60.26C60.1133 29 60 28.96 59.92 28.88C59.84 28.7867 59.8 28.6733 59.8 28.54V27.68C59.6267 27.92 59.3933 28.16 59.1 28.4C58.8067 28.6267 58.44 28.82 58 28.98C57.56 29.1267 57.02 29.2 56.38 29.2ZM56.8 27.7C57.3467 27.7 57.8467 27.5867 58.3 27.36C58.7533 27.12 59.1067 26.7533 59.36 26.26C59.6267 25.7667 59.76 25.1467 59.76 24.4V23.84L57.44 24.18C56.4933 24.3133 55.78 24.54 55.3 24.86C54.82 25.1667 54.58 25.56 54.58 26.04C54.58 26.4133 54.6867 26.7267 54.9 26.98C55.1267 27.22 55.4067 27.4 55.74 27.52C56.0867 27.64 56.44 27.7 56.8 27.7ZM64.9752 29C64.8418 29 64.7285 28.96 64.6352 28.88C64.5552 28.7867 64.5152 28.6733 64.5152 28.54V19.06C64.5152 18.9267 64.5552 18.82 64.6352 18.74C64.7285 18.6467 64.8418 18.6 64.9752 18.6H65.9152C66.0485 18.6 66.1552 18.6467 66.2352 18.74C66.3285 18.82 66.3752 18.9267 66.3752 19.06V19.94C66.7218 19.4867 67.1552 19.12 67.6752 18.84C68.2085 18.5467 68.8885 18.4 69.7152 18.4C70.5818 18.4 71.3152 18.5933 71.9152 18.98C72.5285 19.3533 72.9885 19.88 73.2952 20.56C73.6018 21.2267 73.7552 22.0067 73.7552 22.9V28.54C73.7552 28.6733 73.7152 28.7867 73.6352 28.88C73.5552 28.96 73.4485 29 73.3152 29H72.3152C72.1818 29 72.0685 28.96 71.9752 28.88C71.8952 28.7867 71.8552 28.6733 71.8552 28.54V23C71.8552 22.0667 71.6285 21.34 71.1752 20.82C70.7218 20.2867 70.0552 20.02 69.1752 20.02C68.3485 20.02 67.6818 20.2867 67.1752 20.82C66.6818 21.34 66.4352 22.0667 66.4352 23V28.54C66.4352 28.6733 66.3885 28.7867 66.2952 28.88C66.2152 28.96 66.1085 29 65.9752 29H64.9752ZM80.5673 29C79.8207 29 79.214 28.86 78.7473 28.58C78.2807 28.2867 77.9407 27.88 77.7273 27.36C77.514 26.8267 77.4073 26.2 77.4073 25.48V20.2H75.8473C75.714 20.2 75.6007 20.16 75.5073 20.08C75.4273 19.9867 75.3873 19.8733 75.3873 19.74V19.06C75.3873 18.9267 75.4273 18.82 75.5073 18.74C75.6007 18.6467 75.714 18.6 75.8473 18.6H77.4073V15.26C77.4073 15.1267 77.4473 15.02 77.5273 14.94C77.6207 14.8467 77.734 14.8 77.8673 14.8H78.8073C78.9407 14.8 79.0473 14.8467 79.1273 14.94C79.2207 15.02 79.2673 15.1267 79.2673 15.26V18.6H81.7473C81.8807 18.6 81.9873 18.6467 82.0673 18.74C82.1607 18.82 82.2073 18.9267 82.2073 19.06V19.74C82.2073 19.8733 82.1607 19.9867 82.0673 20.08C81.9873 20.16 81.8807 20.2 81.7473 20.2H79.2673V25.34C79.2673 25.9667 79.374 26.46 79.5873 26.82C79.8007 27.18 80.1807 27.36 80.7273 27.36H81.9473C82.0807 27.36 82.1873 27.4067 82.2673 27.5C82.3607 27.58 82.4073 27.6867 82.4073 27.82V28.54C82.4073 28.6733 82.3607 28.7867 82.2673 28.88C82.1873 28.96 82.0807 29 81.9473 29H80.5673ZM88.5798 29.2C87.5665 29.2 86.7198 29.0067 86.0398 28.62C85.3598 28.2333 84.8398 27.7 84.4798 27.02C84.1198 26.3267 83.9198 25.54 83.8798 24.66C83.8665 24.4333 83.8598 24.1467 83.8598 23.8C83.8598 23.44 83.8665 23.1533 83.8798 22.94C83.9198 22.0467 84.1198 21.26 84.4798 20.58C84.8532 19.9 85.3798 19.3667 86.0598 18.98C86.7398 18.5933 87.5798 18.4 88.5798 18.4C89.5798 18.4 90.4198 18.5933 91.0998 18.98C91.7798 19.3667 92.2998 19.9 92.6598 20.58C93.0332 21.26 93.2398 22.0467 93.2798 22.94C93.2932 23.1533 93.2998 23.44 93.2998 23.8C93.2998 24.1467 93.2932 24.4333 93.2798 24.66C93.2398 25.54 93.0398 26.3267 92.6798 27.02C92.3198 27.7 91.7998 28.2333 91.1198 28.62C90.4398 29.0067 89.5932 29.2 88.5798 29.2ZM88.5798 27.66C89.4065 27.66 90.0665 27.4 90.5598 26.88C91.0532 26.3467 91.3198 25.5733 91.3598 24.56C91.3732 24.36 91.3798 24.1067 91.3798 23.8C91.3798 23.4933 91.3732 23.24 91.3598 23.04C91.3198 22.0267 91.0532 21.26 90.5598 20.74C90.0665 20.2067 89.4065 19.94 88.5798 19.94C87.7532 19.94 87.0865 20.2067 86.5798 20.74C86.0865 21.26 85.8265 22.0267 85.7998 23.04C85.7865 23.24 85.7798 23.4933 85.7798 23.8C85.7798 24.1067 85.7865 24.36 85.7998 24.56C85.8265 25.5733 86.0865 26.3467 86.5798 26.88C87.0865 27.4 87.7532 27.66 88.5798 27.66ZM96.2642 29C96.1309 29 96.0176 28.96 95.9242 28.88C95.8442 28.7867 95.8042 28.6733 95.8042 28.54V19.06C95.8042 18.9267 95.8442 18.82 95.9242 18.74C96.0176 18.6467 96.1309 18.6 96.2642 18.6H97.2042C97.3376 18.6 97.4442 18.6467 97.5242 18.74C97.6176 18.82 97.6642 18.9267 97.6642 19.06V19.94C98.0109 19.4867 98.4442 19.12 98.9642 18.84C99.4976 18.5467 100.178 18.4 101.004 18.4C101.871 18.4 102.604 18.5933 103.204 18.98C103.818 19.3533 104.278 19.88 104.584 20.56C104.891 21.2267 105.044 22.0067 105.044 22.9V28.54C105.044 28.6733 105.004 28.7867 104.924 28.88C104.844 28.96 104.738 29 104.604 29H103.604C103.471 29 103.358 28.96 103.264 28.88C103.184 28.7867 103.144 28.6733 103.144 28.54V23C103.144 22.0667 102.918 21.34 102.464 20.82C102.011 20.2867 101.344 20.02 100.464 20.02C99.6376 20.02 98.9709 20.2867 98.4642 20.82C97.9709 21.34 97.7242 22.0667 97.7242 23V28.54C97.7242 28.6733 97.6776 28.7867 97.5842 28.88C97.5042 28.96 97.3976 29 97.2642 29H96.2642ZM108.393 29C108.26 29 108.146 28.96 108.053 28.88C107.973 28.7867 107.933 28.6733 107.933 28.54V19.06C107.933 18.9267 107.973 18.82 108.053 18.74C108.146 18.6467 108.26 18.6 108.393 18.6H109.353C109.486 18.6 109.593 18.6467 109.673 18.74C109.753 18.82 109.793 18.9267 109.793 19.06V28.54C109.793 28.6733 109.753 28.7867 109.673 28.88C109.593 28.96 109.486 29 109.353 29H108.393ZM108.233 16.66C108.1 16.66 107.986 16.62 107.893 16.54C107.813 16.4467 107.773 16.3333 107.773 16.2V15.12C107.773 14.9867 107.813 14.88 107.893 14.8C107.986 14.7067 108.1 14.66 108.233 14.66H109.493C109.626 14.66 109.733 14.7067 109.813 14.8C109.906 14.88 109.953 14.9867 109.953 15.12V16.2C109.953 16.3333 109.906 16.4467 109.813 16.54C109.733 16.62 109.626 16.66 109.493 16.66H108.233ZM117.076 29.2C116.063 29.2 115.216 29.0067 114.536 28.62C113.856 28.2333 113.336 27.7 112.976 27.02C112.616 26.3267 112.416 25.54 112.376 24.66C112.363 24.4333 112.356 24.1467 112.356 23.8C112.356 23.44 112.363 23.1533 112.376 22.94C112.416 22.0467 112.616 21.26 112.976 20.58C113.349 19.9 113.876 19.3667 114.556 18.98C115.236 18.5933 116.076 18.4 117.076 18.4C118.076 18.4 118.916 18.5933 119.596 18.98C120.276 19.3667 120.796 19.9 121.156 20.58C121.529 21.26 121.736 22.0467 121.776 22.94C121.789 23.1533 121.796 23.44 121.796 23.8C121.796 24.1467 121.789 24.4333 121.776 24.66C121.736 25.54 121.536 26.3267 121.176 27.02C120.816 27.7 120.296 28.2333 119.616 28.62C118.936 29.0067 118.089 29.2 117.076 29.2ZM117.076 27.66C117.903 27.66 118.563 27.4 119.056 26.88C119.549 26.3467 119.816 25.5733 119.856 24.56C119.869 24.36 119.876 24.1067 119.876 23.8C119.876 23.4933 119.869 23.24 119.856 23.04C119.816 22.0267 119.549 21.26 119.056 20.74C118.563 20.2067 117.903 19.94 117.076 19.94C116.249 19.94 115.583 20.2067 115.076 20.74C114.583 21.26 114.323 22.0267 114.296 23.04C114.283 23.24 114.276 23.4933 114.276 23.8C114.276 24.1067 114.283 24.36 114.296 24.56C114.323 25.5733 114.583 26.3467 115.076 26.88C115.583 27.4 116.249 27.66 117.076 27.66ZM127.2 29.2C126.534 29.2 125.927 29.0667 125.38 28.8C124.834 28.5333 124.394 28.1733 124.06 27.72C123.727 27.2667 123.56 26.7533 123.56 26.18C123.56 25.26 123.934 24.5267 124.68 23.98C125.427 23.4333 126.4 23.0733 127.6 22.9L130.58 22.48V21.9C130.58 21.26 130.394 20.76 130.02 20.4C129.66 20.04 129.067 19.86 128.24 19.86C127.64 19.86 127.154 19.98 126.78 20.22C126.42 20.46 126.167 20.7667 126.02 21.14C125.94 21.34 125.8 21.44 125.6 21.44H124.7C124.554 21.44 124.44 21.4 124.36 21.32C124.294 21.2267 124.26 21.12 124.26 21C124.26 20.8 124.334 20.5533 124.48 20.26C124.64 19.9667 124.88 19.68 125.2 19.4C125.52 19.12 125.927 18.8867 126.42 18.7C126.927 18.5 127.54 18.4 128.26 18.4C129.06 18.4 129.734 18.5067 130.28 18.72C130.827 18.92 131.254 19.1933 131.56 19.54C131.88 19.8867 132.107 20.28 132.24 20.72C132.387 21.16 132.46 21.6067 132.46 22.06V28.54C132.46 28.6733 132.414 28.7867 132.32 28.88C132.24 28.96 132.134 29 132 29H131.08C130.934 29 130.82 28.96 130.74 28.88C130.66 28.7867 130.62 28.6733 130.62 28.54V27.68C130.447 27.92 130.214 28.16 129.92 28.4C129.627 28.6267 129.26 28.82 128.82 28.98C128.38 29.1267 127.84 29.2 127.2 29.2ZM127.62 27.7C128.167 27.7 128.667 27.5867 129.12 27.36C129.574 27.12 129.927 26.7533 130.18 26.26C130.447 25.7667 130.58 25.1467 130.58 24.4V23.84L128.26 24.18C127.314 24.3133 126.6 24.54 126.12 24.86C125.64 25.1667 125.4 25.56 125.4 26.04C125.4 26.4133 125.507 26.7267 125.72 26.98C125.947 27.22 126.227 27.4 126.56 27.52C126.907 27.64 127.26 27.7 127.62 27.7ZM135.815 29C135.682 29 135.569 28.96 135.475 28.88C135.395 28.7867 135.355 28.6733 135.355 28.54V15.26C135.355 15.1267 135.395 15.02 135.475 14.94C135.569 14.8467 135.682 14.8 135.815 14.8H136.755C136.902 14.8 137.015 14.8467 137.095 14.94C137.175 15.02 137.215 15.1267 137.215 15.26V28.54C137.215 28.6733 137.175 28.7867 137.095 28.88C137.015 28.96 136.902 29 136.755 29H135.815ZM142.579 29C142.459 29 142.359 28.96 142.279 28.88C142.212 28.7867 142.179 28.68 142.179 28.56C142.179 28.4933 142.185 28.44 142.199 28.4C142.225 28.36 142.245 28.3267 142.259 28.3L145.319 24.04C144.985 24.12 144.625 24.16 144.239 24.16C143.492 24.1467 142.825 24.0133 142.239 23.76C141.652 23.5067 141.152 23.1667 140.739 22.74C140.325 22.3 140.012 21.8067 139.799 21.26C139.585 20.7133 139.479 20.14 139.479 19.54C139.479 18.9533 139.579 18.38 139.779 17.82C139.992 17.26 140.305 16.7533 140.719 16.3C141.145 15.8467 141.672 15.4867 142.299 15.22C142.925 14.94 143.665 14.8 144.519 14.8C145.359 14.8 146.092 14.9333 146.719 15.2C147.359 15.4533 147.892 15.8067 148.319 16.26C148.759 16.7 149.079 17.2 149.279 17.76C149.492 18.32 149.599 18.9 149.599 19.5C149.599 20.0467 149.519 20.5467 149.359 21C149.199 21.4533 149.005 21.86 148.779 22.22C148.565 22.58 148.352 22.9133 148.139 23.22L144.299 28.6C144.245 28.6667 144.172 28.7533 144.079 28.86C143.985 28.9533 143.845 29 143.659 29H142.579ZM144.519 22.54C145.079 22.54 145.592 22.42 146.059 22.18C146.539 21.9267 146.919 21.58 147.199 21.14C147.479 20.6867 147.619 20.1467 147.619 19.52C147.619 18.8933 147.479 18.36 147.199 17.92C146.919 17.4667 146.539 17.12 146.059 16.88C145.592 16.6267 145.079 16.5 144.519 16.5C143.972 16.5 143.465 16.6267 142.999 16.88C142.532 17.12 142.159 17.4667 141.879 17.92C141.599 18.36 141.459 18.8933 141.459 19.52C141.459 20.1467 141.599 20.6867 141.879 21.14C142.159 21.58 142.532 21.9267 142.999 22.18C143.465 22.42 143.972 22.54 144.519 22.54ZM153.554 29C153.434 29 153.334 28.96 153.254 28.88C153.188 28.7867 153.154 28.68 153.154 28.56C153.154 28.52 153.168 28.46 153.194 28.38L158.174 16.74H151.614C151.481 16.74 151.368 16.7 151.274 16.62C151.194 16.5267 151.154 16.4133 151.154 16.28V15.48C151.154 15.3333 151.194 15.22 151.274 15.14C151.368 15.0467 151.481 15 151.614 15H159.814C159.961 15 160.074 15.0467 160.154 15.14C160.248 15.22 160.294 15.3333 160.294 15.48V16.22C160.294 16.3933 160.281 16.5333 160.254 16.64C160.228 16.7467 160.188 16.8667 160.134 17L155.194 28.5C155.154 28.6067 155.088 28.72 154.994 28.84C154.914 28.9467 154.794 29 154.634 29H153.554Z" fill="#C2C0CC"/>
<rect x="0.5" y="0.5" width="184" height="43" rx="21.5" stroke="#0A0A0A"/>
</svg>
