<svg width="202" height="44" viewBox="0 0 202 44" fill="none" xmlns="http://www.w3.org/2000/svg">
<rect x="0.5" y="0.5" width="201" height="43" rx="21.5" fill="#1B1A1F"/>
<g clip-path="url(#clip0_23_710)">
<path d="M34 13.8019C36.6701 13.8019 36.9863 13.812 38.0408 13.8601C39.0158 13.9046 39.5453 14.0675 39.8977 14.2045C40.3645 14.3859 40.6976 14.6026 41.0475 14.9525C41.3975 15.3024 41.6141 15.6355 41.7955 16.1023C41.9325 16.4547 42.0954 16.9842 42.1399 17.9591C42.188 19.0137 42.1981 19.3299 42.1981 22C42.1981 24.6702 42.188 24.9864 42.1399 26.0409C42.0954 27.0159 41.9325 27.5453 41.7955 27.8977C41.6141 28.3645 41.3974 28.6977 41.0475 29.0476C40.6976 29.3975 40.3645 29.6142 39.8977 29.7955C39.5453 29.9325 39.0158 30.0955 38.0408 30.1399C36.9865 30.188 36.6702 30.1982 34 30.1982C31.3297 30.1982 31.0134 30.188 29.9591 30.1399C28.9841 30.0954 28.4547 29.9325 28.1023 29.7955C27.6355 29.6142 27.3023 29.3975 26.9524 29.0476C26.6025 28.6976 26.3858 28.3645 26.2045 27.8977C26.0675 27.5454 25.9045 27.0159 25.8601 26.0409C25.812 24.9864 25.8018 24.6702 25.8018 22C25.8018 19.3299 25.812 19.0137 25.8601 17.9592C25.9046 16.9842 26.0675 16.4547 26.2045 16.1023C26.3858 15.6355 26.6025 15.3024 26.9524 14.9525C27.3024 14.6025 27.6355 14.3859 28.1023 14.2045C28.4546 14.0675 28.9841 13.9046 29.9591 13.8601C31.0136 13.812 31.3298 13.8019 34 13.8019ZM34 12C31.2841 12 30.9436 12.0115 29.877 12.0602C28.8126 12.1087 28.0856 12.2778 27.4496 12.525C26.792 12.7805 26.2343 13.1225 25.6784 13.6784C25.1224 14.2344 24.7805 14.792 24.525 15.4496C24.2777 16.0857 24.1087 16.8127 24.0602 17.877C24.0115 18.9436 24 19.2841 24 22C24 24.7159 24.0115 25.0564 24.0602 26.123C24.1087 27.1874 24.2777 27.9144 24.525 28.5504C24.7805 29.208 25.1224 29.7657 25.6784 30.3216C26.2343 30.8776 26.792 31.2195 27.4496 31.475C28.0857 31.7223 28.8126 31.8912 29.877 31.9398C30.9436 31.9885 31.2841 32 34 32C36.7159 32 37.0564 31.9885 38.123 31.9398C39.1873 31.8912 39.9143 31.7223 40.5503 31.475C41.208 31.2195 41.7656 30.8776 42.3216 30.3216C42.8775 29.7657 43.2195 29.208 43.475 28.5504C43.7222 27.9143 43.8912 27.1874 43.9398 26.123C43.9885 25.0564 44 24.7159 44 22C44 19.2841 43.9885 18.9436 43.9398 17.877C43.8912 16.8127 43.7222 16.0857 43.475 15.4497C43.2195 14.792 42.8775 14.2344 42.3216 13.6784C41.7656 13.1225 41.208 12.7805 40.5504 12.525C39.9143 12.2778 39.1873 12.1087 38.123 12.0602C37.0564 12.0115 36.7159 12 34 12ZM34 16.8648C31.1639 16.8648 28.8648 19.1641 28.8648 22C28.8648 24.8361 31.1639 27.1352 34 27.1352C36.836 27.1352 39.1352 24.8361 39.1352 22C39.1352 19.164 36.836 16.8648 34 16.8648ZM34 25.3334C32.1591 25.3334 30.6666 23.8409 30.6666 22C30.6666 20.1591 32.1591 18.6666 34 18.6666C35.8409 18.6666 37.3334 20.1591 37.3334 22C37.3334 23.8409 35.8409 25.3334 34 25.3334ZM40.538 16.662C40.538 17.3248 40.0008 17.862 39.338 17.862C38.6752 17.862 38.138 17.3248 38.138 16.662C38.138 15.9992 38.6752 15.462 39.338 15.462C40.0008 15.462 40.538 15.9992 40.538 16.662Z" fill="#4A4852"/>
</g>
<path d="M60.22 31.36C58.7933 31.36 57.58 31.12 56.58 30.64C55.58 30.16 54.8 29.4667 54.24 28.56C53.68 27.64 53.3333 26.54 53.2 25.26C53.1867 25.0733 53.1733 24.8267 53.16 24.52C53.1467 24.2133 53.14 23.8867 53.14 23.54C53.14 23.1933 53.1467 22.8667 53.16 22.56C53.1733 22.2533 53.1867 22.0133 53.2 21.84C53.2933 20.9333 53.5133 20.1 53.86 19.34C54.2067 18.58 54.6667 17.9333 55.24 17.4C55.8267 16.8533 56.5267 16.4333 57.34 16.14C58.1533 15.8467 59.0867 15.7 60.14 15.7C61.3533 15.7 62.4 15.84 63.28 16.12C64.1733 16.4 64.9133 16.8067 65.5 17.34C66.1 17.8733 66.5533 18.52 66.86 19.28C67.1667 20.04 67.3467 20.8933 67.4 21.84C67.4267 22.1867 67.44 22.5333 67.44 22.88C67.44 23.2267 67.4333 23.5467 67.42 23.84C67.42 24.12 67.4133 24.3267 67.4 24.46C67.36 25.1133 67.2267 25.66 67 26.1C66.7733 26.54 66.46 26.8733 66.06 27.1C65.6733 27.3133 65.2133 27.42 64.68 27.42C64.24 27.42 63.8667 27.3467 63.56 27.2C63.2533 27.0533 63.0133 26.8933 62.84 26.72C62.6667 26.5333 62.54 26.3867 62.46 26.28C62.3533 26.4533 62.2 26.6467 62 26.86C61.8133 27.0733 61.5533 27.2533 61.22 27.4C60.8867 27.5467 60.4533 27.62 59.92 27.62C58.9333 27.62 58.1467 27.2667 57.56 26.56C56.9733 25.8533 56.68 24.8467 56.68 23.54C56.68 22.2333 56.9733 21.2267 57.56 20.52C58.1467 19.8 58.9333 19.44 59.92 19.44C60.4667 19.44 60.8933 19.54 61.2 19.74C61.52 19.94 61.7733 20.16 61.96 20.4V20.06C61.96 19.9267 62 19.82 62.08 19.74C62.1733 19.6467 62.2867 19.6 62.42 19.6H62.96C63.0933 19.6 63.2 19.6467 63.28 19.74C63.3733 19.82 63.42 19.9267 63.42 20.06V24.32C63.42 24.8933 63.54 25.32 63.78 25.6C64.02 25.88 64.32 26.02 64.68 26.02C65.04 26.02 65.3067 25.92 65.48 25.72C65.6667 25.52 65.7867 25.2867 65.84 25.02C65.9067 24.74 65.94 24.5067 65.94 24.32C65.9533 24.12 65.9667 23.8 65.98 23.36C65.9933 22.92 65.98 22.4467 65.94 21.94C65.86 20.8867 65.6133 20 65.2 19.28C64.8 18.56 64.1867 18.0133 63.36 17.64C62.5467 17.2667 61.4733 17.08 60.14 17.08C59.0467 17.08 58.1133 17.28 57.34 17.68C56.5667 18.0667 55.9533 18.62 55.5 19.34C55.06 20.06 54.78 20.9267 54.66 21.94C54.6333 22.1667 54.6133 22.4867 54.6 22.9C54.6 23.3133 54.6 23.7333 54.6 24.16C54.6133 24.5733 54.6333 24.9067 54.66 25.16C54.82 26.6933 55.3667 27.88 56.3 28.72C57.2467 29.5467 58.5533 29.96 60.22 29.96C61.18 29.96 61.94 29.88 62.5 29.72C63.06 29.5733 63.4867 29.3933 63.78 29.18C64.0867 28.98 64.3333 28.8133 64.52 28.68C64.5867 28.6267 64.66 28.5733 64.74 28.52C64.82 28.4533 64.92 28.42 65.04 28.42H65.84C65.96 28.42 66.06 28.4667 66.14 28.56C66.2333 28.64 66.28 28.74 66.28 28.86C66.28 28.9133 66.2667 28.96 66.24 29C66.2267 29.0533 66.2 29.1 66.16 29.14C65.8133 29.5267 65.38 29.8867 64.86 30.22C64.34 30.5667 63.7 30.84 62.94 31.04C62.1933 31.2533 61.2867 31.36 60.22 31.36ZM60.04 26.22C60.7467 26.22 61.24 25.98 61.52 25.5C61.8133 25.0067 61.96 24.3533 61.96 23.54C61.96 22.7267 61.8133 22.0733 61.52 21.58C61.24 21.0867 60.7467 20.84 60.04 20.84C59.36 20.84 58.8733 21.0867 58.58 21.58C58.2867 22.0733 58.14 22.7267 58.14 23.54C58.14 24.02 58.2 24.4667 58.32 24.88C58.4533 25.28 58.66 25.6067 58.94 25.86C59.22 26.1 59.5867 26.22 60.04 26.22Z" fill="#4A4852"/>
<path d="M73.0206 29.2C72.354 29.2 71.7473 29.0667 71.2006 28.8C70.654 28.5333 70.214 28.1733 69.8806 27.72C69.5473 27.2667 69.3806 26.7533 69.3806 26.18C69.3806 25.26 69.754 24.5267 70.5006 23.98C71.2473 23.4333 72.2206 23.0733 73.4206 22.9L76.4006 22.48V21.9C76.4006 21.26 76.214 20.76 75.8406 20.4C75.4806 20.04 74.8873 19.86 74.0606 19.86C73.4606 19.86 72.974 19.98 72.6006 20.22C72.2406 20.46 71.9873 20.7667 71.8406 21.14C71.7606 21.34 71.6206 21.44 71.4206 21.44H70.5206C70.374 21.44 70.2606 21.4 70.1806 21.32C70.114 21.2267 70.0806 21.12 70.0806 21C70.0806 20.8 70.154 20.5533 70.3006 20.26C70.4606 19.9667 70.7006 19.68 71.0206 19.4C71.3406 19.12 71.7473 18.8867 72.2406 18.7C72.7473 18.5 73.3606 18.4 74.0806 18.4C74.8806 18.4 75.554 18.5067 76.1006 18.72C76.6473 18.92 77.074 19.1933 77.3806 19.54C77.7006 19.8867 77.9273 20.28 78.0606 20.72C78.2073 21.16 78.2806 21.6067 78.2806 22.06V28.54C78.2806 28.6733 78.234 28.7867 78.1406 28.88C78.0606 28.96 77.954 29 77.8206 29H76.9006C76.754 29 76.6406 28.96 76.5606 28.88C76.4806 28.7867 76.4406 28.6733 76.4406 28.54V27.68C76.2673 27.92 76.034 28.16 75.7406 28.4C75.4473 28.6267 75.0806 28.82 74.6406 28.98C74.2006 29.1267 73.6606 29.2 73.0206 29.2ZM73.4406 27.7C73.9873 27.7 74.4873 27.5867 74.9406 27.36C75.394 27.12 75.7473 26.7533 76.0006 26.26C76.2673 25.7667 76.4006 25.1467 76.4006 24.4V23.84L74.0806 24.18C73.134 24.3133 72.4206 24.54 71.9406 24.86C71.4606 25.1667 71.2206 25.56 71.2206 26.04C71.2206 26.4133 71.3273 26.7267 71.5406 26.98C71.7673 27.22 72.0473 27.4 72.3806 27.52C72.7273 27.64 73.0806 27.7 73.4406 27.7ZM81.6158 29C81.4824 29 81.3691 28.96 81.2758 28.88C81.1958 28.7867 81.1558 28.6733 81.1558 28.54V19.06C81.1558 18.9267 81.1958 18.82 81.2758 18.74C81.3691 18.6467 81.4824 18.6 81.6158 18.6H82.5558C82.6891 18.6 82.7958 18.6467 82.8758 18.74C82.9691 18.82 83.0158 18.9267 83.0158 19.06V19.94C83.3624 19.4867 83.7958 19.12 84.3158 18.84C84.8491 18.5467 85.5291 18.4 86.3558 18.4C87.2224 18.4 87.9558 18.5933 88.5558 18.98C89.1691 19.3533 89.6291 19.88 89.9358 20.56C90.2424 21.2267 90.3958 22.0067 90.3958 22.9V28.54C90.3958 28.6733 90.3558 28.7867 90.2758 28.88C90.1958 28.96 90.0891 29 89.9558 29H88.9558C88.8224 29 88.7091 28.96 88.6158 28.88C88.5358 28.7867 88.4958 28.6733 88.4958 28.54V23C88.4958 22.0667 88.2691 21.34 87.8158 20.82C87.3624 20.2867 86.6958 20.02 85.8158 20.02C84.9891 20.02 84.3224 20.2867 83.8158 20.82C83.3224 21.34 83.0758 22.0667 83.0758 23V28.54C83.0758 28.6733 83.0291 28.7867 82.9358 28.88C82.8558 28.96 82.7491 29 82.6158 29H81.6158ZM97.208 29C96.4613 29 95.8546 28.86 95.388 28.58C94.9213 28.2867 94.5813 27.88 94.368 27.36C94.1546 26.8267 94.048 26.2 94.048 25.48V20.2H92.488C92.3546 20.2 92.2413 20.16 92.148 20.08C92.068 19.9867 92.028 19.8733 92.028 19.74V19.06C92.028 18.9267 92.068 18.82 92.148 18.74C92.2413 18.6467 92.3546 18.6 92.488 18.6H94.048V15.26C94.048 15.1267 94.088 15.02 94.168 14.94C94.2613 14.8467 94.3746 14.8 94.508 14.8H95.448C95.5813 14.8 95.688 14.8467 95.768 14.94C95.8613 15.02 95.908 15.1267 95.908 15.26V18.6H98.388C98.5213 18.6 98.628 18.6467 98.708 18.74C98.8013 18.82 98.848 18.9267 98.848 19.06V19.74C98.848 19.8733 98.8013 19.9867 98.708 20.08C98.628 20.16 98.5213 20.2 98.388 20.2H95.908V25.34C95.908 25.9667 96.0146 26.46 96.228 26.82C96.4413 27.18 96.8213 27.36 97.368 27.36H98.588C98.7213 27.36 98.828 27.4067 98.908 27.5C99.0013 27.58 99.048 27.6867 99.048 27.82V28.54C99.048 28.6733 99.0013 28.7867 98.908 28.88C98.828 28.96 98.7213 29 98.588 29H97.208ZM105.22 29.2C104.207 29.2 103.36 29.0067 102.68 28.62C102 28.2333 101.48 27.7 101.12 27.02C100.76 26.3267 100.56 25.54 100.52 24.66C100.507 24.4333 100.5 24.1467 100.5 23.8C100.5 23.44 100.507 23.1533 100.52 22.94C100.56 22.0467 100.76 21.26 101.12 20.58C101.494 19.9 102.02 19.3667 102.7 18.98C103.38 18.5933 104.22 18.4 105.22 18.4C106.22 18.4 107.06 18.5933 107.74 18.98C108.42 19.3667 108.94 19.9 109.3 20.58C109.674 21.26 109.88 22.0467 109.92 22.94C109.934 23.1533 109.94 23.44 109.94 23.8C109.94 24.1467 109.934 24.4333 109.92 24.66C109.88 25.54 109.68 26.3267 109.32 27.02C108.96 27.7 108.44 28.2333 107.76 28.62C107.08 29.0067 106.234 29.2 105.22 29.2ZM105.22 27.66C106.047 27.66 106.707 27.4 107.2 26.88C107.694 26.3467 107.96 25.5733 108 24.56C108.014 24.36 108.02 24.1067 108.02 23.8C108.02 23.4933 108.014 23.24 108 23.04C107.96 22.0267 107.694 21.26 107.2 20.74C106.707 20.2067 106.047 19.94 105.22 19.94C104.394 19.94 103.727 20.2067 103.22 20.74C102.727 21.26 102.467 22.0267 102.44 23.04C102.427 23.24 102.42 23.4933 102.42 23.8C102.42 24.1067 102.427 24.36 102.44 24.56C102.467 25.5733 102.727 26.3467 103.22 26.88C103.727 27.4 104.394 27.66 105.22 27.66ZM112.905 29C112.772 29 112.658 28.96 112.565 28.88C112.485 28.7867 112.445 28.6733 112.445 28.54V19.06C112.445 18.9267 112.485 18.82 112.565 18.74C112.658 18.6467 112.772 18.6 112.905 18.6H113.845C113.978 18.6 114.085 18.6467 114.165 18.74C114.258 18.82 114.305 18.9267 114.305 19.06V19.94C114.652 19.4867 115.085 19.12 115.605 18.84C116.138 18.5467 116.818 18.4 117.645 18.4C118.512 18.4 119.245 18.5933 119.845 18.98C120.458 19.3533 120.918 19.88 121.225 20.56C121.532 21.2267 121.685 22.0067 121.685 22.9V28.54C121.685 28.6733 121.645 28.7867 121.565 28.88C121.485 28.96 121.378 29 121.245 29H120.245C120.112 29 119.998 28.96 119.905 28.88C119.825 28.7867 119.785 28.6733 119.785 28.54V23C119.785 22.0667 119.558 21.34 119.105 20.82C118.652 20.2867 117.985 20.02 117.105 20.02C116.278 20.02 115.612 20.2867 115.105 20.82C114.612 21.34 114.365 22.0667 114.365 23V28.54C114.365 28.6733 114.318 28.7867 114.225 28.88C114.145 28.96 114.038 29 113.905 29H112.905ZM125.034 29C124.9 29 124.787 28.96 124.694 28.88C124.614 28.7867 124.574 28.6733 124.574 28.54V19.06C124.574 18.9267 124.614 18.82 124.694 18.74C124.787 18.6467 124.9 18.6 125.034 18.6H125.994C126.127 18.6 126.234 18.6467 126.314 18.74C126.394 18.82 126.434 18.9267 126.434 19.06V28.54C126.434 28.6733 126.394 28.7867 126.314 28.88C126.234 28.96 126.127 29 125.994 29H125.034ZM124.874 16.66C124.74 16.66 124.627 16.62 124.534 16.54C124.454 16.4467 124.414 16.3333 124.414 16.2V15.12C124.414 14.9867 124.454 14.88 124.534 14.8C124.627 14.7067 124.74 14.66 124.874 14.66H126.134C126.267 14.66 126.374 14.7067 126.454 14.8C126.547 14.88 126.594 14.9867 126.594 15.12V16.2C126.594 16.3333 126.547 16.4467 126.454 16.54C126.374 16.62 126.267 16.66 126.134 16.66H124.874ZM133.717 29.2C132.703 29.2 131.857 29.0067 131.177 28.62C130.497 28.2333 129.977 27.7 129.617 27.02C129.257 26.3267 129.057 25.54 129.017 24.66C129.003 24.4333 128.997 24.1467 128.997 23.8C128.997 23.44 129.003 23.1533 129.017 22.94C129.057 22.0467 129.257 21.26 129.617 20.58C129.99 19.9 130.517 19.3667 131.197 18.98C131.877 18.5933 132.717 18.4 133.717 18.4C134.717 18.4 135.557 18.5933 136.237 18.98C136.917 19.3667 137.437 19.9 137.797 20.58C138.17 21.26 138.377 22.0467 138.417 22.94C138.43 23.1533 138.437 23.44 138.437 23.8C138.437 24.1467 138.43 24.4333 138.417 24.66C138.377 25.54 138.177 26.3267 137.817 27.02C137.457 27.7 136.937 28.2333 136.257 28.62C135.577 29.0067 134.73 29.2 133.717 29.2ZM133.717 27.66C134.543 27.66 135.203 27.4 135.697 26.88C136.19 26.3467 136.457 25.5733 136.497 24.56C136.51 24.36 136.517 24.1067 136.517 23.8C136.517 23.4933 136.51 23.24 136.497 23.04C136.457 22.0267 136.19 21.26 135.697 20.74C135.203 20.2067 134.543 19.94 133.717 19.94C132.89 19.94 132.223 20.2067 131.717 20.74C131.223 21.26 130.963 22.0267 130.937 23.04C130.923 23.24 130.917 23.4933 130.917 23.8C130.917 24.1067 130.923 24.36 130.937 24.56C130.963 25.5733 131.223 26.3467 131.717 26.88C132.223 27.4 132.89 27.66 133.717 27.66ZM143.841 29.2C143.174 29.2 142.568 29.0667 142.021 28.8C141.474 28.5333 141.034 28.1733 140.701 27.72C140.368 27.2667 140.201 26.7533 140.201 26.18C140.201 25.26 140.574 24.5267 141.321 23.98C142.068 23.4333 143.041 23.0733 144.241 22.9L147.221 22.48V21.9C147.221 21.26 147.034 20.76 146.661 20.4C146.301 20.04 145.708 19.86 144.881 19.86C144.281 19.86 143.794 19.98 143.421 20.22C143.061 20.46 142.808 20.7667 142.661 21.14C142.581 21.34 142.441 21.44 142.241 21.44H141.341C141.194 21.44 141.081 21.4 141.001 21.32C140.934 21.2267 140.901 21.12 140.901 21C140.901 20.8 140.974 20.5533 141.121 20.26C141.281 19.9667 141.521 19.68 141.841 19.4C142.161 19.12 142.568 18.8867 143.061 18.7C143.568 18.5 144.181 18.4 144.901 18.4C145.701 18.4 146.374 18.5067 146.921 18.72C147.468 18.92 147.894 19.1933 148.201 19.54C148.521 19.8867 148.748 20.28 148.881 20.72C149.028 21.16 149.101 21.6067 149.101 22.06V28.54C149.101 28.6733 149.054 28.7867 148.961 28.88C148.881 28.96 148.774 29 148.641 29H147.721C147.574 29 147.461 28.96 147.381 28.88C147.301 28.7867 147.261 28.6733 147.261 28.54V27.68C147.088 27.92 146.854 28.16 146.561 28.4C146.268 28.6267 145.901 28.82 145.461 28.98C145.021 29.1267 144.481 29.2 143.841 29.2ZM144.261 27.7C144.808 27.7 145.308 27.5867 145.761 27.36C146.214 27.12 146.568 26.7533 146.821 26.26C147.088 25.7667 147.221 25.1467 147.221 24.4V23.84L144.901 24.18C143.954 24.3133 143.241 24.54 142.761 24.86C142.281 25.1667 142.041 25.56 142.041 26.04C142.041 26.4133 142.148 26.7267 142.361 26.98C142.588 27.22 142.868 27.4 143.201 27.52C143.548 27.64 143.901 27.7 144.261 27.7ZM152.456 29C152.323 29 152.209 28.96 152.116 28.88C152.036 28.7867 151.996 28.6733 151.996 28.54V15.26C151.996 15.1267 152.036 15.02 152.116 14.94C152.209 14.8467 152.323 14.8 152.456 14.8H153.396C153.543 14.8 153.656 14.8467 153.736 14.94C153.816 15.02 153.856 15.1267 153.856 15.26V28.54C153.856 28.6733 153.816 28.7867 153.736 28.88C153.656 28.96 153.543 29 153.396 29H152.456ZM159.219 29C159.099 29 158.999 28.96 158.919 28.88C158.853 28.7867 158.819 28.68 158.819 28.56C158.819 28.4933 158.826 28.44 158.839 28.4C158.866 28.36 158.886 28.3267 158.899 28.3L161.959 24.04C161.626 24.12 161.266 24.16 160.879 24.16C160.133 24.1467 159.466 24.0133 158.879 23.76C158.293 23.5067 157.793 23.1667 157.379 22.74C156.966 22.3 156.653 21.8067 156.439 21.26C156.226 20.7133 156.119 20.14 156.119 19.54C156.119 18.9533 156.219 18.38 156.419 17.82C156.633 17.26 156.946 16.7533 157.359 16.3C157.786 15.8467 158.313 15.4867 158.939 15.22C159.566 14.94 160.306 14.8 161.159 14.8C161.999 14.8 162.733 14.9333 163.359 15.2C163.999 15.4533 164.533 15.8067 164.959 16.26C165.399 16.7 165.719 17.2 165.919 17.76C166.133 18.32 166.239 18.9 166.239 19.5C166.239 20.0467 166.159 20.5467 165.999 21C165.839 21.4533 165.646 21.86 165.419 22.22C165.206 22.58 164.993 22.9133 164.779 23.22L160.939 28.6C160.886 28.6667 160.813 28.7533 160.719 28.86C160.626 28.9533 160.486 29 160.299 29H159.219ZM161.159 22.54C161.719 22.54 162.233 22.42 162.699 22.18C163.179 21.9267 163.559 21.58 163.839 21.14C164.119 20.6867 164.259 20.1467 164.259 19.52C164.259 18.8933 164.119 18.36 163.839 17.92C163.559 17.4667 163.179 17.12 162.699 16.88C162.233 16.6267 161.719 16.5 161.159 16.5C160.613 16.5 160.106 16.6267 159.639 16.88C159.173 17.12 158.799 17.4667 158.519 17.92C158.239 18.36 158.099 18.8933 158.099 19.52C158.099 20.1467 158.239 20.6867 158.519 21.14C158.799 21.58 159.173 21.9267 159.639 22.18C160.106 22.42 160.613 22.54 161.159 22.54ZM170.195 29C170.075 29 169.975 28.96 169.895 28.88C169.828 28.7867 169.795 28.68 169.795 28.56C169.795 28.52 169.808 28.46 169.835 28.38L174.815 16.74H168.255C168.122 16.74 168.008 16.7 167.915 16.62C167.835 16.5267 167.795 16.4133 167.795 16.28V15.48C167.795 15.3333 167.835 15.22 167.915 15.14C168.008 15.0467 168.122 15 168.255 15H176.455C176.602 15 176.715 15.0467 176.795 15.14C176.888 15.22 176.935 15.3333 176.935 15.48V16.22C176.935 16.3933 176.922 16.5333 176.895 16.64C176.868 16.7467 176.828 16.8667 176.775 17L171.835 28.5C171.795 28.6067 171.728 28.72 171.635 28.84C171.555 28.9467 171.435 29 171.275 29H170.195Z" fill="#C2C0CC"/>
<rect x="0.5" y="0.5" width="201" height="43" rx="21.5" stroke="#0A0A0A"/>
<defs>
<clipPath id="clip0_23_710">
<rect width="20" height="20" fill="white" transform="translate(24 12)"/>
</clipPath>
</defs>
</svg>
