<svg width="210" height="44" viewBox="0 0 210 44" fill="none" xmlns="http://www.w3.org/2000/svg">
<rect x="0.5" y="0.5" width="209" height="43" rx="21.5" fill="#1B1A1F"/>
<g clip-path="url(#clip0_23_716)">
<path d="M39.3368 29.0412H36.6698V24.4004C36.6698 23.2937 36.652 21.8691 35.2827 21.8691C33.8936 21.8691 33.681 23.0749 33.681 24.3198V29.0409H31.0141V19.4975H33.5744V20.8017H33.6102C33.8665 20.3149 34.2367 19.9144 34.6816 19.643C35.1264 19.3715 35.6292 19.2391 36.1364 19.26C38.8396 19.26 39.338 21.2357 39.338 23.8058L39.3368 29.0412ZM28.0047 18.193C27.1499 18.1932 26.4569 17.4233 26.4567 16.4736C26.4566 15.5238 27.1494 14.7537 28.0042 14.7536C28.8589 14.7533 29.552 15.5232 29.5522 16.4729C29.5522 16.929 29.3892 17.3665 29.099 17.6891C28.8088 18.0116 28.4152 18.1929 28.0047 18.193ZM29.3383 29.0413H26.6684V19.4975H29.3382V29.0412L29.3383 29.0413ZM40.6665 12.0015H25.3283C24.6034 11.9924 24.0089 12.6376 24 13.4431V30.5566C24.0086 31.3625 24.603 32.0083 25.3282 31.9999H40.6665C41.3932 32.0099 41.9899 31.364 42 30.5566V13.4418C41.9897 12.6347 41.3929 11.9896 40.6665 12.0001" fill="#4A4852"/>
</g>
<path d="M51.94 29C51.8067 29 51.6933 28.96 51.6 28.88C51.52 28.7867 51.48 28.6733 51.48 28.54V19.06C51.48 18.9267 51.52 18.82 51.6 18.74C51.6933 18.6467 51.8067 18.6 51.94 18.6H52.9C53.0333 18.6 53.14 18.6467 53.22 18.74C53.3 18.82 53.34 18.9267 53.34 19.06V28.54C53.34 28.6733 53.3 28.7867 53.22 28.88C53.14 28.96 53.0333 29 52.9 29H51.94ZM51.78 16.66C51.6467 16.66 51.5333 16.62 51.44 16.54C51.36 16.4467 51.32 16.3333 51.32 16.2V15.12C51.32 14.9867 51.36 14.88 51.44 14.8C51.5333 14.7067 51.6467 14.66 51.78 14.66H53.04C53.1733 14.66 53.28 14.7067 53.36 14.8C53.4533 14.88 53.5 14.9867 53.5 15.12V16.2C53.5 16.3333 53.4533 16.4467 53.36 16.54C53.28 16.62 53.1733 16.66 53.04 16.66H51.78ZM56.9791 29C56.8457 29 56.7324 28.96 56.6391 28.88C56.5591 28.7867 56.5191 28.6733 56.5191 28.54V19.06C56.5191 18.9267 56.5591 18.82 56.6391 18.74C56.7324 18.6467 56.8457 18.6 56.9791 18.6H57.9191C58.0524 18.6 58.1591 18.6467 58.2391 18.74C58.3324 18.82 58.3791 18.9267 58.3791 19.06V19.94C58.7257 19.4867 59.1591 19.12 59.6791 18.84C60.2124 18.5467 60.8924 18.4 61.7191 18.4C62.5857 18.4 63.3191 18.5933 63.9191 18.98C64.5324 19.3533 64.9924 19.88 65.2991 20.56C65.6057 21.2267 65.7591 22.0067 65.7591 22.9V28.54C65.7591 28.6733 65.7191 28.7867 65.6391 28.88C65.5591 28.96 65.4524 29 65.3191 29H64.3191C64.1857 29 64.0724 28.96 63.9791 28.88C63.8991 28.7867 63.8591 28.6733 63.8591 28.54V23C63.8591 22.0667 63.6324 21.34 63.1791 20.82C62.7257 20.2867 62.0591 20.02 61.1791 20.02C60.3524 20.02 59.6857 20.2867 59.1791 20.82C58.6857 21.34 58.4391 22.0667 58.4391 23V28.54C58.4391 28.6733 58.3924 28.7867 58.2991 28.88C58.2191 28.96 58.1124 29 57.9791 29H56.9791ZM68.088 30.68C67.9813 30.68 67.888 30.64 67.808 30.56C67.728 30.48 67.688 30.3867 67.688 30.28C67.688 30.2133 67.708 30.1333 67.748 30.04L74.588 13.64C74.628 13.56 74.6813 13.48 74.748 13.4C74.828 13.32 74.948 13.28 75.108 13.28H75.888C75.9946 13.28 76.088 13.32 76.168 13.4C76.248 13.48 76.288 13.5733 76.288 13.68C76.288 13.7333 76.2746 13.8133 76.248 13.92L69.388 30.32C69.3613 30.3867 69.3013 30.46 69.208 30.54C69.128 30.6333 69.0146 30.68 68.868 30.68H68.088Z" fill="#4A4852"/>
<path d="M81.1769 29.2C80.5102 29.2 79.9035 29.0667 79.3569 28.8C78.8102 28.5333 78.3702 28.1733 78.0369 27.72C77.7035 27.2667 77.5369 26.7533 77.5369 26.18C77.5369 25.26 77.9102 24.5267 78.6569 23.98C79.4035 23.4333 80.3769 23.0733 81.5769 22.9L84.5569 22.48V21.9C84.5569 21.26 84.3702 20.76 83.9969 20.4C83.6369 20.04 83.0435 19.86 82.2169 19.86C81.6169 19.86 81.1302 19.98 80.7569 20.22C80.3969 20.46 80.1435 20.7667 79.9969 21.14C79.9169 21.34 79.7769 21.44 79.5769 21.44H78.6769C78.5302 21.44 78.4169 21.4 78.3369 21.32C78.2702 21.2267 78.2369 21.12 78.2369 21C78.2369 20.8 78.3102 20.5533 78.4569 20.26C78.6169 19.9667 78.8569 19.68 79.1769 19.4C79.4969 19.12 79.9035 18.8867 80.3969 18.7C80.9035 18.5 81.5169 18.4 82.2369 18.4C83.0369 18.4 83.7102 18.5067 84.2569 18.72C84.8035 18.92 85.2302 19.1933 85.5369 19.54C85.8569 19.8867 86.0835 20.28 86.2169 20.72C86.3635 21.16 86.4369 21.6067 86.4369 22.06V28.54C86.4369 28.6733 86.3902 28.7867 86.2969 28.88C86.2169 28.96 86.1102 29 85.9769 29H85.0569C84.9102 29 84.7969 28.96 84.7169 28.88C84.6369 28.7867 84.5969 28.6733 84.5969 28.54V27.68C84.4235 27.92 84.1902 28.16 83.8969 28.4C83.6035 28.6267 83.2369 28.82 82.7969 28.98C82.3569 29.1267 81.8169 29.2 81.1769 29.2ZM81.5969 27.7C82.1435 27.7 82.6435 27.5867 83.0969 27.36C83.5502 27.12 83.9035 26.7533 84.1569 26.26C84.4235 25.7667 84.5569 25.1467 84.5569 24.4V23.84L82.2369 24.18C81.2902 24.3133 80.5769 24.54 80.0969 24.86C79.6169 25.1667 79.3769 25.56 79.3769 26.04C79.3769 26.4133 79.4835 26.7267 79.6969 26.98C79.9235 27.22 80.2035 27.4 80.5369 27.52C80.8835 27.64 81.2369 27.7 81.5969 27.7ZM89.772 29C89.6387 29 89.5254 28.96 89.432 28.88C89.352 28.7867 89.312 28.6733 89.312 28.54V19.06C89.312 18.9267 89.352 18.82 89.432 18.74C89.5254 18.6467 89.6387 18.6 89.772 18.6H90.712C90.8454 18.6 90.952 18.6467 91.032 18.74C91.1254 18.82 91.172 18.9267 91.172 19.06V19.94C91.5187 19.4867 91.952 19.12 92.472 18.84C93.0054 18.5467 93.6854 18.4 94.512 18.4C95.3787 18.4 96.112 18.5933 96.712 18.98C97.3254 19.3533 97.7854 19.88 98.092 20.56C98.3987 21.2267 98.552 22.0067 98.552 22.9V28.54C98.552 28.6733 98.512 28.7867 98.432 28.88C98.352 28.96 98.2454 29 98.112 29H97.112C96.9787 29 96.8654 28.96 96.772 28.88C96.692 28.7867 96.652 28.6733 96.652 28.54V23C96.652 22.0667 96.4254 21.34 95.972 20.82C95.5187 20.2867 94.852 20.02 93.972 20.02C93.1454 20.02 92.4787 20.2867 91.972 20.82C91.4787 21.34 91.232 22.0667 91.232 23V28.54C91.232 28.6733 91.1854 28.7867 91.092 28.88C91.012 28.96 90.9054 29 90.772 29H89.772ZM105.364 29C104.618 29 104.011 28.86 103.544 28.58C103.078 28.2867 102.738 27.88 102.524 27.36C102.311 26.8267 102.204 26.2 102.204 25.48V20.2H100.644C100.511 20.2 100.398 20.16 100.304 20.08C100.224 19.9867 100.184 19.8733 100.184 19.74V19.06C100.184 18.9267 100.224 18.82 100.304 18.74C100.398 18.6467 100.511 18.6 100.644 18.6H102.204V15.26C102.204 15.1267 102.244 15.02 102.324 14.94C102.418 14.8467 102.531 14.8 102.664 14.8H103.604C103.738 14.8 103.844 14.8467 103.924 14.94C104.018 15.02 104.064 15.1267 104.064 15.26V18.6H106.544C106.678 18.6 106.784 18.6467 106.864 18.74C106.958 18.82 107.004 18.9267 107.004 19.06V19.74C107.004 19.8733 106.958 19.9867 106.864 20.08C106.784 20.16 106.678 20.2 106.544 20.2H104.064V25.34C104.064 25.9667 104.171 26.46 104.384 26.82C104.598 27.18 104.978 27.36 105.524 27.36H106.744C106.878 27.36 106.984 27.4067 107.064 27.5C107.158 27.58 107.204 27.6867 107.204 27.82V28.54C107.204 28.6733 107.158 28.7867 107.064 28.88C106.984 28.96 106.878 29 106.744 29H105.364ZM113.377 29.2C112.363 29.2 111.517 29.0067 110.837 28.62C110.157 28.2333 109.637 27.7 109.277 27.02C108.917 26.3267 108.717 25.54 108.677 24.66C108.663 24.4333 108.657 24.1467 108.657 23.8C108.657 23.44 108.663 23.1533 108.677 22.94C108.717 22.0467 108.917 21.26 109.277 20.58C109.65 19.9 110.177 19.3667 110.857 18.98C111.537 18.5933 112.377 18.4 113.377 18.4C114.377 18.4 115.217 18.5933 115.897 18.98C116.577 19.3667 117.097 19.9 117.457 20.58C117.83 21.26 118.037 22.0467 118.077 22.94C118.09 23.1533 118.097 23.44 118.097 23.8C118.097 24.1467 118.09 24.4333 118.077 24.66C118.037 25.54 117.837 26.3267 117.477 27.02C117.117 27.7 116.597 28.2333 115.917 28.62C115.237 29.0067 114.39 29.2 113.377 29.2ZM113.377 27.66C114.203 27.66 114.863 27.4 115.357 26.88C115.85 26.3467 116.117 25.5733 116.157 24.56C116.17 24.36 116.177 24.1067 116.177 23.8C116.177 23.4933 116.17 23.24 116.157 23.04C116.117 22.0267 115.85 21.26 115.357 20.74C114.863 20.2067 114.203 19.94 113.377 19.94C112.55 19.94 111.883 20.2067 111.377 20.74C110.883 21.26 110.623 22.0267 110.597 23.04C110.583 23.24 110.577 23.4933 110.577 23.8C110.577 24.1067 110.583 24.36 110.597 24.56C110.623 25.5733 110.883 26.3467 111.377 26.88C111.883 27.4 112.55 27.66 113.377 27.66ZM121.061 29C120.928 29 120.814 28.96 120.721 28.88C120.641 28.7867 120.601 28.6733 120.601 28.54V19.06C120.601 18.9267 120.641 18.82 120.721 18.74C120.814 18.6467 120.928 18.6 121.061 18.6H122.001C122.134 18.6 122.241 18.6467 122.321 18.74C122.414 18.82 122.461 18.9267 122.461 19.06V19.94C122.808 19.4867 123.241 19.12 123.761 18.84C124.294 18.5467 124.974 18.4 125.801 18.4C126.668 18.4 127.401 18.5933 128.001 18.98C128.614 19.3533 129.074 19.88 129.381 20.56C129.688 21.2267 129.841 22.0067 129.841 22.9V28.54C129.841 28.6733 129.801 28.7867 129.721 28.88C129.641 28.96 129.534 29 129.401 29H128.401C128.268 29 128.154 28.96 128.061 28.88C127.981 28.7867 127.941 28.6733 127.941 28.54V23C127.941 22.0667 127.714 21.34 127.261 20.82C126.808 20.2867 126.141 20.02 125.261 20.02C124.434 20.02 123.768 20.2867 123.261 20.82C122.768 21.34 122.521 22.0667 122.521 23V28.54C122.521 28.6733 122.474 28.7867 122.381 28.88C122.301 28.96 122.194 29 122.061 29H121.061ZM133.19 29C133.057 29 132.943 28.96 132.85 28.88C132.77 28.7867 132.73 28.6733 132.73 28.54V19.06C132.73 18.9267 132.77 18.82 132.85 18.74C132.943 18.6467 133.057 18.6 133.19 18.6H134.15C134.283 18.6 134.39 18.6467 134.47 18.74C134.55 18.82 134.59 18.9267 134.59 19.06V28.54C134.59 28.6733 134.55 28.7867 134.47 28.88C134.39 28.96 134.283 29 134.15 29H133.19ZM133.03 16.66C132.897 16.66 132.783 16.62 132.69 16.54C132.61 16.4467 132.57 16.3333 132.57 16.2V15.12C132.57 14.9867 132.61 14.88 132.69 14.8C132.783 14.7067 132.897 14.66 133.03 14.66H134.29C134.423 14.66 134.53 14.7067 134.61 14.8C134.703 14.88 134.75 14.9867 134.75 15.12V16.2C134.75 16.3333 134.703 16.4467 134.61 16.54C134.53 16.62 134.423 16.66 134.29 16.66H133.03ZM141.873 29.2C140.859 29.2 140.013 29.0067 139.333 28.62C138.653 28.2333 138.133 27.7 137.773 27.02C137.413 26.3267 137.213 25.54 137.173 24.66C137.159 24.4333 137.153 24.1467 137.153 23.8C137.153 23.44 137.159 23.1533 137.173 22.94C137.213 22.0467 137.413 21.26 137.773 20.58C138.146 19.9 138.673 19.3667 139.353 18.98C140.033 18.5933 140.873 18.4 141.873 18.4C142.873 18.4 143.713 18.5933 144.393 18.98C145.073 19.3667 145.593 19.9 145.953 20.58C146.326 21.26 146.533 22.0467 146.573 22.94C146.586 23.1533 146.593 23.44 146.593 23.8C146.593 24.1467 146.586 24.4333 146.573 24.66C146.533 25.54 146.333 26.3267 145.973 27.02C145.613 27.7 145.093 28.2333 144.413 28.62C143.733 29.0067 142.886 29.2 141.873 29.2ZM141.873 27.66C142.699 27.66 143.359 27.4 143.853 26.88C144.346 26.3467 144.613 25.5733 144.653 24.56C144.666 24.36 144.673 24.1067 144.673 23.8C144.673 23.4933 144.666 23.24 144.653 23.04C144.613 22.0267 144.346 21.26 143.853 20.74C143.359 20.2067 142.699 19.94 141.873 19.94C141.046 19.94 140.379 20.2067 139.873 20.74C139.379 21.26 139.119 22.0267 139.093 23.04C139.079 23.24 139.073 23.4933 139.073 23.8C139.073 24.1067 139.079 24.36 139.093 24.56C139.119 25.5733 139.379 26.3467 139.873 26.88C140.379 27.4 141.046 27.66 141.873 27.66ZM151.997 29.2C151.331 29.2 150.724 29.0667 150.177 28.8C149.631 28.5333 149.191 28.1733 148.857 27.72C148.524 27.2667 148.357 26.7533 148.357 26.18C148.357 25.26 148.731 24.5267 149.477 23.98C150.224 23.4333 151.197 23.0733 152.397 22.9L155.377 22.48V21.9C155.377 21.26 155.191 20.76 154.817 20.4C154.457 20.04 153.864 19.86 153.037 19.86C152.437 19.86 151.951 19.98 151.577 20.22C151.217 20.46 150.964 20.7667 150.817 21.14C150.737 21.34 150.597 21.44 150.397 21.44H149.497C149.351 21.44 149.237 21.4 149.157 21.32C149.091 21.2267 149.057 21.12 149.057 21C149.057 20.8 149.131 20.5533 149.277 20.26C149.437 19.9667 149.677 19.68 149.997 19.4C150.317 19.12 150.724 18.8867 151.217 18.7C151.724 18.5 152.337 18.4 153.057 18.4C153.857 18.4 154.531 18.5067 155.077 18.72C155.624 18.92 156.051 19.1933 156.357 19.54C156.677 19.8867 156.904 20.28 157.037 20.72C157.184 21.16 157.257 21.6067 157.257 22.06V28.54C157.257 28.6733 157.211 28.7867 157.117 28.88C157.037 28.96 156.931 29 156.797 29H155.877C155.731 29 155.617 28.96 155.537 28.88C155.457 28.7867 155.417 28.6733 155.417 28.54V27.68C155.244 27.92 155.011 28.16 154.717 28.4C154.424 28.6267 154.057 28.82 153.617 28.98C153.177 29.1267 152.637 29.2 151.997 29.2ZM152.417 27.7C152.964 27.7 153.464 27.5867 153.917 27.36C154.371 27.12 154.724 26.7533 154.977 26.26C155.244 25.7667 155.377 25.1467 155.377 24.4V23.84L153.057 24.18C152.111 24.3133 151.397 24.54 150.917 24.86C150.437 25.1667 150.197 25.56 150.197 26.04C150.197 26.4133 150.304 26.7267 150.517 26.98C150.744 27.22 151.024 27.4 151.357 27.52C151.704 27.64 152.057 27.7 152.417 27.7ZM160.612 29C160.479 29 160.366 28.96 160.272 28.88C160.192 28.7867 160.152 28.6733 160.152 28.54V15.26C160.152 15.1267 160.192 15.02 160.272 14.94C160.366 14.8467 160.479 14.8 160.612 14.8H161.552C161.699 14.8 161.812 14.8467 161.892 14.94C161.972 15.02 162.012 15.1267 162.012 15.26V28.54C162.012 28.6733 161.972 28.7867 161.892 28.88C161.812 28.96 161.699 29 161.552 29H160.612ZM167.376 29C167.256 29 167.156 28.96 167.076 28.88C167.009 28.7867 166.976 28.68 166.976 28.56C166.976 28.4933 166.982 28.44 166.996 28.4C167.022 28.36 167.042 28.3267 167.056 28.3L170.116 24.04C169.782 24.12 169.422 24.16 169.036 24.16C168.289 24.1467 167.622 24.0133 167.036 23.76C166.449 23.5067 165.949 23.1667 165.536 22.74C165.122 22.3 164.809 21.8067 164.596 21.26C164.382 20.7133 164.276 20.14 164.276 19.54C164.276 18.9533 164.376 18.38 164.576 17.82C164.789 17.26 165.102 16.7533 165.516 16.3C165.942 15.8467 166.469 15.4867 167.096 15.22C167.722 14.94 168.462 14.8 169.316 14.8C170.156 14.8 170.889 14.9333 171.516 15.2C172.156 15.4533 172.689 15.8067 173.116 16.26C173.556 16.7 173.876 17.2 174.076 17.76C174.289 18.32 174.396 18.9 174.396 19.5C174.396 20.0467 174.316 20.5467 174.156 21C173.996 21.4533 173.802 21.86 173.576 22.22C173.362 22.58 173.149 22.9133 172.936 23.22L169.096 28.6C169.042 28.6667 168.969 28.7533 168.876 28.86C168.782 28.9533 168.642 29 168.456 29H167.376ZM169.316 22.54C169.876 22.54 170.389 22.42 170.856 22.18C171.336 21.9267 171.716 21.58 171.996 21.14C172.276 20.6867 172.416 20.1467 172.416 19.52C172.416 18.8933 172.276 18.36 171.996 17.92C171.716 17.4667 171.336 17.12 170.856 16.88C170.389 16.6267 169.876 16.5 169.316 16.5C168.769 16.5 168.262 16.6267 167.796 16.88C167.329 17.12 166.956 17.4667 166.676 17.92C166.396 18.36 166.256 18.8933 166.256 19.52C166.256 20.1467 166.396 20.6867 166.676 21.14C166.956 21.58 167.329 21.9267 167.796 22.18C168.262 22.42 168.769 22.54 169.316 22.54ZM178.351 29C178.231 29 178.131 28.96 178.051 28.88C177.984 28.7867 177.951 28.68 177.951 28.56C177.951 28.52 177.964 28.46 177.991 28.38L182.971 16.74H176.411C176.278 16.74 176.164 16.7 176.071 16.62C175.991 16.5267 175.951 16.4133 175.951 16.28V15.48C175.951 15.3333 175.991 15.22 176.071 15.14C176.164 15.0467 176.278 15 176.411 15H184.611C184.758 15 184.871 15.0467 184.951 15.14C185.044 15.22 185.091 15.3333 185.091 15.48V16.22C185.091 16.3933 185.078 16.5333 185.051 16.64C185.024 16.7467 184.984 16.8667 184.931 17L179.991 28.5C179.951 28.6067 179.884 28.72 179.791 28.84C179.711 28.9467 179.591 29 179.431 29H178.351Z" fill="#C2C0CC"/>
<rect x="0.5" y="0.5" width="209" height="43" rx="21.5" stroke="#0A0A0A"/>
<defs>
<clipPath id="clip0_23_716">
<rect width="18" height="20" fill="white" transform="translate(24 12)"/>
</clipPath>
</defs>
</svg>
